<svg width="33" height="29" viewBox="0 0 33 29" fill="none" xmlns="http://www.w3.org/2000/svg">
<path d="M17.679 1.31965C18.162 1.57257 18.5697 1.83298 18.9022 2.1009C20.569 3.44215 21.3934 5.48215 21.1497 7.61965C20.9553 9.32277 20.1515 10.9896 19.154 12.3928C18.3103 13.5794 17.3557 14.6721 16.2903 15.6709C15.2936 14.7663 14.3832 13.7849 13.559 12.7265C12.8853 11.8615 12.3276 10.9407 11.8859 9.96402C11.0572 8.13215 10.8403 6.07777 11.8059 4.25652C12.9003 2.19403 15.0922 1.01215 17.4447 1.27903C17.5409 1.29028 17.619 1.30382 17.679 1.31965ZM16.3209 4.46902C16.119 4.53715 15.9153 4.58652 15.7315 4.68215C15.6253 4.73673 15.5192 4.79444 15.4134 4.85527C15.143 4.62194 14.8901 4.63923 14.6547 4.90715C14.1455 5.4859 13.8924 6.14069 13.8953 6.87152C13.9034 8.95277 16.0509 10.3559 17.9572 9.51152C18.7965 9.13965 19.4297 8.36715 19.6184 7.48027C19.8372 6.4559 19.4965 5.41527 18.7122 4.70527C18.2384 4.27611 17.6499 4.0309 16.9465 3.96965C16.5903 3.9384 16.339 4.08027 16.3209 4.46902Z" fill="#FF4A4A"/>
<path d="M17.6788 1.31934C18.1288 1.37934 18.5557 1.49746 18.9594 1.67371C20.139 2.18829 21.0411 2.98475 21.6657 4.06308C23.3507 6.97308 21.8969 10.2887 20.0582 12.6712C19.094 13.92 18.0082 15.0614 16.8007 16.0956C16.7972 16.0987 16.7928 16.1004 16.7882 16.1004C16.7836 16.1004 16.7791 16.0987 16.7757 16.0956L16.29 15.6706C17.3555 14.6718 18.31 13.5791 19.1538 12.3925C20.1513 10.9893 20.955 9.32246 21.1494 7.61933C21.3932 5.48183 20.5688 3.44183 18.9019 2.10059C18.5694 1.83267 18.1617 1.57225 17.6788 1.31934Z" fill="#E7343F"/>
<path d="M10.5164 11.7936L12.3814 12.7655C12.4114 12.7811 12.4377 12.8031 12.4583 12.8298C12.672 13.1028 12.8866 13.3796 13.102 13.6605C13.4526 14.1186 13.8458 14.5411 14.2408 14.9861C14.2583 15.0057 14.2539 15.0136 14.2276 15.0098L10.2889 14.4455C10.2853 14.445 10.282 14.4431 10.2797 14.4401C10.2773 14.437 10.2762 14.4332 10.2764 14.4292L10.4789 11.8142C10.481 11.7888 10.4935 11.7819 10.5164 11.7936Z" fill="#44C868"/>
<path d="M23.0559 12.5673L20.5002 13.6898C20.4632 13.706 20.4569 13.6981 20.4815 13.666C20.6944 13.3902 20.9009 13.1162 21.1009 12.8442C21.1517 12.7754 21.2173 12.7202 21.2977 12.6785C21.8965 12.3706 22.4655 12.0742 23.0046 11.7892C23.0077 11.7875 23.0112 11.7866 23.0147 11.7866C23.0182 11.7866 23.0217 11.7875 23.0248 11.7892C23.0279 11.7908 23.0305 11.7933 23.0325 11.7962C23.0344 11.7992 23.0356 11.8025 23.0359 11.806L23.0902 12.5098C23.0923 12.5369 23.0809 12.556 23.0559 12.5673Z" fill="#4CE166"/>
<path d="M4.17248 14.8509L9.49935 11.8859C9.50259 11.8841 9.50626 11.8832 9.50997 11.8833C9.51368 11.8834 9.51729 11.8845 9.52043 11.8865C9.52356 11.8885 9.5261 11.8913 9.52778 11.8946C9.52947 11.8979 9.53022 11.9016 9.52998 11.9053L9.32623 14.5397C9.32593 14.543 9.3248 14.5463 9.32295 14.5491C9.32109 14.5519 9.31857 14.5543 9.3156 14.5559L3.71685 17.5072C3.71343 17.509 3.70957 17.5098 3.7057 17.5095C3.70184 17.5093 3.69813 17.5079 3.695 17.5056C3.69187 17.5033 3.68944 17.5002 3.688 17.4966C3.68656 17.493 3.68616 17.4891 3.68685 17.4853L4.16185 14.8653C4.16243 14.8622 4.16369 14.8594 4.16553 14.8569C4.16737 14.8544 4.16974 14.8524 4.17248 14.8509Z" fill="#4CE166"/>
<path d="M24.4413 12.1655L24.0613 12.2523C24.0288 12.2598 24.0113 12.2471 24.0088 12.2142L23.9875 11.9155C23.9854 11.8842 23.9979 11.8761 24.025 11.8911L24.4475 12.1248C24.4804 12.1436 24.4784 12.1571 24.4413 12.1655Z" fill="#44C868"/>
<path d="M27.4552 13.8417L24.2152 14.5648C24.2123 14.5654 24.2092 14.5654 24.2063 14.5648C24.2034 14.5642 24.2006 14.5629 24.1982 14.5612C24.1958 14.5594 24.1937 14.5571 24.1923 14.5545C24.1908 14.5519 24.1899 14.549 24.1896 14.546L24.0889 13.2292C24.0885 13.2241 24.0899 13.219 24.0929 13.2149C24.0959 13.2108 24.1002 13.2078 24.1052 13.2067L25.7064 12.8317C25.7115 12.8304 25.7168 12.8311 25.7214 12.8335L27.4608 13.8029C27.4644 13.8051 27.4673 13.8082 27.469 13.812C27.4708 13.8158 27.4715 13.82 27.4709 13.8242C27.4703 13.8283 27.4685 13.8322 27.4657 13.8353C27.4629 13.8384 27.4592 13.8406 27.4552 13.8417Z" fill="#FFBB24"/>
<path d="M18.9859 15.3808L23.1471 13.5527C23.1497 13.5516 23.1525 13.5511 23.1553 13.5513C23.1581 13.5515 23.1608 13.5524 23.1632 13.5539C23.1656 13.5553 23.1676 13.5574 23.169 13.5598C23.1705 13.5622 23.1713 13.5649 23.1715 13.5677L23.4684 17.3839C23.4685 17.3867 23.4679 17.3895 23.4666 17.3919C23.4652 17.3944 23.4633 17.3964 23.4609 17.3977C23.4585 17.399 23.4558 17.3996 23.4531 17.3994C23.4505 17.3992 23.448 17.3981 23.4459 17.3964C22.8459 16.9273 22.2069 16.4283 21.529 15.8996C21.3734 15.7783 21.1946 15.7564 21.0103 15.8364C19.7732 16.3719 18.5219 16.9156 17.2565 17.4677C17.2535 17.4689 17.2502 17.4694 17.247 17.4691C17.2438 17.4687 17.2407 17.4676 17.238 17.4658C17.2353 17.4641 17.2331 17.4617 17.2315 17.4588C17.2299 17.456 17.2291 17.4528 17.229 17.4496L17.2296 17.0083C17.2296 16.98 17.2403 16.9569 17.2615 16.9389C17.8223 16.4644 18.3567 15.9727 18.8646 15.4639C18.8993 15.4289 18.9405 15.4006 18.9859 15.3808Z" fill="#FFDB56"/>
<path d="M12.5446 17.2133C12.1021 17.1783 11.8633 17.6027 12.1021 17.979C13.4988 20.1835 14.8881 22.3721 16.2702 24.5446C16.2827 24.5646 16.289 24.5862 16.289 24.6096V26.7883C16.289 26.8275 16.2781 26.8308 16.2565 26.7983L10.0727 17.4015C10.0573 17.3784 10.0503 17.3508 10.0527 17.3233L10.2021 15.4071C10.2023 15.404 10.2032 15.401 10.2046 15.3983C10.206 15.3955 10.208 15.3931 10.2104 15.3912C10.2128 15.3893 10.2156 15.3878 10.2186 15.387C10.2216 15.3862 10.2247 15.386 10.2277 15.3865L15.3533 16.1183C15.3746 16.1217 15.3933 16.1302 15.4096 16.144L16.2608 16.8908C16.2796 16.9075 16.289 16.9283 16.289 16.9533V17.6333C16.289 17.6558 16.2777 17.6656 16.2552 17.6627C13.789 17.3635 12.5521 17.2137 12.5446 17.2133Z" fill="#FFBB24"/>
<path d="M3.47504 18.6965L9.20816 15.6752C9.21134 15.6735 9.21492 15.6727 9.21852 15.6729C9.22213 15.673 9.22562 15.6742 9.22863 15.6762C9.23164 15.6781 9.23406 15.6809 9.23562 15.6842C9.23719 15.6874 9.23785 15.691 9.23754 15.6946L9.12129 17.184C9.12104 17.1874 9.11994 17.1906 9.11808 17.1935C9.11622 17.1963 9.11367 17.1986 9.11066 17.2002L3.20629 20.3202C3.20298 20.3219 3.19927 20.3226 3.19557 20.3223C3.19188 20.322 3.18834 20.3207 3.18536 20.3185C3.18238 20.3163 3.18006 20.3133 3.17868 20.3098C3.1773 20.3064 3.17691 20.3026 3.17754 20.299L3.46441 18.7102C3.46504 18.7073 3.46632 18.7045 3.46816 18.7021C3.46999 18.6998 3.47235 18.6978 3.47504 18.6965Z" fill="#FFDB56"/>
<path d="M31.381 25.9781C31.4247 26.2089 31.4587 26.4416 31.4829 26.6762C31.4854 26.6991 31.4791 26.7016 31.4641 26.6837L24.5022 18.2849C24.4864 18.2654 24.4768 18.2416 24.4747 18.2168L24.3491 16.5931C24.3462 16.556 24.3568 16.5516 24.381 16.5799C26.5843 19.1399 28.7879 21.6995 30.9916 24.2587C31.0454 24.3212 31.0801 24.3941 31.096 24.4774C31.191 24.9787 31.286 25.4789 31.381 25.9781Z" fill="#FFBB24"/>
<path d="M21.1694 16.8122L23.5538 18.6722C23.5583 18.6758 23.562 18.6803 23.5646 18.6853C23.5673 18.6904 23.569 18.6959 23.5694 18.7016L24.0263 24.6072C24.0269 24.6158 24.0249 24.6243 24.0206 24.6317C24.0162 24.6391 24.0097 24.6449 24.0019 24.6485L19.5694 26.6385C19.5615 26.642 19.5527 26.643 19.5442 26.6414C19.5357 26.6397 19.5279 26.6354 19.5219 26.6291L17.2394 24.2629C17.2319 24.2552 17.2277 24.2449 17.2275 24.2341V18.5316C17.2275 18.5234 17.2298 18.5154 17.2342 18.5085C17.2387 18.5016 17.245 18.4962 17.2525 18.4929L21.1269 16.8066C21.1339 16.8036 21.1415 16.8026 21.1489 16.8036C21.1564 16.8046 21.1635 16.8076 21.1694 16.8122Z" fill="#4CE166"/>
<path d="M16.2891 18.6283V22.7564C16.2891 22.7607 16.2876 22.7649 16.285 22.7684C16.2824 22.7718 16.2788 22.7743 16.2746 22.7755C16.2705 22.7767 16.2661 22.7766 16.262 22.775C16.258 22.7735 16.2545 22.7707 16.2522 22.7671L13.4172 18.3008C13.4152 18.2976 13.4141 18.2939 13.4141 18.2901C13.4141 18.2863 13.4151 18.2825 13.4172 18.2793C13.4192 18.2761 13.4221 18.2735 13.4255 18.2719C13.429 18.2703 13.4328 18.2697 13.4366 18.2702L16.2716 18.6089C16.2763 18.6095 16.2807 18.6118 16.2839 18.6154C16.2872 18.6189 16.289 18.6235 16.2891 18.6283Z" fill="#44C868"/>
<path d="M13.6434 26.5031C12.2301 25.866 10.8545 25.2485 9.51655 24.6506C9.50758 24.6467 9.50005 24.6401 9.49501 24.6318C9.48997 24.6236 9.48767 24.6139 9.48842 24.6043L9.92842 18.9331C9.92872 18.9303 9.92986 18.9276 9.93168 18.9254C9.9335 18.9232 9.93591 18.9217 9.93858 18.9209C9.94125 18.9202 9.94406 18.9203 9.9466 18.9212C9.94915 18.9222 9.95131 18.9239 9.9528 18.9262L15.4472 27.2749C15.4613 27.2962 15.4565 27.3018 15.4328 27.2918C14.932 27.0781 14.3355 26.8151 13.6434 26.5031Z" fill="#7EE5F2"/>
<path d="M30.0312 26.8915C28.3908 26.1507 26.7164 25.3976 25.0081 24.6321C24.9831 24.6209 24.9696 24.6015 24.9675 24.574L24.605 19.904C24.605 19.9025 24.6054 19.901 24.6063 19.8997C24.6072 19.8985 24.6084 19.8975 24.6098 19.897C24.6112 19.8964 24.6128 19.8963 24.6143 19.8967C24.6158 19.8971 24.6171 19.8979 24.6181 19.899L30.5944 27.109C30.6077 27.1253 30.6046 27.1296 30.585 27.1221C30.4075 27.0551 30.2229 26.9782 30.0312 26.8915Z" fill="#44C868"/>
<path d="M17.2275 27.6596V25.6528C17.2275 25.6489 17.2286 25.6452 17.2308 25.642C17.2329 25.6388 17.2359 25.6363 17.2395 25.6348C17.243 25.6333 17.247 25.6329 17.2507 25.6337C17.2545 25.6344 17.258 25.6363 17.2607 25.639L18.6132 27.0384C18.6154 27.0406 18.617 27.0433 18.6179 27.0463C18.6188 27.0493 18.619 27.0524 18.6185 27.0555C18.6179 27.0586 18.6167 27.0614 18.6147 27.0639C18.6128 27.0664 18.6104 27.0683 18.6075 27.0697L17.255 27.6771C17.2521 27.6785 17.2489 27.6791 17.2456 27.6789C17.2424 27.6787 17.2393 27.6776 17.2365 27.6759C17.2338 27.6742 17.2315 27.6718 17.23 27.6689C17.2284 27.6661 17.2276 27.6629 17.2275 27.6596Z" fill="#FFDB56"/>
<path d="M30.1719 16.6896L30.3363 17.6121C30.0296 17.7062 29.9067 17.9214 29.9675 18.2577C30.225 19.6731 30.48 21.0783 30.7325 22.4733C30.7396 22.5125 30.73 22.5168 30.7038 22.4864L24.6488 15.4514C24.6471 15.4496 24.6459 15.4473 24.6454 15.4448C24.6448 15.4424 24.6449 15.4398 24.6457 15.4374C24.6464 15.435 24.6478 15.4328 24.6497 15.4311C24.6516 15.4294 24.6538 15.4282 24.6563 15.4277L28.7132 14.5239C28.7333 14.5195 28.7543 14.5226 28.7719 14.5327L29.3313 14.8439C29.3434 14.8506 29.3507 14.8608 29.3532 14.8746C29.4332 15.285 29.5088 15.7039 29.58 16.1314C29.6092 16.3048 29.6532 16.4314 29.7119 16.5114C29.8119 16.6477 29.9653 16.7071 30.1719 16.6896Z" fill="#7EE5F2"/>
<path d="M1.69629 25.7708L1.86566 24.839C2.25441 24.8727 2.39129 24.6483 2.45379 24.3027C2.62587 23.3494 2.7915 22.4321 2.95066 21.5508C2.95525 21.5267 2.96837 21.509 2.99004 21.4977L9.01816 18.3115C9.01978 18.3105 9.02164 18.31 9.02353 18.3101C9.02541 18.3101 9.02724 18.3107 9.02881 18.3117C9.03038 18.3128 9.03162 18.3142 9.03239 18.316C9.03316 18.3177 9.03343 18.3196 9.03316 18.3215L8.54879 24.5902C8.54754 24.6069 8.53921 24.6185 8.52379 24.6252L1.88504 27.6046C1.86254 27.615 1.85337 27.6079 1.85754 27.5833C1.91129 27.26 1.97775 26.895 2.05691 26.4883C2.08733 26.3308 2.09129 26.2075 2.06879 26.1183C2.02504 25.9483 1.90087 25.8325 1.69629 25.7708Z" fill="#A8EEFC"/>
<path d="M30.1717 16.6898C29.965 16.7073 29.8117 16.6479 29.7117 16.5117C29.6529 16.4317 29.609 16.305 29.5798 16.1317C29.5086 15.7042 29.4329 15.2852 29.3529 14.8748C29.3504 14.861 29.3432 14.8508 29.3311 14.8442L28.7717 14.5329C28.754 14.5229 28.7331 14.5197 28.7129 14.5242L24.6561 15.4279C24.6536 15.4285 24.6513 15.4296 24.6495 15.4314C24.6476 15.4331 24.6462 15.4352 24.6455 15.4376C24.6447 15.44 24.6446 15.4426 24.6451 15.4451C24.6457 15.4475 24.6469 15.4498 24.6486 15.4517L30.7036 22.4867C30.7298 22.5171 30.7394 22.5127 30.7323 22.4735C30.4798 21.0785 30.2248 19.6733 29.9673 18.2579C29.9065 17.9217 30.0294 17.7065 30.3361 17.6123C30.5407 17.604 30.6917 17.6688 30.7892 17.8067C30.8388 17.8771 30.8827 18.0194 30.9211 18.2335C31.5282 21.6035 32.1402 24.9737 32.7573 28.3442V28.4985C32.684 28.7235 32.555 28.849 32.3704 28.8748C32.2621 28.8902 32.1213 28.8587 31.9479 28.7804C29.4646 27.6608 26.9961 26.5517 24.5423 25.4529C24.5358 25.4502 24.5288 25.4487 24.5219 25.4487C24.5149 25.4487 24.508 25.4502 24.5017 25.4529C21.9896 26.5808 19.4759 27.7096 16.9604 28.8392C16.825 28.9 16.6921 28.9012 16.5617 28.8429C14.0438 27.7133 11.5296 26.5842 9.0192 25.4554C9.01116 25.4517 9.00242 25.4498 8.99357 25.4498C8.98473 25.4498 8.97598 25.4517 8.96795 25.4554C6.54712 26.5383 4.06607 27.6531 1.52482 28.7998C1.18107 28.9548 0.879824 28.8854 0.757324 28.4773V28.3404C0.894408 27.6275 1.02524 26.9137 1.14982 26.1992C1.20107 25.9062 1.38316 25.7635 1.69607 25.771C1.90066 25.8327 2.02482 25.9485 2.06857 26.1185C2.09107 26.2077 2.08712 26.331 2.0567 26.4885C1.97753 26.8952 1.91107 27.2602 1.85732 27.5835C1.85316 27.6081 1.86232 27.6152 1.88482 27.6048L8.52357 24.6254C8.53899 24.6187 8.54732 24.6071 8.54857 24.5904L9.03295 18.3217C9.03321 18.3198 9.03294 18.3179 9.03217 18.3162C9.0314 18.3145 9.03016 18.313 9.02859 18.312C9.02703 18.3109 9.0252 18.3103 9.02331 18.3103C9.02143 18.3102 9.01957 18.3107 9.01795 18.3117L2.98982 21.4979C2.96816 21.5092 2.95503 21.5269 2.95045 21.551C2.79128 22.4323 2.62566 23.3496 2.45357 24.3029C2.39107 24.6485 2.2542 24.8729 1.86545 24.8392C1.57128 24.7471 1.44982 24.5598 1.50107 24.2773C2.68274 17.7577 3.27357 14.4979 3.27357 14.4979C3.33982 14.2973 3.40232 14.2017 3.57732 14.1042C5.56482 13.0025 7.64503 11.845 9.81795 10.6317C9.97795 10.5421 10.1398 10.5396 10.3036 10.6242C10.6857 10.8217 11.0488 11.0113 11.3929 11.1929C11.397 11.1948 11.4014 11.1954 11.4058 11.1947C11.4102 11.1939 11.4142 11.1918 11.4173 11.1886C11.4204 11.1854 11.4224 11.1814 11.4231 11.177C11.4238 11.1726 11.4231 11.1681 11.4211 11.1642C10.6054 9.69292 10.0698 7.89605 10.2561 6.19605C10.4211 4.6948 11.0209 3.40355 12.0554 2.3223C13.2692 1.0548 14.9667 0.299805 16.7436 0.299805C18.3094 0.300221 19.7034 0.790429 20.9254 1.77043C22.2773 2.85418 23.1292 4.46105 23.3142 6.16605C23.4804 7.69292 23.0917 9.2623 22.4179 10.6492C22.3379 10.8138 22.2584 10.9731 22.1792 11.1273C22.1617 11.161 22.1698 11.169 22.2036 11.151C22.5807 10.951 22.9284 10.7706 23.2467 10.6098C23.3892 10.5377 23.5325 10.5419 23.6767 10.6223C25.44 11.6031 27.5386 12.7708 29.9723 14.1254C30.1311 14.2135 30.2236 14.3735 30.2529 14.5479C30.3267 14.9854 30.4146 15.4669 30.5167 15.9923C30.5467 16.1465 30.5477 16.2715 30.5198 16.3673C30.4744 16.5231 30.3584 16.6306 30.1717 16.6898ZM16.2898 15.671L16.7754 16.096C16.7789 16.0991 16.7833 16.1008 16.7879 16.1008C16.7926 16.1008 16.797 16.0991 16.8004 16.096C18.0079 15.0619 19.0938 13.9204 20.0579 12.6717C21.8967 10.2892 23.3504 6.97355 21.6654 4.06355C21.0409 2.98522 20.1388 2.18876 18.9592 1.67418C18.5554 1.49793 18.1286 1.3798 17.6786 1.3198C17.6186 1.30397 17.5404 1.29043 17.4442 1.27918C15.0917 1.0123 12.8998 2.19418 11.8054 4.25668C10.8398 6.07793 11.0567 8.1323 11.8854 9.96417C12.3271 10.9408 12.8848 11.8617 13.5586 12.7267C14.3827 13.785 15.2932 14.7665 16.2898 15.671ZM10.5161 11.7935C10.4932 11.7819 10.4807 11.7888 10.4786 11.8142L10.2761 14.4292C10.2758 14.4331 10.277 14.437 10.2793 14.44C10.2817 14.443 10.285 14.445 10.2886 14.4454L14.2273 15.0098C14.2536 15.0135 14.2579 15.0056 14.2404 14.986C13.8454 14.541 13.4523 14.1185 13.1017 13.6604C12.8863 13.3796 12.6717 13.1027 12.4579 12.8298C12.4374 12.803 12.4111 12.7811 12.3811 12.7654L10.5161 11.7935ZM20.4998 13.6898L23.0554 12.5673C23.0804 12.556 23.0919 12.5369 23.0898 12.5098L23.0354 11.806C23.0351 11.8025 23.034 11.7992 23.032 11.7962C23.0301 11.7933 23.0275 11.7909 23.0244 11.7892C23.0213 11.7875 23.0178 11.7866 23.0143 11.7866C23.0108 11.7866 23.0073 11.7875 23.0042 11.7892C22.465 12.0742 21.8961 12.3706 21.2973 12.6785C21.2169 12.7202 21.1513 12.7754 21.1004 12.8442C20.9004 13.1163 20.694 13.3902 20.4811 13.666C20.4565 13.6981 20.4627 13.706 20.4998 13.6898ZM4.17232 14.851C4.16959 14.8525 4.16721 14.8545 4.16537 14.857C4.16353 14.8595 4.16228 14.8624 4.1617 14.8654L3.6867 17.4854C3.68601 17.4892 3.68641 17.4932 3.68785 17.4968C3.68929 17.5004 3.69171 17.5035 3.69484 17.5058C3.69797 17.508 3.70168 17.5094 3.70555 17.5097C3.70942 17.5099 3.71328 17.5091 3.7167 17.5073L9.31545 14.556C9.31842 14.5544 9.32094 14.5521 9.32279 14.5492C9.32465 14.5464 9.32577 14.5432 9.32607 14.5398L9.52982 11.9054C9.53007 11.9017 9.52931 11.898 9.52763 11.8947C9.52595 11.8914 9.52341 11.8886 9.52027 11.8866C9.51714 11.8846 9.51352 11.8835 9.50982 11.8834C9.50611 11.8833 9.50244 11.8842 9.4992 11.886L4.17232 14.851ZM24.4473 12.1248L24.0248 11.891C23.9977 11.876 23.9852 11.8842 23.9873 11.9154L24.0086 12.2142C24.0111 12.2471 24.0286 12.2598 24.0611 12.2523L24.4411 12.1654C24.4782 12.1571 24.4802 12.1435 24.4473 12.1248ZM27.4548 13.8417C27.4589 13.8406 27.4625 13.8384 27.4653 13.8353C27.4681 13.8322 27.4699 13.8283 27.4705 13.8242C27.4711 13.82 27.4705 13.8158 27.4687 13.812C27.4669 13.8082 27.464 13.8051 27.4604 13.8029L25.7211 12.8335C25.7165 12.8311 25.7111 12.8304 25.7061 12.8317L24.1048 13.2067C24.0999 13.2079 24.0955 13.2108 24.0925 13.2149C24.0895 13.219 24.0881 13.2241 24.0886 13.2292L24.1892 14.546C24.1895 14.549 24.1904 14.5519 24.1919 14.5545C24.1934 14.5571 24.1954 14.5594 24.1978 14.5612C24.2002 14.5629 24.203 14.5642 24.2059 14.5648C24.2089 14.5654 24.2119 14.5654 24.2148 14.5648L27.4548 13.8417ZM23.1467 13.5529L18.9854 15.381C18.94 15.4009 18.8989 15.4291 18.8642 15.4642C18.3563 15.9729 17.8219 16.4646 17.2611 16.9392C17.2398 16.9571 17.2292 16.9802 17.2292 17.0085L17.2286 17.4498C17.2286 17.453 17.2295 17.4562 17.2311 17.459C17.2326 17.4619 17.2349 17.4643 17.2376 17.4661C17.2403 17.4679 17.2434 17.469 17.2466 17.4693C17.2498 17.4696 17.2531 17.4691 17.2561 17.4679C18.5215 16.9158 19.7727 16.3721 21.0098 15.8367C21.1942 15.7567 21.3729 15.7785 21.5286 15.8998C22.2065 16.4285 22.8454 16.9275 23.4454 17.3967C23.4475 17.3984 23.4501 17.3994 23.4527 17.3996C23.4554 17.3999 23.4581 17.3993 23.4605 17.3979C23.4628 17.3966 23.4648 17.3946 23.4662 17.3922C23.4675 17.3897 23.4681 17.3869 23.4679 17.3842L23.1711 13.5679C23.1709 13.5651 23.1701 13.5624 23.1686 13.56C23.1672 13.5576 23.1652 13.5556 23.1628 13.5541C23.1604 13.5526 23.1577 13.5518 23.1549 13.5515C23.1521 13.5513 23.1493 13.5518 23.1467 13.5529ZM12.1017 17.9792C11.8629 17.6029 12.1017 17.1785 12.5442 17.2135C12.5517 17.214 13.7886 17.3638 16.2548 17.6629C16.2773 17.6658 16.2886 17.656 16.2886 17.6335V16.9535C16.2886 16.9285 16.2792 16.9077 16.2604 16.891L15.4092 16.1442C15.3929 16.1304 15.3742 16.1219 15.3529 16.1185L10.2273 15.3867C10.2243 15.3862 10.2212 15.3864 10.2182 15.3872C10.2152 15.3881 10.2124 15.3895 10.21 15.3914C10.2076 15.3933 10.2056 15.3958 10.2042 15.3985C10.2028 15.4012 10.2019 15.4042 10.2017 15.4073L10.0523 17.3235C10.0499 17.3511 10.057 17.3786 10.0723 17.4017L16.2561 26.7985C16.2777 26.831 16.2886 26.8277 16.2886 26.7885V24.6098C16.2886 24.5865 16.2823 24.5648 16.2698 24.5448C14.8877 22.3723 13.4984 20.1837 12.1017 17.9792ZM3.47482 18.6967C3.47213 18.698 3.46978 18.6999 3.46794 18.7023C3.4661 18.7047 3.46482 18.7075 3.4642 18.7104L3.17732 20.2992C3.17669 20.3028 3.17709 20.3066 3.17847 20.31C3.17985 20.3135 3.18216 20.3165 3.18514 20.3187C3.18813 20.3209 3.19166 20.3222 3.19536 20.3225C3.19906 20.3228 3.20277 20.3221 3.20607 20.3204L9.11045 17.2004C9.11345 17.1988 9.11601 17.1965 9.11787 17.1937C9.11972 17.1908 9.12083 17.1876 9.12107 17.1842L9.23732 15.6948C9.23764 15.6912 9.23698 15.6876 9.23541 15.6843C9.23384 15.6811 9.23142 15.6783 9.22841 15.6764C9.2254 15.6744 9.22191 15.6732 9.21831 15.6731C9.21471 15.6729 9.21113 15.6737 9.20795 15.6754L3.47482 18.6967ZM31.3804 25.9779C31.2854 25.4787 31.1904 24.9785 31.0954 24.4773C31.0796 24.394 31.0448 24.321 30.9911 24.2585C28.7873 21.6994 26.5838 19.1398 24.3804 16.5798C24.3563 16.5515 24.3457 16.5558 24.3486 16.5929L24.4742 18.2167C24.4762 18.2415 24.4858 18.2652 24.5017 18.2848L31.4636 26.6835C31.4786 26.7015 31.4848 26.699 31.4823 26.676C31.4582 26.4415 31.4242 26.2087 31.3804 25.9779ZM21.1692 16.8123C21.1633 16.8076 21.1562 16.8046 21.1487 16.8036C21.1412 16.8026 21.1336 16.8037 21.1267 16.8067L17.2523 18.4929C17.2448 18.4962 17.2385 18.5017 17.234 18.5085C17.2296 18.5154 17.2272 18.5235 17.2273 18.5317V24.2342C17.2274 24.2449 17.2317 24.2552 17.2392 24.2629L19.5217 26.6292C19.5277 26.6355 19.5354 26.6397 19.544 26.6414C19.5525 26.6431 19.5613 26.6421 19.5692 26.6385L24.0017 24.6485C24.0095 24.645 24.016 24.6391 24.0204 24.6317C24.0247 24.6244 24.0267 24.6158 24.0261 24.6073L23.5692 18.7017C23.5687 18.696 23.5671 18.6904 23.5644 18.6854C23.5617 18.6803 23.558 18.6759 23.5536 18.6723L21.1692 16.8123ZM16.2886 18.6285C16.2885 18.6238 16.2866 18.6192 16.2834 18.6156C16.2802 18.612 16.2758 18.6098 16.2711 18.6092L13.4361 18.2704C13.4323 18.2699 13.4285 18.2705 13.425 18.2722C13.4216 18.2738 13.4187 18.2763 13.4166 18.2796C13.4146 18.2828 13.4135 18.2865 13.4135 18.2903C13.4136 18.2941 13.4146 18.2978 13.4167 18.301L16.2517 22.7673C16.254 22.7709 16.2575 22.7737 16.2615 22.7753C16.2655 22.7768 16.27 22.777 16.2741 22.7758C16.2783 22.7746 16.2819 22.7721 16.2845 22.7686C16.2871 22.7652 16.2886 22.761 16.2886 22.7567V18.6285ZM13.6429 26.5035C14.335 26.8156 14.9315 27.0785 15.4323 27.2923C15.4561 27.3023 15.4609 27.2967 15.4467 27.2754L9.95232 18.9267C9.95084 18.9244 9.94867 18.9226 9.94613 18.9217C9.94358 18.9207 9.94078 18.9206 9.93811 18.9214C9.93544 18.9221 9.93303 18.9237 9.93121 18.9259C9.92939 18.9281 9.92825 18.9307 9.92795 18.9335L9.48795 24.6048C9.48719 24.6144 9.4895 24.624 9.49454 24.6323C9.49958 24.6406 9.50711 24.6472 9.51607 24.651C10.854 25.249 12.2296 25.8665 13.6429 26.5035ZM30.0311 26.8917C30.2227 26.9783 30.4073 27.0552 30.5848 27.1223C30.6044 27.1298 30.6075 27.1254 30.5942 27.1092L24.6179 19.8992C24.6169 19.898 24.6156 19.8972 24.6141 19.8968C24.6126 19.8965 24.6111 19.8966 24.6097 19.8971C24.6082 19.8977 24.607 19.8986 24.6061 19.8999C24.6053 19.9011 24.6048 19.9026 24.6048 19.9042L24.9673 24.5742C24.9694 24.6017 24.9829 24.621 25.0079 24.6323C26.7163 25.3977 28.3907 26.1508 30.0311 26.8917ZM17.2273 27.6598C17.2273 27.663 17.2282 27.6662 17.2297 27.6691C17.2313 27.6719 17.2336 27.6743 17.2363 27.676C17.239 27.6778 17.2422 27.6788 17.2454 27.679C17.2486 27.6792 17.2519 27.6786 17.2548 27.6773L18.6073 27.0698C18.6102 27.0685 18.6126 27.0665 18.6145 27.064C18.6164 27.0616 18.6177 27.0587 18.6183 27.0556C18.6188 27.0526 18.6186 27.0494 18.6177 27.0464C18.6168 27.0435 18.6151 27.0407 18.6129 27.0385L17.2604 25.6392C17.2577 25.6364 17.2543 25.6346 17.2505 25.6338C17.2467 25.6331 17.2428 25.6334 17.2393 25.6349C17.2357 25.6364 17.2327 25.6389 17.2306 25.6421C17.2284 25.6453 17.2273 25.6491 17.2273 25.6529V27.6598Z" fill="black"/>
<path d="M15.4132 4.85513C15.7307 5.31888 15.2307 5.58638 15.0525 5.95263C14.775 6.52305 14.7561 7.08722 14.9957 7.64513C15.4669 8.74451 16.8688 9.18388 17.8763 8.48951C19.2507 7.54138 18.9307 5.48826 17.3494 4.98826C16.9675 4.86763 16.4025 5.01076 16.3207 4.46888C16.3388 4.08013 16.59 3.93826 16.9463 3.96951C17.6496 4.03076 18.2382 4.27597 18.7119 4.70513C19.4963 5.41513 19.8369 6.45576 19.6182 7.48013C19.4294 8.36701 18.7963 9.13951 17.9569 9.51138C16.0507 10.3558 13.9032 8.95263 13.895 6.87138C13.8921 6.14055 14.1453 5.48576 14.6544 4.90701C14.8898 4.63909 15.1428 4.6218 15.4132 4.85513Z" fill="black"/>
</svg>
