<svg width="33" height="33" viewBox="0 0 33 33" fill="none" xmlns="http://www.w3.org/2000/svg">
<circle cx="16.3506" cy="16.5142" r="16" fill="white"/>
<circle cx="16.3505" cy="16.5141" r="14.3891" fill="#E8B732"/>
<path d="M28.0068 12.9849V13.1979C27.964 13.5094 27.8375 13.7384 27.6089 13.967C23.6479 17.9253 19.7525 21.8204 15.9226 25.6524C15.5793 25.9961 15.0588 26.089 14.6149 25.8851C14.4792 25.8225 14.3258 25.7029 14.1546 25.5263C13.9302 25.295 13.7065 25.0714 13.4834 24.8556C13.4796 24.8518 13.4744 24.8497 13.4691 24.8497C13.4637 24.8497 13.4586 24.8518 13.4547 24.8556C13.0358 25.2687 12.6213 25.6844 12.2113 26.1027C11.9736 26.3445 11.7222 26.5093 11.3876 26.533C11.0273 26.5585 10.7157 26.4396 10.4528 26.1765C9.80229 25.5253 9.1782 24.9016 8.58051 24.3051C8.57919 24.3038 8.57814 24.3022 8.57743 24.3005C8.57671 24.2988 8.57634 24.2969 8.57634 24.2951C8.57634 24.2932 8.57671 24.2914 8.57743 24.2896C8.57814 24.2879 8.57919 24.2864 8.58051 24.285C8.74306 24.1211 8.93384 23.959 9.0413 23.7541C9.36685 23.1317 9.08911 22.3322 8.38973 22.1209C8.00423 22.0043 7.64968 22.0619 7.3261 22.2935C7.19132 22.39 7.07795 22.5243 6.95729 22.6418C6.94454 22.6542 6.93179 22.6542 6.91904 22.6418C6.31893 22.0432 5.71517 21.4394 5.10777 20.8305C4.86948 20.5913 4.73167 20.3297 4.69434 20.0455V19.827C4.73198 19.5459 4.84095 19.3152 5.02126 19.1349C8.87268 15.2835 12.7239 11.4322 16.5751 7.58109C16.7906 7.36557 16.9436 7.23262 17.034 7.18223C17.3742 6.99236 17.8081 6.98508 18.1491 7.1754C18.2608 7.23793 18.3745 7.32824 18.4901 7.44632C18.7397 7.701 18.9834 7.94505 19.2214 8.17848C19.2227 8.1798 19.2243 8.18085 19.226 8.18156C19.2277 8.18228 19.2295 8.18265 19.2314 8.18265C19.2333 8.18265 19.2351 8.18228 19.2368 8.18156C19.2386 8.18085 19.2401 8.1798 19.2414 8.17848C19.6354 7.79054 20.0375 7.38789 20.4476 6.97051C20.6097 6.80538 20.7473 6.692 20.8606 6.63038C21.2093 6.44051 21.6433 6.44597 21.9847 6.6445C22.0791 6.69913 22.193 6.79354 22.3262 6.92771C22.9424 7.54664 23.5377 8.14129 24.112 8.71166C24.1254 8.72501 24.1255 8.73837 24.1125 8.75173C23.9845 8.88514 23.8324 9.01354 23.7286 9.16152C23.2478 9.84587 23.6162 10.7606 24.4121 10.9532C24.7358 11.0315 25.1137 10.9509 25.3728 10.7397C25.5015 10.6346 25.6252 10.5153 25.7439 10.3818C25.7459 10.3794 25.7484 10.3775 25.7512 10.3761C25.754 10.3748 25.7571 10.374 25.7602 10.3739C25.7633 10.3738 25.7664 10.3743 25.7693 10.3754C25.7723 10.3765 25.7749 10.3782 25.7771 10.3804C26.3927 10.996 27.0097 11.613 27.628 12.2313C27.8441 12.4471 27.9704 12.6983 28.0068 12.9849ZM12.6689 20.9307C13.7074 21.4161 14.0763 22.7247 13.4538 23.7031C13.4453 23.7162 13.4467 23.7282 13.4579 23.7391C13.889 24.1692 14.3353 24.6159 14.797 25.0791C14.96 25.243 15.1995 25.2845 15.3762 25.1083C19.4161 21.0708 23.3304 17.1574 27.119 13.3682C27.2929 13.1943 27.261 12.9489 27.0985 12.7868C26.6362 12.3266 26.1868 11.878 25.7503 11.4409C25.7466 11.4371 25.7416 11.4347 25.7364 11.4342C25.7311 11.4336 25.7257 11.4348 25.7211 11.4377C25.257 11.723 24.768 11.8098 24.2541 11.6981C22.9473 11.414 22.3326 9.8914 23.062 8.77222C23.0645 8.76843 23.0655 8.76392 23.065 8.75944C23.0646 8.75496 23.0625 8.75079 23.0593 8.74763C22.6022 8.29443 22.1569 7.84943 21.7234 7.41262C21.5577 7.24598 21.3159 7.19407 21.1369 7.37301C17.2212 11.2888 13.3054 15.2046 9.38962 19.1203C9.19565 19.3143 9.26714 19.5542 9.44198 19.7268C9.89882 20.177 10.3361 20.6136 10.7538 21.0368C10.7647 21.048 10.777 21.0495 10.7906 21.0413C11.4172 20.6753 12.0432 20.6384 12.6689 20.9307ZM10.7233 22.094C10.1198 21.486 9.50876 20.8748 8.89013 20.2605C8.50994 19.883 8.38381 19.3616 8.62923 18.8708C8.68114 18.767 8.78526 18.6369 8.94158 18.4806C12.222 15.2002 15.4648 11.9583 18.67 8.75491C18.6751 8.74984 18.6779 8.74294 18.6779 8.73569C18.6779 8.72845 18.6751 8.72145 18.67 8.71621C18.3947 8.43816 18.135 8.17908 17.8909 7.93898C17.7179 7.76914 17.4884 7.75867 17.3232 7.9235C13.3102 11.9328 9.39296 15.8502 5.57129 19.6758C5.40919 19.8384 5.44198 20.0779 5.59906 20.234C6.07199 20.7048 6.52018 21.1538 6.94363 21.5809C6.95698 21.5942 6.97155 21.5959 6.98734 21.5859C7.9376 20.9799 9.25849 21.3122 9.74887 22.3445C10.0524 22.9834 10.0186 23.6185 9.64733 24.2495C9.63944 24.2626 9.64096 24.2744 9.65189 24.285C10.0814 24.714 10.531 25.1641 11.0006 25.6355C11.174 25.8095 11.4053 25.814 11.5897 25.6305C12.0262 25.1952 12.467 24.7548 12.912 24.3092C12.9156 24.3054 12.9177 24.3004 12.9177 24.2952C12.9177 24.29 12.9156 24.285 12.912 24.2814L12.3961 23.7655C12.3939 23.7633 12.3922 23.7607 12.391 23.7579C12.3899 23.755 12.3893 23.7519 12.3893 23.7488C12.3894 23.7457 12.39 23.7427 12.3913 23.7398C12.3925 23.737 12.3943 23.7344 12.3966 23.7323C12.591 23.5465 12.7977 23.3607 12.8979 23.1112C13.3737 21.9333 11.9381 20.9694 11.0174 21.8468C10.9333 21.9269 10.8526 22.009 10.7752 22.0931C10.7582 22.1113 10.7409 22.1116 10.7233 22.094Z" fill="black"/>
<path d="M18.9924 10.6063L18.4759 11.1227C18.4685 11.1302 18.4685 11.1423 18.4759 11.1498L18.9936 11.6675C19.0011 11.6749 19.0132 11.6749 19.0207 11.6675L19.5371 11.151C19.5446 11.1436 19.5446 11.1315 19.5371 11.124L19.0194 10.6063C19.0119 10.5988 18.9998 10.5988 18.9924 10.6063Z" fill="black"/>
<path d="M20.0811 11.6948L19.5653 12.2106C19.5573 12.2186 19.5573 12.2316 19.5653 12.2396L20.0811 12.7554C20.0891 12.7634 20.102 12.7634 20.11 12.7554L20.6258 12.2396C20.6338 12.2316 20.6338 12.2186 20.6258 12.2106L20.11 11.6948C20.102 11.6868 20.0891 11.6868 20.0811 11.6948Z" fill="black"/>
<path d="M21.1749 12.7802L20.6521 13.303C20.646 13.3091 20.646 13.3189 20.6521 13.3249L21.1736 13.8465C21.1797 13.8525 21.1895 13.8525 21.1955 13.8465L21.7184 13.3236C21.7244 13.3176 21.7244 13.3078 21.7184 13.3017L21.1968 12.7802C21.1908 12.7741 21.181 12.7741 21.1749 12.7802Z" fill="black"/>
<path d="M22.8044 14.3883L22.2873 13.8713C22.2796 13.8636 22.2672 13.8636 22.2596 13.8713L21.7425 14.3883C21.7349 14.396 21.7349 14.4084 21.7425 14.416L22.2596 14.9331C22.2672 14.9407 22.2796 14.9407 22.2873 14.9331L22.8044 14.416C22.812 14.4084 22.812 14.396 22.8044 14.3883Z" fill="black"/>
<path d="M23.8919 15.4764L23.3761 14.9606C23.368 14.9524 23.3547 14.9524 23.3465 14.9606L22.8314 15.4757C22.8232 15.4839 22.8232 15.4972 22.8314 15.5054L23.3472 16.0212C23.3553 16.0293 23.3686 16.0293 23.3768 16.0212L23.8919 15.506C23.9001 15.4978 23.9001 15.4846 23.8919 15.4764Z" fill="black"/>
<path d="M16.3456 16.1763C16.2985 16.89 16.2733 17.6081 16.2827 18.3235C16.2827 18.3239 16.2825 18.3243 16.2822 18.3246C16.2819 18.3249 16.2815 18.325 16.2811 18.325C16.1864 18.3262 16.0918 18.3304 15.9973 18.3376C15.996 18.3377 15.9953 18.3371 15.9952 18.3358C15.9842 18.1944 15.9456 18.053 15.8996 17.9193C15.8475 17.7681 15.7876 17.6187 15.7157 17.4758C15.6323 17.3102 15.561 17.1377 15.5136 16.9583C15.4892 16.8657 15.473 16.7672 15.4766 16.6714C15.4841 16.4708 15.5454 16.2878 15.6604 16.1224C15.7528 15.9895 15.8662 15.878 16.0005 15.7877C16.0384 15.7622 16.0656 15.743 16.082 15.73C16.1748 15.657 16.2626 15.5777 16.3454 15.4921C16.3456 15.4918 16.346 15.4916 16.3463 15.4914C16.3467 15.4913 16.3471 15.4912 16.3475 15.4912C16.3479 15.4912 16.3483 15.4913 16.3486 15.4914C16.349 15.4916 16.3493 15.4918 16.3496 15.4921C16.4373 15.5825 16.5309 15.6663 16.6305 15.7435C16.6419 15.7523 16.6616 15.7659 16.6898 15.7843C16.8245 15.8725 16.9426 15.9927 17.0324 16.1229C17.1395 16.2782 17.2006 16.4491 17.2157 16.6357C17.2217 16.7099 17.214 16.7864 17.2 16.8585C17.1593 17.0686 17.0792 17.2746 16.9834 17.467C16.9639 17.5062 16.9487 17.5381 16.9378 17.5627C16.8303 17.8061 16.722 18.0674 16.6996 18.3352C16.6995 18.3368 16.6986 18.3375 16.697 18.3374C16.6031 18.3303 16.5091 18.3262 16.415 18.3251C16.4132 18.3251 16.4123 18.3242 16.4123 18.3224C16.4122 18.2884 16.4135 18.2471 16.4136 18.2205C16.4161 17.5387 16.3946 16.8575 16.349 16.1771C16.3489 16.1762 16.3485 16.1757 16.3476 16.1757H16.3462C16.3458 16.1757 16.3456 16.1759 16.3456 16.1763Z" fill="black"/>
<path d="M14.8387 18.0155C14.7307 18.1245 14.7043 18.2911 14.7264 18.4369C14.7266 18.4385 14.7259 18.4393 14.7243 18.4394C14.3601 18.4546 14.0758 18.2275 14.0078 17.8706C13.9164 17.391 14.2636 16.9039 14.7701 16.9058C14.8931 16.9062 15.0124 16.933 15.128 16.986C15.6292 17.216 15.8418 17.8493 15.9112 18.3444C15.9113 18.3447 15.9112 18.345 15.9112 18.3453C15.9111 18.3456 15.9109 18.3458 15.9108 18.346C15.9106 18.3463 15.9104 18.3464 15.9101 18.3466C15.9099 18.3467 15.9096 18.3468 15.9093 18.3468C15.7863 18.3586 15.6643 18.3772 15.5434 18.4026C15.5416 18.403 15.5405 18.4023 15.54 18.4006C15.4688 18.1474 15.2665 17.8323 14.9494 17.9473C14.9045 17.9636 14.8677 17.9863 14.8387 18.0155ZM14.6448 17.5069C14.6444 17.5067 14.644 17.5063 14.6438 17.5058C14.6435 17.5054 14.6435 17.5049 14.6435 17.5043L14.6775 17.3068C14.6776 17.3063 14.6775 17.3058 14.6773 17.3053C14.6771 17.3048 14.6767 17.3044 14.6762 17.3042C14.6758 17.3039 14.6752 17.3039 14.6747 17.3039C14.6742 17.304 14.6737 17.3043 14.6734 17.3046L14.5311 17.4458C14.5307 17.4461 14.5302 17.4464 14.5297 17.4465C14.5292 17.4465 14.5287 17.4464 14.5282 17.4462L14.3508 17.3529C14.3504 17.3526 14.3499 17.3526 14.3494 17.3526C14.3489 17.3527 14.3484 17.353 14.348 17.3533C14.3477 17.3537 14.3474 17.3541 14.3473 17.3546C14.3473 17.3551 14.3473 17.3557 14.3475 17.3561L14.4377 17.5351C14.438 17.5355 14.4381 17.5361 14.438 17.5366C14.4379 17.5371 14.4376 17.5376 14.4373 17.5379L14.2937 17.6778C14.2933 17.6782 14.2931 17.6786 14.293 17.6791C14.2929 17.6796 14.293 17.6801 14.2932 17.6806C14.2935 17.6811 14.2938 17.6814 14.2943 17.6817C14.2947 17.6819 14.2953 17.682 14.2958 17.6819L14.4939 17.6514C14.4944 17.6513 14.4949 17.6514 14.4954 17.6517C14.4958 17.6519 14.4962 17.6523 14.4964 17.6528L14.585 17.8325C14.5852 17.833 14.5856 17.8334 14.5861 17.8336C14.5865 17.8339 14.5871 17.834 14.5876 17.8339C14.5881 17.8338 14.5886 17.8336 14.5889 17.8332C14.5893 17.8329 14.5896 17.8324 14.5896 17.8319L14.6218 17.634C14.6219 17.6335 14.6222 17.633 14.6225 17.6327C14.6229 17.6323 14.6234 17.6321 14.6239 17.632L14.8222 17.6032C14.8227 17.6032 14.8232 17.6029 14.8236 17.6026C14.8239 17.6022 14.8242 17.6018 14.8243 17.6013C14.8244 17.6007 14.8243 17.6002 14.8241 17.5998C14.8238 17.5993 14.8235 17.5989 14.823 17.5987L14.6448 17.5069Z" fill="black"/>
<path d="M16.9776 17.6706C17.1433 17.2822 17.4443 16.9484 17.8923 16.918C18.276 16.8921 18.6444 17.2054 18.6985 17.5848C18.7334 17.8303 18.6734 18.0894 18.4891 18.2621C18.3525 18.3901 18.1644 18.4478 17.9798 18.4513C17.9778 18.4513 17.9769 18.4504 17.9772 18.4484C17.9944 18.292 17.9701 18.0739 17.8189 17.9815C17.7309 17.9277 17.6377 17.914 17.5394 17.9405C17.3396 17.9944 17.1888 18.2063 17.1613 18.4044C17.161 18.4064 17.1598 18.4072 17.1578 18.4068C17.0377 18.3809 16.9165 18.362 16.7942 18.3503C16.7929 18.3502 16.7923 18.3495 16.7925 18.3482C16.8268 18.1157 16.8855 17.8866 16.9776 17.6706ZM18.0758 17.6536L18.1643 17.8305C18.166 17.8339 18.1671 17.8337 18.1678 17.8299L18.2013 17.6343C18.2015 17.6329 18.2023 17.6321 18.2037 17.6319L18.3987 17.602C18.4031 17.6013 18.4033 17.5999 18.3994 17.5979L18.2243 17.5059C18.2229 17.5052 18.2223 17.5041 18.2226 17.5025L18.2544 17.3062C18.2551 17.302 18.254 17.3014 18.2509 17.3044L18.1096 17.444C18.1084 17.4452 18.1071 17.4454 18.1056 17.4446L17.928 17.3514C17.9259 17.3502 17.9254 17.3508 17.9265 17.3529L18.0165 17.5329C18.0167 17.5333 18.0168 17.5338 18.0167 17.5343C18.0166 17.5348 18.0164 17.5353 18.016 17.5356L17.8724 17.6776C17.8704 17.6795 17.8708 17.6802 17.8735 17.6798L18.0715 17.6514C18.0735 17.6511 18.075 17.6518 18.0758 17.6536Z" fill="black"/>
<path d="M15.4536 18.7019C15.4067 18.6851 15.348 18.6388 15.3855 18.5819C15.4025 18.5561 15.4413 18.5385 15.4705 18.5291C15.5636 18.4989 15.6628 18.4843 15.7599 18.4737C16.0939 18.4374 16.4349 18.4354 16.77 18.4586C16.8453 18.4638 16.9205 18.4713 16.9954 18.4813C17.0709 18.4913 17.1469 18.5042 17.2196 18.5276C17.2528 18.5383 17.2972 18.5572 17.313 18.5903C17.3554 18.6794 17.2047 18.7164 17.1508 18.728C17.0649 18.7466 16.9813 18.7597 16.9 18.7674C16.5438 18.8007 16.1848 18.8016 15.8229 18.77C15.7901 18.7671 15.7423 18.7614 15.6797 18.7528C15.6023 18.7422 15.5252 18.7276 15.4536 18.7019ZM15.4761 18.6153C15.4707 18.6174 15.4707 18.6194 15.4761 18.6214C15.4965 18.6292 15.5185 18.6358 15.542 18.6414C15.6285 18.6619 15.7161 18.6765 15.8047 18.6851C16.0835 18.7121 16.367 18.7158 16.6466 18.7029C16.7642 18.6974 16.8814 18.6868 16.9981 18.6711C17.0712 18.6612 17.1495 18.6486 17.2181 18.621C17.2227 18.6191 17.2227 18.6173 17.2181 18.6156C17.1867 18.6035 17.155 18.5938 17.1205 18.5869C17.0265 18.5679 16.9296 18.5544 16.8297 18.5464C16.4924 18.5195 16.1573 18.521 15.8244 18.5509C15.7084 18.5613 15.586 18.5751 15.4761 18.6153Z" fill="black"/>
<path d="M17.2861 19.5396C17.1282 19.5278 17.0185 19.4264 16.9461 19.2933C16.8767 19.1657 16.8338 19.0228 16.8043 18.8812C16.8039 18.8794 16.8046 18.8784 16.8064 18.8782C16.9109 18.8681 17.0147 18.853 17.1179 18.8331C17.1197 18.8327 17.1209 18.8335 17.1215 18.8353C17.1881 19.0787 17.4146 19.2417 17.6687 19.1536C17.6849 19.148 17.7009 19.1419 17.7168 19.1352C17.7188 19.1343 17.7196 19.135 17.7192 19.1371C17.6798 19.3545 17.5324 19.558 17.2861 19.5396Z" fill="black"/>
<path d="M15.4183 19.5418C15.1731 19.5494 15.0361 19.3567 15.001 19.1364C15.0007 19.1343 15.0015 19.1338 15.0033 19.1346C15.0116 19.1384 15.0199 19.1421 15.0281 19.1458C15.2837 19.2604 15.5327 19.0853 15.5992 18.8364C15.5993 18.8359 15.5996 18.8355 15.6 18.8353C15.6005 18.835 15.601 18.8349 15.6015 18.835C15.7048 18.8558 15.809 18.8708 15.9141 18.8802C15.9156 18.8803 15.9162 18.8811 15.9159 18.8826C15.8851 19.0288 15.8418 19.1781 15.7692 19.3082C15.6939 19.4434 15.5808 19.5368 15.4183 19.5418Z" fill="black"/>
<path d="M16.3504 19.6635C16.3517 19.6703 16.3529 19.6703 16.3541 19.6635C16.3982 19.4191 16.411 19.1658 16.4115 18.9177C16.4115 18.917 16.4118 18.9162 16.4123 18.9157C16.4128 18.9151 16.4136 18.9148 16.4143 18.9148C16.5157 18.9138 16.6169 18.9091 16.7179 18.9008C16.7196 18.9006 16.7207 18.9014 16.721 18.9032C16.7626 19.1461 16.8555 19.3671 16.9998 19.5663C17.0008 19.5678 17.0009 19.5694 17.0001 19.571C16.8651 19.8358 16.6255 20.0526 16.356 20.1741C16.3547 20.1747 16.3533 20.175 16.3519 20.175C16.3504 20.1751 16.349 20.1748 16.3477 20.1743C16.3233 20.1644 16.2988 20.1531 16.2743 20.1402C16.0372 20.0162 15.8226 19.8137 15.7046 19.5712C15.7038 19.5696 15.704 19.5681 15.705 19.5667C15.8511 19.3755 15.9462 19.1399 15.9832 18.9016C15.9832 18.9012 15.9834 18.9009 15.9837 18.9007C15.984 18.9005 15.9843 18.9004 15.9847 18.9004C16.0865 18.9088 16.1885 18.9136 16.2906 18.915C16.2912 18.915 16.2918 18.9153 16.2922 18.9157C16.2926 18.9161 16.2929 18.9167 16.2929 18.9173C16.2939 19.1519 16.3073 19.4182 16.3504 19.6635Z" fill="black"/>
</svg>
