<svg width="34" height="34" viewBox="0 0 34 34" fill="none" xmlns="http://www.w3.org/2000/svg">
<circle cx="16.9536" cy="16.8115" r="16.6689" fill="white"/>
<path d="M16.9537 31.2006C24.9006 31.2006 31.3428 24.7584 31.3428 16.8115C31.3428 12.668 29.5915 8.93362 26.7886 6.30811L6.44092 26.6364C9.06691 29.4451 12.8053 31.2006 16.9537 31.2006Z" fill="#2C7B4E"/>
<path d="M16.9536 2.42236C9.00667 2.42236 2.56445 8.86458 2.56445 16.8115C2.56445 20.6053 4.03269 24.0562 6.43193 26.6269L26.7864 6.30612C24.2139 3.89724 20.7559 2.42236 16.9536 2.42236Z" fill="#E8B732"/>
<mask id="mask0_973_6020" style="mask-type:alpha" maskUnits="userSpaceOnUse" x="7" y="6" width="25" height="25">
<path d="M17.777 30.27C25.2692 30.27 31.3428 24.1964 31.3428 16.7042C31.3428 12.7978 29.6917 9.27704 27.0492 6.80176L7.86572 25.967C10.3415 28.6149 13.866 30.27 17.777 30.27Z" fill="#2C7B4E"/>
</mask>
<g mask="url(#mask0_973_6020)">
<path d="M22.7885 12.0732C22.7692 12.2047 22.711 12.2959 22.6139 12.3469C22.5632 12.3738 22.4662 12.3883 22.3229 12.3904C21.3923 12.4052 20.5127 12.6555 19.6841 13.1412C19.4714 13.2481 19.2431 13.3922 18.9991 13.5734C18.54 13.9143 18.1238 14.2293 17.7503 14.5183C17.4518 14.7496 17.2295 14.8936 17.0835 14.9501C16.2092 15.2895 15.4864 14.7991 14.9049 14.198C14.6973 13.983 14.475 13.7494 14.2381 13.497C13.9929 13.2349 13.7979 12.9688 13.5784 12.6996C13.462 12.5574 13.247 12.3584 13.0426 12.4548C12.9658 12.4908 12.96 12.6419 12.9596 12.7143C12.9591 13.1416 12.992 13.6445 12.8596 14.0408C12.5757 14.892 11.466 14.8671 10.8001 15.2251C10.1555 15.5712 10.0498 16.2682 10.0622 16.9448C10.076 17.6734 9.61263 18.1345 8.9005 18.2322C8.65262 18.2663 8.40606 18.3048 8.16084 18.3477C7.95871 18.3828 7.91295 18.5623 7.90673 18.7351C7.89222 19.1231 7.88881 19.5513 7.89651 20.0199C7.89681 20.0373 7.90569 20.0461 7.92317 20.0461H11.267C11.288 20.0461 11.2934 20.0369 11.283 20.0185C11.008 19.5276 10.8858 18.9723 10.9032 18.3842C10.9134 18.0403 11.0582 17.7906 11.4327 17.7849C12.2658 17.7718 12.9875 18.0461 13.5979 18.6076C13.5995 18.6091 13.6014 18.6102 13.6035 18.6108C13.6055 18.6114 13.6077 18.6115 13.6098 18.6111C13.6119 18.6107 13.6139 18.6098 13.6157 18.6085C13.6174 18.6072 13.6188 18.6055 13.6197 18.6036C13.968 17.9059 14.5109 17.3911 15.2483 17.0594C15.6535 16.8773 16.1048 16.7165 16.3256 17.2633C16.4219 17.502 16.4888 17.7449 16.5264 17.9919C16.5291 18.0094 16.5391 18.0169 16.5566 18.0145C16.7675 17.9894 16.9868 17.9978 17.2145 18.0399C17.2213 18.0411 17.2283 18.0403 17.2346 18.0377C17.241 18.0351 17.2465 18.0308 17.2505 18.0252C17.6323 17.4871 18.1474 17.1416 18.796 16.9888C18.8016 16.9875 18.8067 16.9844 18.8105 16.9801C18.8143 16.9759 18.8167 16.9705 18.8174 16.9648C18.8987 16.1798 19.314 15.4948 20.0053 15.1341C21.5113 14.3486 23.3224 15.2225 23.4997 16.9555C23.5015 16.9726 23.5108 16.9833 23.5277 16.9875C24.3016 17.1767 24.8715 17.6165 25.2376 18.3069C25.245 18.3208 25.2555 18.3237 25.2691 18.3157C25.5321 18.1573 25.8244 18.0565 26.1461 18.0132C26.4381 17.9794 26.7344 18.0098 27.035 18.1043C27.128 18.1336 27.2213 18.1647 27.3149 18.1976C27.3309 18.2029 27.3387 18.1971 27.3384 18.1802C27.3211 15.8449 26.2291 13.4899 23.9093 12.6614C23.8293 12.633 23.7673 12.5933 23.7232 12.5423C23.6527 12.4612 23.6312 12.3561 23.6587 12.2269C23.715 12.1005 23.799 12.0267 23.9106 12.0057C23.9867 11.9912 24.0833 12.0067 24.2003 12.0523C25.1394 12.4166 25.9315 12.9995 26.5512 13.7791C26.5625 13.793 26.5771 13.8 26.5952 13.8C26.6911 13.8 26.8185 13.7842 26.9772 13.7525C27.0012 13.7477 27.0061 13.7356 26.9919 13.716C26.7102 13.3287 26.5459 12.7831 26.7502 12.3433C26.9222 11.9737 27.2838 11.8147 27.6756 11.804C28.1637 11.791 28.481 12.0021 28.6276 12.4375C28.7866 12.9093 28.5601 13.4659 28.2189 13.8187C28.2076 13.8305 28.2096 13.8391 28.2247 13.8444C28.4104 13.9096 28.6039 13.9414 28.8053 13.9399C28.9877 13.9385 29.1025 14.0346 29.1496 14.2282V14.3295C29.101 14.5061 28.9975 14.5982 28.8391 14.6059C28.4194 14.6263 28.0024 14.5167 27.5881 14.2771C27.5703 14.2668 27.5519 14.2656 27.533 14.2736C27.3784 14.3384 27.2134 14.3864 27.0381 14.4175C27.0177 14.4211 27.0126 14.4317 27.023 14.4495C27.6559 15.5524 27.9829 16.7638 28.0039 18.0838C28.0074 18.298 28.0092 18.5047 28.0092 18.704C28.0092 18.7194 28.0143 18.733 28.0243 18.7449C28.3377 19.1106 28.5115 19.5353 28.5459 20.019C28.547 20.0356 28.5558 20.045 28.5721 20.0474C28.9023 20.0954 29.0948 20.2846 29.1496 20.6151V21.7169C29.0699 22.3421 28.7597 22.7786 28.2189 23.0265C27.9635 23.1438 27.6942 23.1727 27.4162 23.1629C27.3963 23.1623 27.387 23.1718 27.3882 23.1913C27.3976 23.3957 27.3948 23.587 27.3797 23.7653C27.3295 24.3584 26.8124 24.7955 26.2225 24.7955C20.5874 24.7961 14.9604 24.7962 9.34164 24.7959C8.79744 24.7959 8.33987 24.4543 8.20082 23.9288C8.13996 23.7 8.16528 23.425 8.16306 23.182C8.163 23.1795 8.16245 23.177 8.16144 23.1747C8.16042 23.1724 8.15897 23.1703 8.15715 23.1686C8.15534 23.1669 8.1532 23.1655 8.15086 23.1646C8.14852 23.1637 8.14602 23.1633 8.14351 23.1633C7.90451 23.1704 7.65795 23.1536 7.43317 23.0665C6.8361 22.8355 6.49315 22.3868 6.4043 21.7204V20.6023C6.44961 20.3502 6.58199 20.1798 6.80145 20.0909C6.92895 20.0394 7.06578 20.0452 7.20171 20.0492C7.20514 20.0492 7.20854 20.0486 7.21171 20.0474C7.21489 20.0461 7.21779 20.0443 7.22022 20.0419C7.22266 20.0396 7.2246 20.0368 7.22592 20.0337C7.22725 20.0306 7.22793 20.0272 7.22793 20.0239C7.2297 19.5268 7.19505 18.9706 7.27679 18.4841C7.36431 17.9666 7.71171 17.7382 8.19105 17.6663C8.43153 17.6301 8.66594 17.5933 8.89428 17.5556C9.24168 17.4988 9.40383 17.2811 9.39717 16.9417C9.38251 16.21 9.51845 15.4188 10.0849 14.9195C10.5606 14.5006 11.1781 14.3677 11.7672 14.1825C12.1693 14.0563 12.2799 13.8475 12.287 13.4308C12.2905 13.2229 12.2919 13.0132 12.291 12.8018C12.2888 12.3509 12.4109 11.9293 12.8978 11.8018C13.7725 11.5721 14.1652 12.4348 14.6428 12.9502C14.8993 13.2271 15.1529 13.4954 15.4038 13.7551C15.8303 14.1967 16.3909 14.6316 17.0093 14.2407C17.1723 14.1376 17.3034 14.0115 17.4531 13.8986C17.8191 13.6232 18.1882 13.3466 18.5601 13.0688C19.6796 12.2327 20.9857 11.7307 22.382 11.7232C22.4933 11.7226 22.5804 11.7439 22.6432 11.7871C22.7317 11.8484 22.7802 11.9438 22.7885 12.0732ZM27.3282 12.7263C27.3113 12.9906 27.4441 13.2434 27.6169 13.4402C27.6202 13.4438 27.6247 13.4461 27.6296 13.4465C27.6345 13.4469 27.6393 13.4454 27.6432 13.4424C27.8366 13.2866 27.9559 13.0945 28.0012 12.8662C28.0265 12.7378 28.0074 12.5148 27.8453 12.4815C27.7644 12.4646 27.6689 12.4659 27.5588 12.4855C27.4136 12.5109 27.3368 12.5912 27.3282 12.7263ZM20.8542 15.5374C20.1233 15.6775 19.6721 16.1195 19.5006 16.8635C19.4442 17.1087 19.5557 17.5561 19.1688 17.6014C18.6588 17.6612 18.2367 17.8826 17.9027 18.2655C17.8911 18.2789 17.8926 18.2901 17.9071 18.2993C18.5439 18.7065 18.8942 19.2806 18.9582 20.0216C18.9597 20.0388 18.9691 20.0474 18.9866 20.0474H20.8014C20.8185 20.0474 20.8271 20.0388 20.8271 20.0216L20.8285 19.6152C20.8285 19.6027 20.823 19.5934 20.812 19.5872C20.4694 19.3926 20.1267 19.1976 19.784 19.0021C19.5824 18.8872 19.5199 18.7375 19.5966 18.553C19.6872 18.3353 19.92 18.3046 20.1141 18.4192C20.3386 18.5522 20.5704 18.6851 20.8094 18.8177C20.811 18.8188 20.813 18.8193 20.8149 18.8193C20.8169 18.8193 20.8189 18.8187 20.8206 18.8177C20.8223 18.8166 20.8237 18.8151 20.8247 18.8134C20.8257 18.8116 20.8262 18.8096 20.8262 18.8075C20.8295 18.5546 20.8293 18.2953 20.8258 18.0296C20.8218 17.7382 21.1074 17.5348 21.3589 17.72C21.485 17.8133 21.4975 17.9466 21.4962 18.0918C21.4938 18.3427 21.4929 18.5783 21.4935 18.7986C21.4935 18.8167 21.5013 18.8213 21.517 18.8124L22.2349 18.405C22.3688 18.3268 22.4939 18.3288 22.6103 18.4108C22.8013 18.5459 22.7996 18.8524 22.5868 18.9719C22.4541 19.0462 22.3318 19.1167 22.2198 19.1833L21.5144 19.5881C21.5007 19.5958 21.4939 19.6075 21.4939 19.6232L21.4944 20.0234C21.4944 20.0385 21.5018 20.0461 21.5166 20.0461L22.0786 20.0465L24.2194 20.0461C24.2365 20.0461 24.2457 20.0376 24.2469 20.0207C24.2777 19.5706 24.4307 19.1714 24.7058 18.8231C24.7168 18.8091 24.7196 18.7936 24.7143 18.7764C24.7018 18.7373 24.6867 18.6999 24.6689 18.664C24.3642 18.0486 23.853 17.6928 23.1354 17.5965C22.9311 17.569 22.8458 17.3953 22.8471 17.1994C22.8547 16.099 21.9115 15.3637 20.8542 15.5374ZM15.7094 17.5947C14.6521 17.9843 13.9551 18.9053 13.9578 20.0341C13.9578 20.0357 13.9581 20.0373 13.9587 20.0388C13.9593 20.0403 13.9602 20.0417 13.9613 20.0429C13.9624 20.044 13.9637 20.0449 13.9652 20.0456C13.9666 20.0462 13.9682 20.0465 13.9698 20.0465L15.3762 20.0456C15.3931 20.0456 15.4065 20.0387 15.4162 20.0247C15.9233 19.2938 16.0336 18.4899 15.7472 17.6129C15.741 17.5937 15.7284 17.5876 15.7094 17.5947ZM11.6033 18.9408C11.6729 19.3519 11.835 19.7135 12.0897 20.0256C12.1007 20.0393 12.1151 20.0461 12.1328 20.0461H13.2603C13.2781 20.0461 13.2874 20.0372 13.2883 20.0194L13.307 19.6662L13.3567 19.3575C13.3594 19.3415 13.3555 19.3273 13.3452 19.3148C12.89 18.7761 12.3062 18.4883 11.594 18.4512C11.578 18.4506 11.5706 18.4583 11.5717 18.4743L11.6033 18.9408ZM16.1999 20.0296C16.1943 20.0409 16.1978 20.0465 16.2105 20.0465L18.2634 20.0456C18.2788 20.0456 18.286 20.0379 18.2852 20.0225C18.251 19.4512 17.8525 18.9741 17.3416 18.7675C17.1094 18.6739 16.8581 18.6458 16.5877 18.6831C16.5714 18.6855 16.563 18.695 16.5624 18.7116C16.5488 19.1312 16.4279 19.5706 16.1999 20.0296ZM26.0514 18.708C25.4486 18.8626 24.9559 19.3757 24.9173 20.0203C24.9161 20.0378 24.9242 20.0465 24.9417 20.0465L27.8475 20.0456C27.8715 20.0456 27.882 20.0338 27.8791 20.0101C27.8183 19.5419 27.6005 19.1788 27.2256 18.9208C26.8888 18.6894 26.4401 18.6085 26.0514 18.708ZM17.4118 22.8115C17.3916 23.0449 17.2653 23.1616 17.0328 23.1616C14.3028 23.1639 11.5741 23.165 8.84675 23.1647C8.83253 23.1647 8.82587 23.1716 8.82676 23.1855C8.83698 23.3619 8.80366 23.6049 8.84631 23.7542C8.91739 24.0041 9.08812 24.1291 9.35852 24.1291C14.4013 24.1297 19.4437 24.1297 24.4859 24.1291C25.0634 24.1303 25.6407 24.1303 26.2176 24.1291C26.5574 24.1282 26.736 23.8786 26.7262 23.5525C26.7224 23.4293 26.7227 23.3105 26.7271 23.1962C26.728 23.1755 26.7179 23.1651 26.6969 23.1651L24.6121 23.1638C22.6521 23.1659 20.7032 23.1656 18.7654 23.1629C18.6117 23.1626 18.507 23.1481 18.4513 23.1194C18.3444 23.0643 18.2871 22.9611 18.2794 22.8097C18.3143 22.6018 18.4393 22.498 18.6543 22.4983C21.1 22.4986 23.549 22.4987 26.0012 22.4987C26.5142 22.4987 27.0305 22.4998 27.5503 22.5019C27.7911 22.5024 28.0003 22.4262 28.178 22.2731C28.4273 22.0581 28.493 21.7817 28.4859 21.4517C28.4806 21.1973 28.4806 20.9611 28.4859 20.7431C28.4865 20.7241 28.4773 20.7147 28.4583 20.7147L26.4064 20.7129L7.08488 20.7142C7.07599 20.7142 7.07155 20.7185 7.07155 20.7271C7.06948 21.0132 7.06963 21.3025 7.072 21.5952C7.07644 22.1225 7.47848 22.4974 7.99558 22.4974C11.0046 22.4989 14.0292 22.499 17.0693 22.4979C17.2541 22.4979 17.3842 22.6271 17.4118 22.8115Z" fill="black"/>
<path d="M22.7875 12.0737C23.0798 12.0965 23.3699 12.1478 23.6578 12.2274C23.6302 12.3566 23.6517 12.4617 23.7222 12.5429C23.7663 12.5938 23.8283 12.6335 23.9083 12.6619C26.2282 13.4904 27.3201 15.8454 27.3374 18.1808C27.3377 18.1976 27.3299 18.2034 27.3139 18.1981C27.2203 18.1652 27.127 18.1341 27.034 18.1048C26.7334 18.0103 26.4371 17.98 26.1451 18.0137C25.9952 16.9028 25.6033 15.9236 24.9692 15.0759C24.3475 14.2455 23.5722 13.6575 22.6431 13.3118C21.7214 12.9692 20.7348 12.9125 19.6831 13.1417C20.5118 12.656 21.3914 12.4057 22.3219 12.3909C22.4653 12.3888 22.5623 12.3743 22.6129 12.3474C22.71 12.2964 22.7682 12.2052 22.7875 12.0737Z" fill="#FBB49E"/>
<path d="M19.6842 13.141C20.7358 12.9117 21.7225 12.9684 22.6441 13.3111C23.5732 13.6567 24.3486 14.2448 24.9702 15.0752C25.6043 15.9228 25.9963 16.9021 26.1461 18.013C25.8245 18.0562 25.5322 18.1571 25.2692 18.3155C25.2556 18.3235 25.2451 18.3206 25.2376 18.3066C24.8716 17.6163 24.3016 17.1765 23.5278 16.9872C23.5109 16.9831 23.5015 16.9724 23.4998 16.9552C23.3225 15.2222 21.5113 14.3484 20.0053 15.1338C19.3141 15.4946 18.8987 16.1796 18.8174 16.9646C18.8168 16.9703 18.8144 16.9756 18.8106 16.9799C18.8067 16.9842 18.8017 16.9872 18.7961 16.9886C18.1475 17.1414 17.6323 17.4869 17.2506 18.025C17.2466 18.0306 17.2411 18.0349 17.2347 18.0375C17.2283 18.0401 17.2214 18.0408 17.2146 18.0396C16.9869 17.9976 16.7675 17.9891 16.5567 18.0143C16.5392 18.0167 16.5291 18.0091 16.5265 17.9917C16.4889 17.7447 16.4219 17.5018 16.3257 17.2631C16.1049 16.7162 15.6535 16.8771 15.2484 17.0592C14.5109 17.3909 13.9681 17.9056 13.6198 18.6034C13.6188 18.6053 13.6174 18.607 13.6157 18.6083C13.614 18.6096 13.612 18.6105 13.6099 18.6109C13.6078 18.6113 13.6056 18.6111 13.6035 18.6105C13.6015 18.6099 13.5996 18.6089 13.598 18.6074C12.9876 18.0459 12.2659 17.7716 11.4328 17.7846C11.0583 17.7904 10.9134 18.0401 10.9032 18.3839C10.8859 18.9721 11.0081 19.5274 11.2831 20.0183C11.2934 20.0367 11.2881 20.0458 11.2671 20.0458H7.92324C7.90576 20.0458 7.89688 20.0371 7.89658 20.0196C7.88888 19.5511 7.89229 19.1229 7.9068 18.7349C7.91302 18.5621 7.95878 18.3826 8.16091 18.3475C8.40613 18.3046 8.65269 18.2661 8.90057 18.232C9.6127 18.1343 10.076 17.6731 10.0623 16.9446C10.0498 16.268 10.1556 15.571 10.8002 15.2249C11.4661 14.8668 12.5758 14.8917 12.8597 14.0406C12.9921 13.6443 12.9592 13.1414 12.9596 12.714C12.9601 12.6416 12.9658 12.4906 13.0427 12.4546C13.2471 12.3582 13.4621 12.5572 13.5785 12.6994C13.7979 12.9686 13.9929 13.2347 14.2382 13.4968C14.4751 13.7491 14.6974 13.9828 14.905 14.1978C15.4865 14.7989 16.2093 15.2893 17.0835 14.9499C17.2296 14.8934 17.4518 14.7494 17.7504 14.5181C18.1238 14.2291 18.5401 13.9141 18.9991 13.5732C19.2432 13.392 19.4715 13.2479 19.6842 13.141ZM11.7647 16.4747C11.765 16.434 11.7573 16.3937 11.742 16.356C11.7267 16.3183 11.7041 16.284 11.6756 16.2551C11.647 16.2261 11.613 16.2031 11.5756 16.1873C11.5381 16.1714 11.4979 16.1631 11.4573 16.1629L11.4164 16.1626C11.3343 16.162 11.2553 16.1941 11.1968 16.2517C11.1383 16.3094 11.1052 16.3879 11.1046 16.47L11.1017 16.8867C11.1014 16.9274 11.1091 16.9677 11.1244 17.0054C11.1397 17.0431 11.1623 17.0774 11.1908 17.1063C11.2194 17.1353 11.2534 17.1583 11.2908 17.1741C11.3283 17.19 11.3685 17.1982 11.4092 17.1985L11.45 17.1988C11.5321 17.1994 11.6111 17.1673 11.6696 17.1097C11.7281 17.052 11.7612 16.9735 11.7618 16.8913L11.7647 16.4747Z" fill="#FBC7B8"/>
<path d="M22.0783 20.0462C22.1536 19.7639 22.2007 19.4762 22.2196 19.183C22.3316 19.1164 22.4539 19.0459 22.5866 18.9716C22.7993 18.8521 22.8011 18.5455 22.6101 18.4105C22.4937 18.3284 22.3686 18.3265 22.2347 18.4047C22.2054 17.847 22.0751 17.3054 21.8438 16.7797C21.6246 16.2818 21.2947 15.8676 20.854 15.5371C21.9113 15.3634 22.8544 16.0986 22.8469 17.199C22.8456 17.3949 22.9308 17.5686 23.1352 17.5962C23.8528 17.6924 24.364 18.0483 24.6687 18.6637C24.6865 18.6995 24.7016 18.737 24.714 18.7761C24.7194 18.7933 24.7166 18.8088 24.7056 18.8227C24.4305 19.171 24.2775 19.5703 24.2467 20.0204C24.2455 20.0373 24.2363 20.0457 24.2192 20.0457L22.0783 20.0462Z" fill="#7FDBAE"/>
<path d="M20.8538 15.5376C21.2945 15.8681 21.6244 16.2823 21.8435 16.7801C22.0748 17.3058 22.2052 17.8475 22.2345 18.4052L21.5166 18.8126C21.5009 18.8215 21.493 18.8169 21.493 18.7988C21.4924 18.5785 21.4933 18.3429 21.4957 18.092C21.497 17.9467 21.4846 17.8135 21.3584 17.7202C21.107 17.5349 20.8213 17.7384 20.8253 18.0298C20.8289 18.2955 20.829 18.5548 20.8258 18.8077C20.8258 18.8097 20.8253 18.8117 20.8243 18.8135C20.8233 18.8153 20.8218 18.8168 20.8201 18.8178C20.8184 18.8189 20.8165 18.8194 20.8145 18.8194C20.8125 18.8194 20.8106 18.8189 20.8089 18.8179C20.5699 18.6852 20.3381 18.5524 20.1137 18.4194C19.9195 18.3048 19.6867 18.3354 19.5961 18.5531C19.5194 18.7376 19.5819 18.8873 19.7836 19.0023C20.1262 19.1977 20.4689 19.3928 20.8116 19.5873C20.8225 19.5935 20.828 19.6029 20.828 19.6153L20.8267 20.0218C20.8267 20.039 20.8181 20.0476 20.8009 20.0476H18.9862C18.9687 20.0476 18.9592 20.039 18.9577 20.0218C18.8938 19.2808 18.5434 18.7067 17.9067 18.2995C17.8921 18.2903 17.8907 18.279 17.9022 18.2657C18.2363 17.8828 18.6583 17.6614 19.1683 17.6016C19.5552 17.5562 19.4437 17.1089 19.5002 16.8637C19.6716 16.1197 20.1228 15.6777 20.8538 15.5376Z" fill="#A7E9A6"/>
<path d="M11.4569 16.1636L11.4161 16.1633C11.2451 16.1621 11.1055 16.2998 11.1043 16.4708L11.1014 16.8875C11.1002 17.0585 11.2378 17.1981 11.4088 17.1992L11.4497 17.1995C11.6207 17.2007 11.7603 17.0631 11.7615 16.8921L11.7644 16.4754C11.7656 16.3044 11.6279 16.1648 11.4569 16.1636Z" fill="black"/>
<path d="M13.9575 20.0345C13.9549 18.9057 14.6519 17.9848 15.7092 17.5952C15.7281 17.5881 15.7407 17.5941 15.7469 17.6134C16.0333 18.4903 15.923 19.2942 15.416 20.0252C15.4062 20.0391 15.3929 20.0461 15.376 20.0461L13.9695 20.0469C13.9679 20.0469 13.9664 20.0466 13.9649 20.046C13.9635 20.0454 13.9622 20.0445 13.961 20.0433C13.9599 20.0421 13.959 20.0408 13.9584 20.0393C13.9578 20.0378 13.9575 20.0361 13.9575 20.0345Z" fill="#4FC9AF"/>
<path d="M13.3061 19.6662C12.8184 19.2232 12.2505 18.9813 11.6025 18.9408L11.5709 18.4743C11.5697 18.4583 11.5771 18.4506 11.5931 18.4512C12.3054 18.4882 12.8891 18.7761 13.3443 19.3148C13.3547 19.3273 13.3586 19.3415 13.3559 19.3575L13.3061 19.6662Z" fill="#7FDBAE"/>
<path d="M16.1994 20.0299C16.4274 19.5709 16.5482 19.1315 16.5619 18.7119C16.5625 18.6953 16.5709 18.6858 16.5872 18.6834C16.8576 18.6461 17.1089 18.6743 17.3411 18.7678C17.852 18.9744 18.2504 19.4515 18.2846 20.0228C18.2855 20.0382 18.2783 20.0459 18.2629 20.0459L16.21 20.0468C16.1973 20.0468 16.1937 20.0412 16.1994 20.0299Z" fill="#F37C7C"/>
<path d="M24.9166 20.0201C24.9553 19.3755 25.4479 18.8624 26.0508 18.7078C26.4395 18.6083 26.8882 18.6892 27.2249 18.9206C27.5998 19.1786 27.8177 19.5417 27.8784 20.0099C27.8814 20.0336 27.8708 20.0455 27.8468 20.0455L24.941 20.0463C24.9236 20.0463 24.9154 20.0376 24.9166 20.0201Z" fill="#F37C7C"/>
<path d="M13.3067 19.6664L13.288 20.0195C13.2872 20.0373 13.2778 20.0462 13.2601 20.0462H12.1326C12.1148 20.0462 12.1004 20.0394 12.0895 20.0258C11.8348 19.7136 11.6726 19.352 11.603 18.9409C12.251 18.9815 12.8189 19.2233 13.3067 19.6664Z" fill="#A7E9A6"/>
<path d="M22.2191 19.1836C22.2001 19.4768 22.153 19.7645 22.0778 20.0468L21.5158 20.0463C21.501 20.0463 21.4936 20.0388 21.4936 20.0237L21.4932 19.6234C21.4932 19.6077 21.5 19.596 21.5136 19.5883L22.2191 19.1836Z" fill="#A7E9A6"/>
<path d="M26.4061 20.7139C26.3963 20.9721 26.392 21.2286 26.3932 21.4833C26.395 21.8129 26.3532 22.0284 26.188 22.2843C26.1317 22.3719 26.0694 22.4438 26.001 22.4997C23.5487 22.4997 21.0998 22.4996 18.654 22.4993C18.439 22.499 18.3141 22.6028 18.2791 22.8107L17.4115 22.8125C17.384 22.6281 17.2538 22.4988 17.069 22.4988C14.0289 22.5 11.0043 22.4999 7.9953 22.4984C7.4782 22.4984 7.07616 22.1235 7.07172 21.5961C7.06935 21.3035 7.0692 21.0142 7.07128 20.7281C7.07128 20.7195 7.07572 20.7152 7.0846 20.7152L26.4061 20.7139Z" fill="#F9F7F8"/>
<path d="M26.4056 20.7139L28.4576 20.7156C28.4766 20.7156 28.4857 20.7251 28.4851 20.7441C28.4798 20.9621 28.4798 21.1982 28.4851 21.4526C28.4923 21.7827 28.4265 22.059 28.1773 22.2741C27.9996 22.4272 27.7903 22.5034 27.5496 22.5028C27.0298 22.5008 26.5134 22.4997 26.0005 22.4997C26.0689 22.4438 26.1312 22.3719 26.1875 22.2843C26.3528 22.0284 26.3945 21.8129 26.3928 21.4833C26.3916 21.2286 26.3959 20.9721 26.4056 20.7139Z" fill="#E5E4ED"/>
<path d="M17.4116 22.8118L18.2792 22.8101C18.2869 22.9614 18.3442 23.0646 18.4511 23.1197C18.5068 23.1484 18.6115 23.1629 18.7652 23.1632C20.703 23.1659 22.6519 23.1662 24.6119 23.1641C24.643 23.324 24.6516 23.4955 24.6377 23.6786C24.6255 23.8391 24.5749 23.9894 24.4857 24.1295C19.4436 24.1301 14.4011 24.1301 9.35833 24.1295C9.08794 24.1295 8.9172 24.0045 8.84612 23.7545C8.80347 23.6053 8.83679 23.3623 8.82657 23.1859C8.82568 23.172 8.83235 23.165 8.84656 23.165C11.5739 23.1653 14.3026 23.1643 17.0326 23.1619C17.2651 23.1619 17.3914 23.0452 17.4116 22.8118Z" fill="#BED8FB"/>
<path d="M24.4849 24.1289C24.574 23.9888 24.6247 23.8385 24.6368 23.678C24.6507 23.495 24.6421 23.3235 24.611 23.1636L26.6959 23.1649C26.7169 23.1649 26.727 23.1753 26.7261 23.196C26.7216 23.3103 26.7213 23.4291 26.7252 23.5523C26.735 23.8784 26.5564 24.128 26.2165 24.1289C25.6396 24.1301 25.0624 24.1301 24.4849 24.1289Z" fill="#8EAADF"/>
</g>
<mask id="mask1_973_6020" style="mask-type:alpha" maskUnits="userSpaceOnUse" x="3" y="3" width="24" height="24">
<path d="M17.1912 3.52002C9.71148 3.52002 3.64795 9.58355 3.64795 17.0633C3.64795 20.6341 5.02988 23.8821 7.28809 26.3018L26.4461 7.17548C24.0247 4.9082 20.7701 3.52002 17.1912 3.52002Z" fill="#232323"/>
</mask>
<g mask="url(#mask1_973_6020)">
<path d="M19.1595 9.39858C19.1023 9.51534 19.0184 9.58157 18.9077 9.59725C18.8461 9.60596 18.7513 9.5865 18.6232 9.53887C18.252 9.40032 17.8692 9.29605 17.4747 9.22605C17.421 9.21762 17.3632 9.20877 17.3013 9.19947C15.3821 8.90887 13.4455 9.43648 11.969 10.686C11.9671 10.6876 11.9657 10.6897 11.965 10.6921C11.9643 10.6944 11.9643 10.6969 11.965 10.6993C11.9657 10.7016 11.967 10.7037 11.9689 10.7053C11.9708 10.7069 11.9731 10.7079 11.9755 10.7082C12.0592 10.7178 12.1406 10.7405 12.2239 10.7479C13.2251 10.8363 14.4236 10.9235 15.1861 11.6898C15.5753 12.0808 15.8183 12.5413 15.915 13.0714C16.1655 14.4447 15.285 15.7979 13.9069 16.082C13.1113 16.2461 12.3765 16.0687 11.7023 15.55C11.6236 15.4893 11.5745 15.4358 11.5551 15.3897C11.4903 15.2348 11.514 15.1017 11.6261 14.9901C11.7809 14.8763 11.9228 14.874 12.0518 14.9832C12.4404 15.3117 12.8588 15.4791 13.307 15.4855C13.6067 15.4896 13.8819 15.437 14.1326 15.3278C15.1813 14.8712 15.613 13.6182 15.0706 12.6165C14.7495 12.0231 14.2215 11.7247 13.5775 11.5857C13.2296 11.5105 12.8814 11.4607 12.5332 11.4363C11.8274 11.387 11.2518 11.2298 10.6641 10.8058C10.6502 10.796 10.638 10.7977 10.6275 10.8111L10.1156 11.445C10.1051 11.4581 10.1061 11.4701 10.1186 11.4811C10.5662 11.8794 10.8753 12.3601 11.0458 12.9233C11.1227 13.1777 11.2134 13.4427 11.3176 13.7184C11.3974 13.9301 11.3839 14.114 11.1691 14.2281C10.9582 14.2891 10.8128 14.2193 10.7329 14.0186C10.6536 13.8196 10.5929 13.6522 10.5508 13.5162C10.4843 13.301 10.4062 13.0679 10.3164 12.817C10.3063 12.7888 10.2944 12.7881 10.2807 12.8148C10.0913 13.1892 9.94566 13.5588 9.84371 13.9236C9.78446 14.1347 9.71867 14.3063 9.64635 14.4381C9.35313 14.9727 8.85645 15.2272 8.26218 15.2921C8.02313 15.3179 7.77871 15.3487 7.52892 15.3844C7.37905 15.4058 7.27317 15.5291 7.27448 15.6803C7.27652 15.9208 7.27521 16.2006 7.27056 16.5198C7.2694 16.6026 7.27782 16.6703 7.29583 16.7229C7.37425 16.9511 7.58905 16.9141 7.84436 16.9146C10.6011 16.9148 13.3582 16.9148 16.1158 16.9146C16.1192 16.9146 16.1224 16.9134 16.1249 16.9112C16.1274 16.909 16.129 16.906 16.1293 16.9028C16.2356 16.0866 16.5833 15.4178 17.1724 14.8965C19.0994 13.1899 22.0603 14.3732 22.3814 16.8849C22.3834 16.8997 22.3919 16.9073 22.4067 16.9076L22.9378 16.9119C23.1518 16.9157 23.3608 16.9172 23.5647 16.9163C23.9128 16.9141 24.0618 16.6889 24.0523 16.3604C24.047 16.1835 24.0467 16.0022 24.0514 15.8166C24.0563 15.6316 23.9965 15.4925 23.8719 15.3992C23.766 15.3204 23.6331 15.313 23.5146 15.2624C23.2088 15.132 23.0027 14.9139 22.8964 14.608C22.8302 14.4172 22.801 14.2029 22.7435 14.0081C22.2892 12.4594 21.4085 11.2284 20.1015 10.3153C19.9115 10.1824 19.8257 10.0355 19.9411 9.81073C20.0919 9.62775 20.2766 9.6308 20.457 9.75976C20.9133 10.0859 21.3022 10.4192 21.6237 10.7597C21.6254 10.7614 21.6275 10.7628 21.6298 10.7638C21.632 10.7647 21.6345 10.7652 21.6369 10.7651C21.6394 10.7651 21.6418 10.7645 21.644 10.7635C21.6462 10.7625 21.6482 10.761 21.6499 10.7592C22.3043 10.0294 23.4318 10.1392 23.9747 10.9322C23.9781 10.9373 23.9826 10.9417 23.9879 10.945C23.9931 10.9484 23.999 10.9507 24.0052 10.9518C24.9105 11.1234 25.5292 11.7234 25.7044 12.6283C25.7073 12.6437 25.7147 12.6563 25.7266 12.6662C26.3499 13.1794 26.6967 13.844 26.767 14.6599V14.9845C26.7025 15.7542 26.3871 16.3907 25.8207 16.8941C25.8041 16.9089 25.8069 16.9162 25.829 16.9159C25.9893 16.9132 26.1662 16.8984 26.32 16.9577C26.5634 17.0512 26.7124 17.2367 26.767 17.5141V18.3811C26.6761 18.7772 26.4256 18.9755 26.0154 18.9758C25.4775 18.9758 24.941 18.9766 24.406 18.9784C24.402 18.9784 24.3981 18.98 24.3952 18.983C24.3924 18.9859 24.3908 18.9899 24.3908 18.9941C24.3947 19.1823 24.3908 19.3792 24.3289 19.5539C24.1898 19.946 23.9227 20.2057 23.5277 20.3329C23.4089 20.3713 23.2245 20.3897 22.9744 20.3883C22.1283 20.3836 21.2193 20.383 20.2474 20.3865C20.0453 20.3874 19.9085 20.268 19.8862 20.0576C19.9118 19.8394 20.0268 19.7304 20.2313 19.7304C21.0693 19.7315 21.9765 19.732 22.953 19.7317C23.1755 19.7317 23.3215 19.717 23.3909 19.6877C23.6876 19.5609 23.7551 19.2964 23.7373 18.9993C23.7364 18.9851 23.7288 18.978 23.7146 18.978H7.51149C7.49959 18.978 7.49305 18.9839 7.49189 18.9958C7.45355 19.3962 7.6422 19.7312 8.08006 19.7312C11.5844 19.7312 15.1165 19.7314 18.6763 19.7317C18.8619 19.7317 18.9874 19.8715 19.004 20.0576C18.9857 20.2384 18.8637 20.3848 18.6816 20.3843C15.2048 20.382 11.7619 20.3833 8.3528 20.3883C8.02313 20.3888 7.80413 20.3707 7.69579 20.3338C7.23309 20.1774 6.89413 19.7992 6.8449 19.3086C6.83473 19.2067 6.83212 19.1021 6.83705 18.9949C6.83711 18.9932 6.83682 18.9914 6.8362 18.9897C6.83557 18.9881 6.83462 18.9866 6.83341 18.9853C6.8322 18.984 6.83074 18.9829 6.82912 18.9822C6.8275 18.9815 6.82576 18.9811 6.82398 18.981C6.39033 18.9734 5.93199 18.974 5.44896 18.9827C5.17884 18.9877 4.98452 18.9653 4.86602 18.9156C4.6534 18.8265 4.51805 18.6468 4.45996 18.3767V17.5066C4.49859 17.3097 4.5988 17.1478 4.76058 17.0209C4.7722 17.0121 4.77365 17.002 4.76494 16.9904C4.59183 16.76 4.49017 16.4993 4.45996 16.2083V16.0044C4.50789 15.5188 4.72936 15.1374 5.12438 14.8603C5.13629 14.8522 5.14355 14.841 5.14616 14.8268C5.29546 14.0399 5.74116 13.504 6.48328 13.2191C6.57623 13.1834 6.68544 13.1571 6.81091 13.1402C6.8302 13.1377 6.84797 13.1278 6.86058 13.1123C7.57815 12.2231 8.70178 11.8785 9.80537 12.1891C9.8928 12.2138 9.90573 12.1928 9.84415 12.126C9.7788 12.0554 9.70996 11.9906 9.63763 11.9316C9.27689 11.6371 8.92151 11.3497 8.57151 11.0694C8.55844 11.059 8.54494 11.0582 8.531 11.0672C8.16938 11.304 7.79077 11.3587 7.39517 11.2315C6.95643 11.0903 6.6227 10.7017 6.54558 10.2447C6.43448 9.59028 6.81788 8.98729 7.45093 8.79821C7.4672 8.79327 7.47591 8.78252 7.47708 8.76597C7.50525 8.43543 7.63116 8.16022 7.85481 7.94035C8.27133 7.53124 8.92747 7.44672 9.41631 7.76041C9.94566 8.10068 10.1757 8.742 9.92301 9.3402C9.91662 9.35559 9.91981 9.36852 9.93259 9.37897C10.2718 9.65374 10.6159 9.93113 10.9647 10.2111C11.058 10.2861 11.1548 10.354 11.2553 10.415C11.2667 10.422 11.2771 10.421 11.2867 10.412C12.5206 9.29372 13.9566 8.6553 15.5947 8.49671C16.6819 8.39128 17.7794 8.53723 18.8872 8.93458C19.1059 9.013 19.2279 9.15372 19.1595 9.39858ZM9.29214 9.70138C9.1562 9.59072 9.11743 9.40555 9.21851 9.25611C9.27384 9.1742 9.32743 9.09578 9.34965 8.99862C9.40309 8.76568 9.34514 8.56483 9.17581 8.39607C9.00851 8.22964 8.73097 8.17823 8.52185 8.27147C8.21367 8.40885 8.0895 8.65138 8.14934 8.99906C8.18855 9.22431 8.04216 9.41078 7.80776 9.40555C7.55245 9.39989 7.32241 9.55063 7.22699 9.78808C6.99695 10.3597 7.61475 10.8538 8.13409 10.544C8.19247 10.5091 8.24214 10.4551 8.28832 10.405C8.42251 10.2604 8.61203 10.2599 8.7606 10.3806C9.04757 10.6133 9.32089 10.8342 9.58056 11.0433C9.58372 11.0457 9.58767 11.0469 9.59158 11.0464C9.59549 11.046 9.59904 11.0441 9.60147 11.0411L10.1186 10.4007C10.1294 10.3876 10.1281 10.3757 10.1147 10.3649C9.84633 10.1506 9.57214 9.92939 9.29214 9.70138ZM25.8935 15.7461C26.347 14.8072 26.0764 13.7432 25.2412 13.1211C25.1667 13.0653 25.0922 12.9934 25.0818 12.8954C25.0216 12.3118 24.7332 11.9084 24.2165 11.685C24.0662 11.6197 23.9032 11.6036 23.7416 11.5822C23.5416 11.5561 23.5037 11.3988 23.4053 11.2624C23.075 10.8058 22.4385 10.818 22.0864 11.2524C22.0815 11.2585 22.0787 11.2661 22.0786 11.2739C22.0786 11.2817 22.0812 11.2894 22.086 11.2955C22.7848 12.1913 23.2538 13.2038 23.4928 14.3331C23.5273 14.4948 23.6449 14.6324 23.8091 14.6743C24.416 14.8276 24.7114 15.2546 24.7066 15.8702C24.704 16.1774 24.7341 16.5015 24.6574 16.7873C24.651 16.8106 24.6592 16.818 24.6818 16.8096C25.2502 16.5955 25.6541 16.241 25.8935 15.7461ZM6.62096 15.6872C6.62183 15.3365 6.7961 15.0272 7.09672 14.8525C7.21116 14.7862 7.36554 14.7414 7.55986 14.7178C7.77712 14.6917 7.97942 14.6677 8.16676 14.646C8.53361 14.6028 8.8216 14.5026 9.02768 14.1972C9.09942 14.0912 9.1668 13.9234 9.22983 13.694C9.30187 13.4326 9.40963 13.142 9.55311 12.8222C9.55455 12.8189 9.55524 12.8154 9.55514 12.8118C9.55503 12.8082 9.55413 12.8047 9.5525 12.8016C9.55087 12.7984 9.54856 12.7956 9.54572 12.7935C9.54289 12.7913 9.53961 12.7898 9.53612 12.7891C8.74346 12.6183 8.06336 12.8136 7.49581 13.3751C7.36293 13.5062 7.27274 13.7376 7.06405 13.7611C6.45147 13.8305 6.04324 14.1519 5.83934 14.7252C5.7962 14.8464 5.79316 14.9827 5.77181 15.1095C5.75612 15.2036 5.70979 15.2736 5.63282 15.3195C5.36401 15.4794 5.18494 15.6315 5.12612 15.9722C5.06295 16.3364 5.27251 16.7041 5.61409 16.8483C5.72679 16.896 5.85793 16.9186 6.00751 16.9163C6.21519 16.9131 6.42446 16.9127 6.63533 16.915C6.65392 16.9153 6.66118 16.9064 6.65712 16.8884C6.6333 16.7818 6.6211 16.6759 6.62052 16.5708C6.61965 16.2862 6.61979 15.9916 6.62096 15.6872ZM20.7293 15.2376C19.2314 14.121 17.0456 15.0402 16.7959 16.8862C16.7936 16.9045 16.8017 16.9137 16.8203 16.9137L17.5396 16.9146C17.5435 16.9145 17.5472 16.9132 17.5501 16.9107C17.5531 16.9082 17.5551 16.9048 17.5558 16.901C17.72 16.1626 18.3021 15.6027 19.0563 15.5195C19.959 15.4202 20.7589 16.0031 20.9554 16.8897C20.9589 16.9057 20.9688 16.9137 20.985 16.9137L21.7104 16.9146C21.7221 16.9146 21.727 16.9087 21.7253 16.8971C21.6129 16.2021 21.2809 15.6489 20.7293 15.2376ZM20.2766 16.8688C19.8649 15.9151 18.6306 15.926 18.2328 16.8854C18.225 16.904 18.2312 16.9132 18.2515 16.9132H20.2474C20.28 16.9132 20.2897 16.8984 20.2766 16.8688ZM25.2107 18.3244L26.0843 18.3231C26.092 18.3231 26.0994 18.32 26.1049 18.3146C26.1104 18.3091 26.1135 18.3017 26.1135 18.2939V17.5947C26.1135 17.5877 26.1107 17.5811 26.1058 17.5762C26.1009 17.5713 26.0943 17.5685 26.0873 17.5685L25.2086 17.5681H5.14006C5.13302 17.5681 5.12626 17.5709 5.12127 17.5759C5.11629 17.5808 5.11349 17.5876 5.11349 17.5947V18.2939C5.11349 18.3019 5.11665 18.3095 5.12229 18.3152C5.12793 18.3208 5.13558 18.324 5.14355 18.324L25.2107 18.3244Z" fill="black"/>
<path d="M15.8098 6.53987C15.7505 6.66622 15.7867 6.7991 15.7331 6.92284C15.6642 7.08099 15.4756 7.15898 15.3157 7.09145C14.9397 6.93242 15.1575 6.31288 15.3196 6.06933C15.4494 5.87458 15.5 5.66328 15.4355 5.44108C15.3867 5.27247 15.2595 5.13436 15.1981 4.96749C15.0798 4.64625 15.079 4.32428 15.1954 4.00158C15.2743 3.78374 15.4638 3.61295 15.459 3.36636C15.4525 3.01737 15.8677 2.86009 16.0616 3.15069C16.1849 3.33629 16.0768 3.73059 15.988 3.90355C15.9091 4.05648 15.7954 4.19633 15.7719 4.37278C15.7344 4.65336 15.8372 4.78407 15.9649 5.01324C16.1675 5.3766 16.1736 5.91728 15.95 6.28064C15.8969 6.36691 15.8501 6.45332 15.8098 6.53987Z" fill="black"/>
<path d="M13.6254 4.9269C13.5143 5.05979 13.5661 5.20792 13.6724 5.31989C14.0223 5.68717 13.9805 6.24136 13.6441 6.59688C13.5814 6.6631 13.5631 6.73935 13.5587 6.82779C13.5491 7.02733 13.3431 7.14061 13.1671 7.10619C12.9976 7.07308 12.9035 6.92059 12.9113 6.75155C12.9235 6.47445 13.039 6.30061 13.2063 6.1002C13.293 5.99651 13.2747 5.85578 13.1884 5.75557C12.9165 5.44057 12.8202 5.09246 12.9993 4.69817C13.056 4.57313 13.1592 4.47684 13.2324 4.36226C13.2777 4.29124 13.252 4.20236 13.2864 4.12612C13.4577 3.74664 13.963 3.91655 13.9125 4.33655C13.882 4.58751 13.7783 4.74435 13.6254 4.9269Z" fill="black"/>
<path d="M17.4014 4.70379C17.4685 4.55915 17.672 4.4023 17.6663 4.24328C17.6602 4.07075 17.8192 3.93743 17.9778 3.93002C18.1643 3.92174 18.315 4.069 18.3159 4.25635C18.3168 4.52516 18.2079 4.7295 18.0349 4.92251C17.8314 5.1495 18.102 5.31767 18.197 5.49151C18.4196 5.89974 18.322 6.30014 18.0218 6.62864C17.9865 6.66742 17.9695 6.72406 17.9661 6.77634C17.9473 7.07565 17.6341 7.23337 17.4088 7.02032C17.2385 6.85868 17.3234 6.52146 17.4258 6.34981C17.4734 6.26935 17.5304 6.1918 17.5966 6.11715C17.8005 5.88711 17.4951 5.6928 17.4075 5.50763C17.2803 5.23896 17.2783 4.97101 17.4014 4.70379Z" fill="black"/>
<path d="M17.4748 9.22563C17.5221 9.27326 17.5801 9.30913 17.6486 9.33324C17.7549 9.37129 17.8087 9.39061 17.8098 9.39119C19.8889 10.324 21.3768 12.1639 21.8538 14.3985C21.9035 14.6317 22.0335 14.8073 22.2438 14.9252C22.388 15.0058 22.5535 15.0111 22.6947 15.1021C22.8356 15.193 22.9375 15.3146 23.0006 15.4668C23.0395 15.5612 23.0584 15.7116 23.0572 15.9182C23.056 16.145 23.0544 16.3666 23.0524 16.583C23.0518 16.6367 23.0136 16.7462 22.9378 16.9115L22.4067 16.9072C22.3919 16.9069 22.3835 16.8993 22.3815 16.8845C22.0604 14.3728 19.0994 13.1895 17.1724 14.896C16.5834 15.4174 16.2357 16.0862 16.1294 16.9024C16.1291 16.9056 16.1275 16.9086 16.125 16.9108C16.1225 16.913 16.1192 16.9142 16.1159 16.9141C13.3583 16.9144 10.6011 16.9144 7.84441 16.9141C7.5891 16.9137 7.37431 16.9507 7.29588 16.7224C7.27787 16.6699 7.26945 16.6022 7.27061 16.5194C7.27526 16.2002 7.27657 15.9203 7.27453 15.6798C7.27323 15.5287 7.3791 15.4054 7.52897 15.384C7.77877 15.3483 8.02319 15.3175 8.26223 15.2916C8.8565 15.2267 9.35318 14.9723 9.6464 14.4377C9.71872 14.3058 9.78451 14.1343 9.84377 13.9232C9.94572 13.5584 10.0914 13.1887 10.2808 12.8144C10.2944 12.7876 10.3063 12.7884 10.3165 12.8165C10.4062 13.0675 10.4844 13.3006 10.5509 13.5158C10.593 13.6517 10.6537 13.8192 10.733 14.0181C10.8129 14.2189 10.9582 14.2887 11.1691 14.2277C11.283 14.5121 11.4353 14.7661 11.6261 14.9897C11.514 15.1013 11.4904 15.2344 11.5551 15.3892C11.5746 15.4354 11.6237 15.4889 11.7024 15.5496C12.3765 16.0683 13.1114 16.2456 13.907 16.0815C15.285 15.7975 16.1655 14.4442 15.915 13.071C15.8183 12.5409 15.5753 12.0804 15.1861 11.6894C14.4237 10.923 13.2251 10.8359 12.2239 10.7475C12.1407 10.7401 12.0592 10.7174 11.9756 10.7078C11.9731 10.7075 11.9708 10.7065 11.969 10.7049C11.9671 10.7033 11.9657 10.7012 11.965 10.6989C11.9643 10.6965 11.9643 10.694 11.9651 10.6916C11.9658 10.6893 11.9671 10.6872 11.969 10.6856C13.4456 9.43606 15.3822 8.90845 17.3014 9.19905C17.3632 9.20834 17.421 9.2172 17.4748 9.22563Z" fill="#EA9B58"/>
<path d="M17.4746 9.2251C17.869 9.2951 18.2519 9.39937 18.6231 9.53792C18.7512 9.58555 18.846 9.60501 18.9076 9.5963C19.0182 9.58062 19.1022 9.51439 19.1594 9.39763L19.941 9.80978C19.8256 10.0346 19.9114 10.1814 20.1014 10.3143C21.4084 11.2275 22.2891 12.4584 22.7433 14.0072C22.8009 14.2019 22.83 14.4163 22.8963 14.6071C23.0026 14.9129 23.2087 15.1311 23.5145 15.2615C23.633 15.312 23.7659 15.3194 23.8718 15.3983C23.9964 15.4915 24.0562 15.6307 24.0513 15.8157C24.0466 16.0013 24.0469 16.1825 24.0521 16.3594C24.0617 16.6879 23.9127 16.9132 23.5646 16.9153C23.3607 16.9162 23.1517 16.9148 22.9377 16.911C23.0135 16.7457 23.0517 16.6362 23.0522 16.5825C23.0543 16.3661 23.0559 16.1445 23.057 15.9176C23.0582 15.7111 23.0393 15.5607 23.0004 15.4663C22.9374 15.3141 22.8354 15.1925 22.6945 15.1016C22.5534 15.0105 22.3878 15.0053 22.2436 14.9247C22.0333 14.8068 21.9033 14.6312 21.8537 14.398C21.3766 12.1633 19.8887 10.3235 17.8097 9.39066C17.8085 9.39008 17.7548 9.37076 17.6484 9.33271C17.5799 9.3086 17.522 9.27273 17.4746 9.2251Z" fill="#D88A55"/>
<path d="M11.6261 14.9894C11.4352 14.7658 11.2829 14.5118 11.169 14.2274C11.3838 14.1133 11.3973 13.9294 11.3176 13.7177C11.2133 13.442 11.1227 13.177 11.0457 12.9225C10.8752 12.3594 10.5662 11.8786 10.1186 11.4804C10.1061 11.4694 10.1051 11.4573 10.1155 11.4443L10.6275 10.8104C10.6379 10.797 10.6501 10.7952 10.6641 10.8051C11.2518 11.229 11.8273 11.3863 12.5332 11.4356C12.8814 11.46 13.2295 11.5098 13.5775 11.585C14.2214 11.724 14.7495 12.0224 15.0706 12.6158C15.613 13.6175 15.1812 14.8705 14.1326 15.3271C13.8819 15.4363 13.6067 15.4889 13.3069 15.4848C12.8588 15.4784 12.4404 15.311 12.0517 14.9825C11.9228 14.8732 11.7809 14.8756 11.6261 14.9894Z" fill="#D88A55"/>
<path d="M19.8865 20.0572H19.0042C18.9877 19.8711 18.8622 19.7313 18.6766 19.7313C15.1168 19.731 11.5847 19.7308 8.08032 19.7308C7.64246 19.7308 7.45381 19.3958 7.49215 18.9954C7.49331 18.9835 7.49985 18.9775 7.51175 18.9775H23.7149C23.7291 18.9775 23.7366 18.9847 23.7375 18.9989C23.7554 19.296 23.6878 19.5605 23.3911 19.6873C23.3217 19.7166 23.1758 19.7313 22.9533 19.7313C21.9768 19.7316 21.0695 19.7311 20.2316 19.73C20.0271 19.73 19.9121 19.839 19.8865 20.0572Z" fill="#C8EFFE"/>
<path d="M9.21825 9.25586C9.11717 9.4053 9.15595 9.59047 9.29188 9.70113C9.57188 9.92914 9.84607 10.1503 10.1145 10.3647C10.1278 10.3754 10.1291 10.3873 10.1184 10.4004L9.60122 11.0409C9.59879 11.0439 9.59524 11.0458 9.59133 11.0462C9.58742 11.0466 9.58346 11.0455 9.58031 11.043C9.32064 10.8339 9.04732 10.613 8.76035 10.3804C8.61178 10.2597 8.42226 10.2601 8.28807 10.4048C8.24188 10.4549 8.19222 10.5089 8.13383 10.5437C7.6145 10.8535 6.9967 10.3594 7.22674 9.78783C7.32215 9.55038 7.55219 9.39964 7.80751 9.4053C8.0419 9.41053 8.18829 9.22406 8.14908 8.99881C8.08925 8.65113 8.21342 8.4086 8.52159 8.27122C8.73072 8.17798 9.00825 8.22939 9.17556 8.39582C9.34489 8.56458 9.40284 8.76543 9.34939 8.99837C9.32717 9.09553 9.27358 9.17395 9.21825 9.25586Z" fill="#FFE5C2"/>
<path d="M25.8939 15.7456C25.6546 16.2405 25.2507 16.595 24.6823 16.8091C24.6596 16.8175 24.6515 16.8101 24.6579 16.7869C24.7346 16.5011 24.7045 16.1769 24.7071 15.8698C24.7119 15.2541 24.4165 14.8272 23.8096 14.6738C23.6454 14.632 23.5277 14.4943 23.4933 14.3327C23.2543 13.2034 22.7853 12.1909 22.0865 11.2951C22.0816 11.2889 22.079 11.2813 22.0791 11.2734C22.0792 11.2656 22.0819 11.258 22.0869 11.252C22.4389 10.8176 23.0755 10.8054 23.4057 11.262C23.5042 11.3983 23.5421 11.5556 23.7421 11.5818C23.9037 11.6031 24.0667 11.6192 24.217 11.6846C24.7337 11.908 25.0221 12.3114 25.0822 12.8949C25.0927 12.9929 25.1672 13.0648 25.2417 13.1206C26.0769 13.7428 26.3475 14.8067 25.8939 15.7456Z" fill="#05E39C"/>
<path d="M7.09655 14.8522C6.79593 15.0269 6.62165 15.3362 6.62078 15.6869C6.61962 15.9913 6.61948 16.2858 6.62035 16.5705C6.62093 16.6756 6.63313 16.7815 6.65694 16.8881C6.66101 16.9061 6.65375 16.915 6.63516 16.9147C6.42429 16.9124 6.21502 16.9128 6.00734 16.916C5.85775 16.9183 5.72661 16.8957 5.61392 16.848C5.27234 16.7038 5.06278 16.3361 5.12595 15.9719C5.18477 15.6312 5.36383 15.4791 5.63265 15.3192C5.70962 15.2733 5.75595 15.2033 5.77163 15.1092C5.79298 14.9824 5.79603 14.8461 5.83917 14.7249C6.04307 14.1516 6.4513 13.8302 7.06387 13.7608C7.27257 13.7372 7.36275 13.5059 7.49564 13.3747C8.06319 12.8133 8.74329 12.618 9.53595 12.7888C9.53944 12.7895 9.54272 12.791 9.54555 12.7932C9.54839 12.7953 9.5507 12.7981 9.55233 12.8013C9.55396 12.8044 9.55486 12.8079 9.55496 12.8115C9.55507 12.8151 9.55438 12.8186 9.55294 12.8219C9.40945 13.1417 9.30169 13.4323 9.22966 13.6937C9.16663 13.9231 9.09925 14.0909 9.0275 14.1969C8.82142 14.5023 8.53344 14.6025 8.16659 14.6456C7.97925 14.6674 7.77694 14.6914 7.55968 14.7175C7.36537 14.7411 7.21099 14.7859 7.09655 14.8522Z" fill="#05E39C"/>
<path d="M16.7958 16.8858C17.0454 15.0398 19.2313 14.1205 20.7292 15.2372C21.2807 15.6485 21.6127 16.2017 21.7251 16.8967C21.7269 16.9083 21.7219 16.9141 21.7103 16.9141L20.9849 16.9133C20.9686 16.9133 20.9588 16.9053 20.9553 16.8893C20.7588 16.0027 19.9589 15.4198 19.0561 15.5191C18.302 15.6023 17.7199 16.1622 17.5556 16.9006C17.5549 16.9044 17.5529 16.9078 17.55 16.9103C17.547 16.9127 17.5433 16.9141 17.5395 16.9141L16.8202 16.9133C16.8016 16.9133 16.7935 16.9041 16.7958 16.8858Z" fill="#FE5694"/>
<path d="M20.2766 16.8683C20.2896 16.898 20.2799 16.9128 20.2474 16.9128H18.2515C18.2312 16.9128 18.2249 16.9035 18.2328 16.8849C18.6305 15.9255 19.8648 15.9146 20.2766 16.8683Z" fill="#FE5694"/>
<path d="M25.2088 17.5679L25.211 18.3242L5.14383 18.3238C5.13586 18.3238 5.12821 18.3206 5.12257 18.315C5.11694 18.3093 5.11377 18.3017 5.11377 18.2937V17.5944C5.11377 17.5874 5.11657 17.5806 5.12155 17.5757C5.12654 17.5707 5.1333 17.5679 5.14035 17.5679H25.2088Z" fill="#DFF6FD"/>
<path d="M25.2085 17.5679L26.0873 17.5683C26.0942 17.5683 26.1009 17.5711 26.1058 17.576C26.1107 17.5809 26.1134 17.5875 26.1134 17.5944V18.2937C26.1134 18.3015 26.1103 18.3089 26.1049 18.3144C26.0994 18.3198 26.092 18.3229 26.0842 18.3229L25.2107 18.3242L25.2085 17.5679Z" fill="#C8EFFE"/>
</g>
<path d="M6.7959 26.3018L26.446 6.65161" stroke="black" stroke-linecap="round"/>
</svg>
