<svg width="34" height="34" viewBox="0 0 34 34" fill="none" xmlns="http://www.w3.org/2000/svg">
<circle cx="17.0659" cy="17.207" r="16.6689" fill="white"/>
<circle cx="17.0659" cy="17.207" r="14.3891" fill="#2C7B4E"/>
<path d="M22.3814 10.6452C22.361 10.7847 22.2993 10.8815 22.1963 10.9355C22.1425 10.9641 22.0397 10.9795 21.8876 10.9817C20.9006 10.9974 19.9676 11.2628 19.0887 11.778C18.8631 11.8914 18.6209 12.0443 18.3621 12.2365C17.8751 12.5981 17.4336 12.9322 17.0375 13.2388C16.7209 13.4841 16.4851 13.6368 16.3302 13.6968C15.4029 14.0568 14.6362 13.5366 14.0194 12.899C13.7992 12.671 13.5635 12.4231 13.3122 12.1555C13.0521 11.8774 12.8452 11.5952 12.6124 11.3096C12.489 11.1589 12.2609 10.9478 12.0441 11.05C11.9626 11.0882 11.9565 11.2484 11.956 11.3252C11.9556 11.7785 11.9904 12.3119 11.85 12.7322C11.5489 13.635 10.3718 13.6087 9.6655 13.9884C8.98178 14.3555 8.86964 15.0948 8.88283 15.8125C8.89744 16.5853 8.40597 17.0744 7.65063 17.178C7.3877 17.2142 7.12618 17.255 6.86607 17.3005C6.65168 17.3378 6.60314 17.5281 6.59654 17.7114C6.58115 18.123 6.57754 18.5772 6.58571 19.0742C6.58602 19.0927 6.59544 19.102 6.61398 19.102H10.1607C10.183 19.102 10.1887 19.0922 10.1777 19.0728C9.88603 18.5521 9.75644 17.9631 9.77482 17.3392C9.78566 16.9745 9.93927 16.7097 10.3365 16.7035C11.2202 16.6897 11.9857 16.9806 12.6331 17.5762C12.6348 17.5778 12.6368 17.5789 12.639 17.5795C12.6412 17.5802 12.6435 17.5803 12.6458 17.5799C12.648 17.5795 12.6501 17.5786 12.6519 17.5772C12.6538 17.5758 12.6552 17.574 12.6562 17.572C13.0257 16.8319 13.6015 16.2859 14.3837 15.9341C14.8134 15.7409 15.2922 15.5703 15.5263 16.1503C15.6284 16.4035 15.6994 16.6611 15.7393 16.9231C15.7422 16.9416 15.7528 16.9497 15.7714 16.9471C15.995 16.9204 16.2277 16.9294 16.4692 16.974C16.4764 16.9753 16.4838 16.9745 16.4906 16.9717C16.4973 16.969 16.5031 16.9644 16.5074 16.9585C16.9123 16.3877 17.4588 16.0212 18.1467 15.8591C18.1526 15.8577 18.158 15.8545 18.162 15.85C18.1661 15.8454 18.1686 15.8397 18.1693 15.8337C18.2556 15.0011 18.6961 14.2745 19.4293 13.8919C21.0267 13.0588 22.9478 13.9856 23.1358 15.8238C23.1377 15.842 23.1476 15.8533 23.1655 15.8577C23.9864 16.0585 24.5909 16.5249 24.9792 17.2572C24.987 17.272 24.9982 17.2751 25.0126 17.2666C25.2916 17.0986 25.6016 16.9916 25.9428 16.9457C26.2525 16.9099 26.5668 16.9421 26.8857 17.0423C26.9843 17.0734 27.0833 17.1064 27.1825 17.1413C27.1995 17.1469 27.2078 17.1408 27.2075 17.1229C27.1891 14.6458 26.0309 12.1479 23.5703 11.2691C23.4855 11.239 23.4197 11.1969 23.3728 11.1428C23.2981 11.0568 23.2753 10.9452 23.3045 10.8083C23.3642 10.6741 23.4533 10.5959 23.5717 10.5736C23.6524 10.5582 23.7548 10.5747 23.8789 10.6231C24.8751 11.0095 25.7152 11.6277 26.3725 12.4547C26.3845 12.4694 26.4 12.4768 26.4192 12.4768C26.521 12.4768 26.656 12.46 26.8244 12.4264C26.8499 12.4214 26.8551 12.4085 26.84 12.3878C26.5412 11.9769 26.3669 11.3982 26.5836 10.9317C26.766 10.5397 27.1496 10.371 27.5652 10.3597C28.0829 10.3459 28.4195 10.5699 28.575 11.0316C28.7436 11.5321 28.5033 12.1225 28.1414 12.4966C28.1295 12.5092 28.1315 12.5183 28.1476 12.5239C28.3445 12.5931 28.5498 12.6268 28.7634 12.6253C28.9569 12.6237 29.0787 12.7256 29.1286 12.9311V13.0385C29.0771 13.2257 28.9673 13.3234 28.7992 13.3316C28.3541 13.3533 27.9118 13.237 27.4723 12.9829C27.4535 12.9719 27.434 12.9706 27.4139 12.9791C27.2499 13.0479 27.0749 13.0988 26.889 13.1318C26.8673 13.1356 26.862 13.1469 26.873 13.1657C27.5443 14.3356 27.8911 15.6205 27.9134 17.0207C27.9171 17.2478 27.919 17.467 27.919 17.6785C27.919 17.6948 27.9244 17.7092 27.9351 17.7218C28.2674 18.1098 28.4518 18.5602 28.4882 19.0732C28.4895 19.0908 28.4988 19.1009 28.5161 19.1034C28.8663 19.1543 29.0705 19.355 29.1286 19.7056V20.8742C29.0441 21.5373 28.7151 22.0003 28.1414 22.2633C27.8705 22.3877 27.5849 22.4183 27.29 22.4079C27.2689 22.4073 27.259 22.4174 27.2603 22.4381C27.2703 22.6549 27.2674 22.8578 27.2513 23.0469C27.1981 23.676 26.6496 24.1396 26.0238 24.1396C20.0468 24.1402 14.0783 24.1404 8.11854 24.1401C7.54131 24.1401 7.05597 23.7777 6.90848 23.2203C6.84393 22.9776 6.87079 22.686 6.86843 22.4282C6.86837 22.4255 6.86778 22.4229 6.86671 22.4205C6.86563 22.418 6.86409 22.4158 6.86216 22.414C6.86024 22.4122 6.85797 22.4107 6.85549 22.4098C6.853 22.4088 6.85036 22.4083 6.8477 22.4084C6.59419 22.416 6.33267 22.398 6.09424 22.3057C5.46094 22.0607 5.09717 21.5847 5.00293 20.8779V19.6919C5.05099 19.4246 5.19141 19.2438 5.42419 19.1496C5.55942 19.0949 5.70455 19.101 5.84874 19.1053C5.85237 19.1053 5.85598 19.1047 5.85935 19.1034C5.86272 19.102 5.86579 19.1001 5.86838 19.0976C5.87096 19.0951 5.87302 19.0921 5.87442 19.0888C5.87582 19.0855 5.87655 19.082 5.87654 19.0784C5.87843 18.5511 5.84167 17.9612 5.92838 17.4452C6.0212 16.8963 6.38969 16.6541 6.89812 16.5777C7.15319 16.5394 7.40183 16.5003 7.64403 16.4604C8.01251 16.4001 8.1845 16.1692 8.17744 15.8092C8.16189 15.0331 8.30608 14.1939 8.90686 13.6643C9.41152 13.2199 10.0665 13.079 10.6913 12.8825C11.1178 12.7487 11.2351 12.5272 11.2426 12.0853C11.2464 11.8647 11.2478 11.6423 11.2469 11.418C11.2445 10.9398 11.3741 10.4926 11.8905 10.3573C12.8183 10.1137 13.2349 11.0288 13.7414 11.5754C14.0135 11.8691 14.2825 12.1537 14.5486 12.4292C15.001 12.8976 15.5956 13.3589 16.2515 12.9443C16.4245 12.8349 16.5635 12.7011 16.7223 12.5814C17.1105 12.2893 17.502 11.9959 17.8965 11.7012C19.0839 10.8144 20.4693 10.2819 21.9503 10.2739C22.0684 10.2733 22.1608 10.2959 22.2274 10.3418C22.3213 10.4068 22.3726 10.508 22.3814 10.6452ZM27.1967 11.3379C27.1788 11.6183 27.3197 11.8864 27.503 12.0951C27.5064 12.099 27.5112 12.1014 27.5164 12.1019C27.5216 12.1023 27.5267 12.1007 27.5308 12.0975C27.7359 11.9323 27.8625 11.7285 27.9106 11.4863C27.9374 11.3502 27.9171 11.1136 27.7452 11.0783C27.6594 11.0604 27.5581 11.0618 27.4412 11.0825C27.2873 11.1095 27.2058 11.1947 27.1967 11.3379ZM20.3298 14.3197C19.5545 14.4683 19.0759 14.9371 18.894 15.7263C18.8342 15.9864 18.9525 16.4609 18.5421 16.5089C18.0011 16.5724 17.5535 16.8072 17.1991 17.2134C17.1869 17.2275 17.1884 17.2394 17.2038 17.2492C17.8792 17.6811 18.2509 18.2901 18.3187 19.076C18.3203 19.0943 18.3303 19.1034 18.3489 19.1034H20.2737C20.292 19.1034 20.3011 19.0943 20.3011 19.076L20.3025 18.6449C20.3025 18.6317 20.2967 18.6218 20.285 18.6152C19.9216 18.4088 19.5581 18.202 19.1947 17.9946C18.9807 17.8727 18.9145 17.714 18.9958 17.5182C19.092 17.2874 19.3389 17.2548 19.5448 17.3764C19.7829 17.5175 20.0287 17.6583 20.2822 17.7991C20.284 17.8002 20.2861 17.8007 20.2881 17.8007C20.2902 17.8007 20.2923 17.8001 20.2941 17.799C20.2959 17.7979 20.2975 17.7963 20.2985 17.7944C20.2996 17.7925 20.3001 17.7904 20.3001 17.7882C20.3036 17.52 20.3034 17.2449 20.2997 16.9632C20.2954 16.6541 20.5984 16.4382 20.8651 16.6347C20.9989 16.7337 21.0121 16.875 21.0107 17.0291C21.0082 17.2952 21.0072 17.5451 21.0079 17.7788C21.0079 17.798 21.0162 17.8029 21.0328 17.7934L21.7943 17.3613C21.9363 17.2784 22.069 17.2804 22.1925 17.3675C22.3951 17.5107 22.3932 17.8358 22.1675 17.9626C22.0268 18.0414 21.897 18.1162 21.7783 18.1869L21.03 18.6162C21.0156 18.6243 21.0083 18.6367 21.0083 18.6534L21.0088 19.0779C21.0088 19.094 21.0167 19.102 21.0324 19.102L21.6284 19.1024L23.8992 19.102C23.9174 19.102 23.9271 19.093 23.9284 19.0751C23.9611 18.5976 24.1233 18.1742 24.4152 17.8047C24.4268 17.79 24.4298 17.7735 24.4241 17.7553C24.4109 17.7138 24.3949 17.6741 24.376 17.636C24.0528 16.9833 23.5106 16.6058 22.7494 16.5037C22.5327 16.4745 22.4422 16.2903 22.4436 16.0825C22.4516 14.9153 21.4513 14.1355 20.3298 14.3197ZM14.8728 16.5019C13.7513 16.9151 13.012 17.8919 13.0148 19.0892C13.0148 19.091 13.0152 19.0927 13.0158 19.0943C13.0164 19.0959 13.0174 19.0973 13.0186 19.0986C13.0197 19.0998 13.0211 19.1008 13.0227 19.1014C13.0242 19.1021 13.0259 19.1024 13.0275 19.1024L14.5194 19.1015C14.5373 19.1015 14.5514 19.0941 14.5618 19.0793C15.0996 18.3041 15.2166 17.4513 14.9128 16.5212C14.9062 16.5008 14.8929 16.4943 14.8728 16.5019ZM10.5174 17.9296C10.5913 18.3656 10.7633 18.7492 11.0334 19.0803C11.045 19.0947 11.0603 19.102 11.0791 19.102H12.275C12.2939 19.102 12.3038 19.0925 12.3047 19.0737L12.3245 18.6991L12.3773 18.3716C12.3801 18.3546 12.376 18.3396 12.365 18.3264C11.8822 17.7549 11.263 17.4496 10.5075 17.4103C10.4906 17.4097 10.4827 17.4179 10.484 17.4348L10.5174 17.9296ZM15.393 19.0845C15.387 19.0965 15.3908 19.1024 15.4043 19.1024L17.5817 19.1015C17.5981 19.1015 17.6058 19.0933 17.6048 19.077C17.5685 18.471 17.1459 17.9649 16.604 17.7458C16.3577 17.6466 16.0912 17.6167 15.8044 17.6563C15.7871 17.6588 15.7781 17.6689 15.7775 17.6865C15.763 18.1316 15.6349 18.5976 15.393 19.0845ZM25.8424 17.6827C25.203 17.8467 24.6804 18.3909 24.6394 19.0746C24.6382 19.0932 24.6468 19.1024 24.6654 19.1024L27.7475 19.1015C27.773 19.1015 27.7841 19.0889 27.781 19.0638C27.7166 18.5671 27.4855 18.182 27.0878 17.9084C26.7307 17.6629 26.2547 17.5771 25.8424 17.6827ZM16.6784 22.0352C16.6571 22.2828 16.5231 22.4065 16.2765 22.4065C13.3808 22.409 10.4865 22.4101 7.59361 22.4098C7.57854 22.4098 7.57147 22.4172 7.57241 22.432C7.58325 22.619 7.54791 22.8768 7.59314 23.0351C7.66854 23.3002 7.84964 23.4328 8.13644 23.4328C13.4852 23.4334 18.8337 23.4334 24.1819 23.4328C24.7945 23.4341 25.4067 23.4341 26.0187 23.4328C26.3791 23.4319 26.5686 23.1671 26.5582 22.8212C26.5541 22.6905 26.5544 22.5645 26.5591 22.4433C26.5601 22.4213 26.5494 22.4103 26.5271 22.4103L24.3157 22.4089C22.2368 22.4111 20.1696 22.4108 18.1142 22.4079C17.9512 22.4076 17.8401 22.3922 17.7811 22.3618C17.6677 22.3033 17.6069 22.1939 17.5987 22.0333C17.6358 21.8128 17.7683 21.7027 17.9964 21.703C20.5905 21.7033 23.1881 21.7035 25.7892 21.7035C26.3333 21.7035 26.881 21.7046 27.4323 21.7068C27.6877 21.7074 27.9096 21.6265 28.0981 21.4641C28.3624 21.2361 28.4322 20.943 28.4246 20.5929C28.419 20.323 28.419 20.0725 28.4246 19.8413C28.4253 19.8212 28.4155 19.8111 28.3954 19.8111L26.2189 19.8092L5.72482 19.8107C5.71539 19.8107 5.71068 19.8152 5.71068 19.8243C5.70848 20.1278 5.70864 20.4347 5.71115 20.7451C5.71586 21.3044 6.1423 21.7021 6.69079 21.7021C9.88241 21.7036 13.0905 21.7038 16.3151 21.7025C16.5112 21.7025 16.6492 21.8397 16.6784 22.0352Z" fill="black"/>
<path d="M22.3807 10.6455C22.6907 10.6697 22.9984 10.724 23.3038 10.8085C23.2745 10.9455 23.2973 11.057 23.3721 11.1431C23.4189 11.1971 23.4847 11.2392 23.5695 11.2694C26.0302 12.1482 27.1884 14.646 27.2068 17.1232C27.2071 17.1411 27.1987 17.1472 27.1818 17.1415C27.0825 17.1067 26.9836 17.0737 26.8849 17.0426C26.5661 16.9424 26.2518 16.9102 25.942 16.946C25.7831 15.7677 25.3673 14.729 24.6948 13.8299C24.0354 12.9491 23.213 12.3254 22.2275 11.9588C21.2499 11.5953 20.2034 11.5351 19.0879 11.7783C19.9668 11.2631 20.8998 10.9977 21.8868 10.9819C22.0389 10.9797 22.1418 10.9644 22.1955 10.9358C22.2985 10.8817 22.3603 10.785 22.3807 10.6455Z" fill="#FBB49E"/>
<path d="M19.0887 11.7779C20.2042 11.5348 21.2508 11.5949 22.2284 11.9584C23.2138 12.325 24.0362 12.9487 24.6956 13.8295C25.3682 14.7286 25.7839 15.7673 25.9429 16.9456C25.6017 16.9915 25.2917 17.0984 25.0127 17.2665C24.9983 17.275 24.9871 17.2718 24.9793 17.2571C24.591 16.5248 23.9864 16.0583 23.1656 15.8576C23.1477 15.8532 23.1378 15.8419 23.1359 15.8237C22.9479 13.9855 21.0268 13.0586 19.4294 13.8917C18.6962 14.2743 18.2556 15.0009 18.1694 15.8336C18.1687 15.8396 18.1662 15.8453 18.1621 15.8499C18.1581 15.8544 18.1527 15.8576 18.1468 15.859C17.4588 16.0211 16.9124 16.3875 16.5075 16.9583C16.5032 16.9643 16.4974 16.9689 16.4906 16.9716C16.4839 16.9744 16.4765 16.9752 16.4693 16.9739C16.2277 16.9293 15.9951 16.9203 15.7715 16.947C15.7529 16.9495 15.7422 16.9415 15.7394 16.923C15.6995 16.661 15.6285 16.4034 15.5264 16.1502C15.2922 15.5702 14.8135 15.7407 14.3838 15.9339C13.6016 16.2858 13.0257 16.8317 12.6563 17.5718C12.6553 17.5739 12.6538 17.5757 12.652 17.5771C12.6502 17.5784 12.6481 17.5794 12.6458 17.5798C12.6436 17.5802 12.6413 17.5801 12.6391 17.5794C12.6369 17.5788 12.6349 17.5776 12.6332 17.5761C11.9858 16.9805 11.2202 16.6896 10.3366 16.7034C9.93935 16.7095 9.78574 16.9744 9.7749 17.3391C9.75653 17.9629 9.88611 18.5519 10.1778 19.0726C10.1888 19.0921 10.1831 19.1018 10.1608 19.1018H6.61406C6.59553 19.1018 6.5861 19.0926 6.58579 19.074C6.57762 18.5771 6.58124 18.1228 6.59663 17.7113C6.60322 17.528 6.65176 17.3377 6.86616 17.3004C7.12626 17.2549 7.38778 17.214 7.65071 17.1779C8.40605 17.0743 8.89752 16.5851 8.88291 15.8124C8.86972 15.0947 8.98187 14.3554 9.66558 13.9883C10.3719 13.6085 11.549 13.6349 11.8501 12.7321C11.9905 12.3118 11.9556 11.7784 11.9561 11.3251C11.9566 11.2483 11.9627 11.0881 12.0442 11.0499C12.261 10.9476 12.489 11.1587 12.6125 11.3095C12.8453 11.5951 13.0521 11.8773 13.3122 12.1553C13.5635 12.423 13.7993 12.6708 14.0195 12.8989C14.6363 13.5364 15.403 14.0567 16.3303 13.6967C16.4852 13.6367 16.7209 13.484 17.0376 13.2386C17.4337 12.932 17.8752 12.598 18.3621 12.2364C18.621 12.0441 18.8632 11.8913 19.0887 11.7779ZM10.6887 15.3139C10.689 15.2708 10.6808 15.228 10.6646 15.1881C10.6483 15.1481 10.6244 15.1117 10.5941 15.081C10.5638 15.0503 10.5278 15.0259 10.4881 15.0091C10.4483 14.9923 10.4057 14.9835 10.3626 14.9832L10.3192 14.9829C10.2321 14.9823 10.1483 15.0163 10.0863 15.0775C10.0243 15.1386 9.98911 15.2219 9.9885 15.309L9.98541 15.751C9.98511 15.7941 9.99331 15.8369 10.0095 15.8769C10.0258 15.9168 10.0497 15.9532 10.08 15.9839C10.1103 16.0146 10.1463 16.0391 10.186 16.0559C10.2258 16.0726 10.2684 16.0814 10.3115 16.0817L10.3549 16.082C10.442 16.0826 10.5258 16.0486 10.5878 15.9875C10.6498 15.9263 10.685 15.843 10.6856 15.7559L10.6887 15.3139Z" fill="#FBC7B8"/>
<path d="M21.6282 19.1021C21.708 18.8028 21.758 18.4976 21.7781 18.1866C21.8968 18.1159 22.0266 18.0411 22.1673 17.9623C22.393 17.8355 22.3949 17.5104 22.1923 17.3672C22.0688 17.2802 21.9361 17.2781 21.7941 17.361C21.763 16.7695 21.6248 16.195 21.3794 15.6374C21.147 15.1093 20.797 14.67 20.3296 14.3194C21.4511 14.1352 22.4514 14.915 22.4434 16.0822C22.442 16.29 22.5325 16.4742 22.7492 16.5034C23.5104 16.6055 24.0526 16.983 24.3758 17.6358C24.3947 17.6738 24.4107 17.7135 24.4239 17.755C24.4295 17.7732 24.4266 17.7897 24.4149 17.8044C24.1231 18.1739 23.9609 18.5973 23.9282 19.0748C23.9269 19.0927 23.9172 19.1017 23.899 19.1017L21.6282 19.1021Z" fill="#7FDBAE"/>
<path d="M20.3293 14.3198C20.7967 14.6704 21.1466 15.1097 21.3791 15.6378C21.6244 16.1954 21.7627 16.7699 21.7938 17.3615L21.0323 17.7935C21.0156 17.803 21.0073 17.7981 21.0073 17.7789C21.0067 17.5452 21.0076 17.2953 21.0102 17.0293C21.0116 16.8752 20.9984 16.7338 20.8645 16.6349C20.5978 16.4384 20.2949 16.6542 20.2991 16.9633C20.3029 17.2451 20.303 17.5201 20.2996 17.7884C20.2996 17.7905 20.299 17.7927 20.298 17.7946C20.2969 17.7964 20.2954 17.798 20.2936 17.7991C20.2918 17.8002 20.2897 17.8008 20.2876 17.8008C20.2855 17.8008 20.2835 17.8003 20.2817 17.7992C20.0282 17.6585 19.7823 17.5176 19.5442 17.3765C19.3383 17.255 19.0914 17.2875 18.9953 17.5184C18.9139 17.7141 18.9802 17.8729 19.1941 17.9948C19.5576 18.2021 19.921 18.4089 20.2845 18.6153C20.2961 18.6219 20.3019 18.6318 20.3019 18.645L20.3005 19.0762C20.3005 19.0944 20.2914 19.1035 20.2732 19.1035H18.3483C18.3298 19.1035 18.3197 19.0944 18.3182 19.0762C18.2503 18.2902 17.8787 17.6812 17.2033 17.2493C17.1879 17.2396 17.1863 17.2276 17.1986 17.2135C17.5529 16.8073 18.0006 16.5725 18.5415 16.509C18.9519 16.461 18.8337 15.9865 18.8935 15.7264C19.0754 14.9373 19.554 14.4684 20.3293 14.3198Z" fill="#A7E9A6"/>
<path d="M10.3625 14.9836L10.3191 14.9832C10.1378 14.982 9.9897 15.128 9.98843 15.3094L9.98534 15.7514C9.98408 15.9327 10.1301 16.0808 10.3115 16.0821L10.3548 16.0824C10.5362 16.0836 10.6843 15.9376 10.6855 15.7562L10.6886 15.3143C10.6899 15.1329 10.5439 14.9848 10.3625 14.9836Z" fill="black"/>
<path d="M13.0147 19.0895C13.0118 17.8921 13.7512 16.9153 14.8726 16.5021C14.8927 16.4945 14.9061 16.501 14.9127 16.5214C15.2164 17.4516 15.0994 18.3043 14.5616 19.0796C14.5513 19.0943 14.5371 19.1017 14.5192 19.1017L13.0274 19.1027C13.0257 19.1027 13.0241 19.1023 13.0225 19.1016C13.021 19.101 13.0196 19.1 13.0184 19.0988C13.0172 19.0976 13.0163 19.0961 13.0156 19.0945C13.015 19.0929 13.0147 19.0912 13.0147 19.0895Z" fill="#4FC9AF"/>
<path d="M12.3241 18.6989C11.8067 18.229 11.2043 17.9725 10.517 17.9295L10.4835 17.4347C10.4823 17.4177 10.4901 17.4096 10.5071 17.4102C11.2626 17.4495 11.8818 17.7548 12.3646 18.3262C12.3756 18.3394 12.3797 18.3545 12.3768 18.3714L12.3241 18.6989Z" fill="#7FDBAE"/>
<path d="M15.3924 19.0848C15.6343 18.5979 15.7624 18.1319 15.7769 17.6867C15.7775 17.6691 15.7865 17.6591 15.8038 17.6566C16.0906 17.617 16.3571 17.6468 16.6034 17.7461C17.1453 17.9652 17.5679 18.4713 17.6042 19.0773C17.6052 19.0936 17.5975 19.1018 17.5811 19.1018L15.4037 19.1027C15.3902 19.1027 15.3864 19.0967 15.3924 19.0848Z" fill="#F37C7C"/>
<path d="M24.6388 19.0745C24.6798 18.3908 25.2024 17.8465 25.8418 17.6825C26.2541 17.577 26.73 17.6628 27.0872 17.9083C27.4849 18.1819 27.7159 18.567 27.7803 19.0636C27.7835 19.0888 27.7723 19.1013 27.7469 19.1013L24.6647 19.1023C24.6462 19.1023 24.6375 19.093 24.6388 19.0745Z" fill="#F37C7C"/>
<path d="M12.3246 18.6992L12.3049 19.0738C12.3039 19.0926 12.294 19.102 12.2752 19.102H11.0793C11.0604 19.102 11.0452 19.0948 11.0335 19.0804C10.7634 18.7493 10.5914 18.3657 10.5176 17.9297C11.2049 17.9727 11.8073 18.2292 12.3246 18.6992Z" fill="#A7E9A6"/>
<path d="M21.7778 18.187C21.7577 18.498 21.7077 18.8032 21.6279 19.1026L21.0318 19.1021C21.0161 19.1021 21.0083 19.0941 21.0083 19.0781L21.0078 18.6535C21.0078 18.6369 21.015 18.6244 21.0295 18.6163L21.7778 18.187Z" fill="#A7E9A6"/>
<path d="M26.2188 19.8101C26.2084 20.084 26.2038 20.356 26.2051 20.6262C26.207 20.9758 26.1627 21.2044 25.9874 21.4758C25.9277 21.5688 25.8616 21.6449 25.789 21.7043C23.188 21.7043 20.5904 21.7041 17.9962 21.7038C17.7682 21.7035 17.6356 21.8136 17.5985 22.0341L16.6783 22.036C16.6491 21.8405 16.511 21.7034 16.315 21.7034C13.0904 21.7046 9.88226 21.7045 6.69063 21.7029C6.14215 21.7029 5.71571 21.3052 5.71099 20.7459C5.70848 20.4355 5.70832 20.1286 5.71052 19.8251C5.71052 19.816 5.71524 19.8115 5.72466 19.8115L26.2188 19.8101Z" fill="#F9F7F8"/>
<path d="M26.2183 19.8101L28.3948 19.8119C28.4149 19.8119 28.4247 19.822 28.424 19.8421C28.4184 20.0733 28.4184 20.3238 28.424 20.5937C28.4316 20.9438 28.3618 21.2369 28.0975 21.4649C27.909 21.6273 27.6871 21.7082 27.4317 21.7076C26.8804 21.7054 26.3327 21.7043 25.7886 21.7043C25.8611 21.6449 25.9273 21.5688 25.987 21.4758C26.1622 21.2044 26.2065 20.9758 26.2046 20.6262C26.2034 20.356 26.2079 20.084 26.2183 19.8101Z" fill="#E5E4ED"/>
<path d="M16.6784 22.0356L17.5986 22.0337C17.6068 22.1942 17.6676 22.3037 17.781 22.3621C17.8401 22.3926 17.9511 22.408 18.1141 22.4083C20.1695 22.4111 22.2367 22.4114 24.3157 22.4092C24.3487 22.5789 24.3578 22.7608 24.343 22.9549C24.3301 23.1252 24.2764 23.2846 24.1818 23.4332C18.8337 23.4338 13.4852 23.4338 8.13638 23.4332C7.84958 23.4332 7.66848 23.3006 7.59308 23.0355C7.54785 22.8771 7.58319 22.6194 7.57235 22.4323C7.57141 22.4176 7.57848 22.4102 7.59355 22.4102C10.4864 22.4105 13.3807 22.4094 16.2764 22.4069C16.523 22.4069 16.657 22.2831 16.6784 22.0356Z" fill="#BED8FB"/>
<path d="M24.1812 23.4326C24.2757 23.284 24.3294 23.1246 24.3423 22.9543C24.3571 22.7602 24.348 22.5783 24.315 22.4087L26.5263 22.4101C26.5486 22.4101 26.5593 22.4211 26.5584 22.4431C26.5537 22.5643 26.5534 22.6903 26.5574 22.821C26.5678 23.1669 26.3784 23.4317 26.0179 23.4326C25.406 23.4339 24.7937 23.4339 24.1812 23.4326Z" fill="#8EAADF"/>
</svg>
