<svg width="33" height="32" viewBox="0 0 33 32" fill="none" xmlns="http://www.w3.org/2000/svg">
<path d="M11.4496 8.33008C11.5934 9.1111 11.4757 9.91775 11.1146 10.6251C10.9449 10.9334 10.7347 11.2176 10.4896 11.4701C10.1646 11.7951 9.77871 12.0529 9.35405 12.2288C8.92939 12.4047 8.47424 12.4953 8.01459 12.4953C7.55494 12.4953 7.09979 12.4047 6.67513 12.2288C6.25047 12.0529 5.86461 11.7951 5.53959 11.4701C5.21457 11.1451 4.95675 10.7592 4.78085 10.3345C4.60495 9.90988 4.51441 9.45473 4.51441 8.99508C4.51441 8.53543 4.60495 8.08028 4.78085 7.65562C4.95675 7.23096 5.21457 6.8451 5.53959 6.52008C5.79061 6.27321 6.07505 6.06283 6.38459 5.89508C7.17397 5.49404 8.08295 5.3962 8.93959 5.62008C9.56531 5.79998 10.1299 6.14756 10.5723 6.62522C11.0147 7.10288 11.3181 7.69243 11.4496 8.33008Z" fill="#EDC107"/>
<path d="M5.01441 27.5001L4.22941 25.0001L2.47441 17.5001C2.4596 17.4361 2.45755 17.3697 2.46838 17.3049C2.47921 17.2401 2.50271 17.1781 2.53754 17.1223C2.57237 17.0666 2.61784 17.0183 2.67135 16.9802C2.72487 16.942 2.78537 16.9148 2.84941 16.9001L26.2144 11.4001C26.2784 11.3853 26.3447 11.3832 26.4096 11.394C26.4744 11.4049 26.5364 11.4284 26.5921 11.4632C26.6479 11.498 26.6962 11.5435 26.7343 11.597C26.7725 11.6505 26.7997 11.711 26.8144 11.7751L28.1494 17.5001" fill="#1DA055"/>
<path d="M26.0947 17.5001L25.6647 15.6701C24.3947 15.9701 23.1647 15.3401 22.9047 14.2651L18.8797 15.2101L8.01473 17.5001L9.01473 22.0001L20.0147 19.0001L24.0147 18.0001L26.0947 17.5001Z" fill="#64BF88"/>
<path d="M12.9395 17.4349C13.4532 16.775 14.1762 16.3095 14.9895 16.1149C15.6988 15.9682 16.4348 16.0198 17.1167 16.2642C17.7985 16.5085 18.3998 16.9361 18.8545 17.4999L12.9395 17.4349Z" fill="#7CDDA3"/>
<path d="M16.0395 4.52522C16.7075 3.89112 17.5934 3.5376 18.5145 3.5376C19.4355 3.5376 20.3214 3.89112 20.9895 4.52522C21.6459 5.18163 22.0146 6.07192 22.0146 7.00022C22.0146 7.92853 21.6459 8.81881 20.9895 9.47522C20.3331 10.1316 19.4428 10.5004 18.5145 10.5004C17.5862 10.5004 16.6959 10.1316 16.0395 9.47522C15.7945 9.22073 15.5844 8.93491 15.4145 8.62522C15.2475 8.29182 15.1281 7.93672 15.0595 7.57022C14.9802 7.02155 15.0272 6.46202 15.1971 5.9343C15.3669 5.40659 15.655 4.92464 16.0395 4.52522Z" fill="#EDC107"/>
<path d="M4.51465 18L4.51465 30C4.51465 30.2761 4.73851 30.5 5.01465 30.5L29.0146 30.5C29.2908 30.5 29.5146 30.2761 29.5146 30L29.5146 18C29.5146 17.7239 29.2908 17.5 29.0146 17.5L5.01465 17.5C4.73851 17.5 4.51465 17.7239 4.51465 18Z" fill="#1CB561"/>
<path d="M21.0146 19.5L25.1496 19.5C25.1496 20.605 26.2096 21.5 27.5146 21.5L27.5146 26.5C26.2096 26.5 25.1496 27.395 25.1496 28.5L8.87965 28.5C8.87965 27.395 7.81965 26.5 6.51465 26.5L6.51465 21.5C7.81965 21.5 8.87965 20.605 8.87965 19.5L21.0146 19.5Z" fill="#69D193"/>
<path d="M13.0146 24C13.0146 26.4853 14.8055 28.5 17.0146 28.5C19.2238 28.5 21.0146 26.4853 21.0146 24C21.0146 21.5147 19.2238 19.5 17.0146 19.5C14.8055 19.5 13.0146 21.5147 13.0146 24Z" fill="#86EAAE"/>
<path d="M24.0049 24L23.9399 24" stroke="#86EAAE" stroke-width="0.125" stroke-miterlimit="10" stroke-linecap="round"/>
<path d="M10.0049 24L9.93988 24" stroke="#86EAAE" stroke-width="0.125" stroke-miterlimit="10" stroke-linecap="round"/>
<path d="M9.01465 5C9.01465 6.933 10.5817 8.5 12.5146 8.5C14.4476 8.5 16.0146 6.933 16.0146 5C16.0146 3.067 14.4476 1.5 12.5146 1.5C10.5817 1.5 9.01465 3.067 9.01465 5Z" fill="#FCD017"/>
<path d="M12.5146 3.5L12.5146 6.5" stroke="#F9E073" stroke-width="0.125" stroke-miterlimit="10" stroke-linecap="round"/>
<path d="M19.5747 5.93994L17.4547 8.05994" stroke="#F9E073" stroke-width="0.125" stroke-miterlimit="10" stroke-linecap="round"/>
<path d="M9.07471 10.0599L6.95471 7.93994" stroke="#F9E073" stroke-width="0.125" stroke-miterlimit="10" stroke-linecap="round"/>
<path d="M18.0146 23C18.0146 22.8022 17.956 22.6089 17.8461 22.4444C17.7362 22.28 17.5801 22.1518 17.3973 22.0761C17.2146 22.0004 17.0135 21.9806 16.8196 22.0192C16.6256 22.0578 16.4474 22.153 16.3075 22.2929C16.1677 22.4327 16.0724 22.6109 16.0339 22.8049C15.9953 22.9989 16.0151 23.2 16.0908 23.3827C16.1665 23.5654 16.2946 23.7216 16.4591 23.8315C16.6235 23.9414 16.8169 24 17.0146 24C17.2124 24 17.4058 24.0586 17.5702 24.1685C17.7347 24.2784 17.8628 24.4346 17.9385 24.6173C18.0142 24.8 18.034 25.0011 17.9954 25.1951C17.9568 25.3891 17.8616 25.5673 17.7218 25.7071C17.5819 25.847 17.4037 25.9422 17.2097 25.9808C17.0158 26.0194 16.8147 25.9996 16.632 25.9239C16.4492 25.8482 16.2931 25.72 16.1832 25.5556C16.0733 25.3911 16.0146 25.1978 16.0146 25" stroke="#1CB561" stroke-width="0.125" stroke-miterlimit="10" stroke-linecap="round"/>
<path d="M17.0146 27L17.0146 26" stroke="#1CB561" stroke-width="0.125" stroke-miterlimit="10" stroke-linecap="round"/>
<path d="M17.0146 22L17.0146 21" stroke="#1CB561" stroke-width="0.125" stroke-miterlimit="10" stroke-linecap="round"/>
<path d="M30.0146 30L30.0146 18C30.0146 17.7347 29.9093 17.4804 29.7218 17.2928C29.5342 17.1053 29.2799 17 29.0146 17L28.5446 17L27.2996 11.69C27.239 11.4322 27.0786 11.209 26.8537 11.0694C26.6287 10.9297 26.3575 10.885 26.0996 10.945L2.73465 16.445C2.4769 16.5056 2.25372 16.666 2.11406 16.8909C1.9744 17.1159 1.92966 17.3871 1.98965 17.645L3.98965 26.145C3.99896 26.1726 4.01067 26.1994 4.02465 26.225L4.02465 30C4.02465 30.2652 4.13001 30.5195 4.31754 30.7071C4.50508 30.8946 4.75943 31 5.02465 31L29.0146 31C29.2799 31 29.5342 30.8946 29.7218 30.7071C29.9093 30.5195 30.0146 30.2652 30.0146 30ZM14.1646 17C14.4524 16.8176 14.7683 16.6841 15.0996 16.605C15.9143 16.4269 16.7662 16.5683 17.4796 17L14.1646 17ZM2.95965 17.4L26.3246 11.9L27.5146 17L26.5146 17L26.0146 15.065L25.5146 15.18C25.039 15.3006 24.5361 15.2493 24.0946 15.035C23.9132 14.9505 23.7528 14.8268 23.6248 14.6729C23.4969 14.5191 23.4046 14.3387 23.3546 14.145L23.2396 13.645L18.7396 14.705C18.6278 14.7313 18.5284 14.7955 18.4583 14.8865C18.3882 14.9776 18.3516 15.0901 18.3546 15.205L18.3546 15.32C18.3694 15.384 18.3966 15.4445 18.4347 15.498C18.4729 15.5515 18.5212 15.597 18.5769 15.6318C18.6326 15.6667 18.6947 15.6902 18.7595 15.701C18.8243 15.7118 18.8906 15.7098 18.9546 15.695L22.5896 14.85C22.8246 15.3169 23.2056 15.6943 23.6746 15.925C24.1706 16.1749 24.7263 16.2822 25.2796 16.235L25.4646 17L19.0646 17C18.5467 16.4241 17.8866 15.9944 17.1504 15.754C16.4141 15.5135 15.6276 15.4708 14.8696 15.63C14.0072 15.8394 13.2345 16.3195 12.6646 17L5.01465 17C4.74943 17 4.49508 17.1053 4.30754 17.2928C4.12001 17.4804 4.01465 17.7347 4.01465 18L4.01465 21.89L2.95965 17.4ZM5.01465 30L5.01465 18L29.0146 18L29.0146 30L5.01465 30Z" fill="black"/>
<path d="M6.51465 21L6.01465 21L6.01465 27L6.51465 27C7.54465 27 8.37965 27.675 8.37965 28.5L8.37965 29L13.0146 29C13.1473 29 13.2744 28.9473 13.3682 28.8536C13.462 28.7598 13.5146 28.6326 13.5146 28.5C13.5146 28.3674 13.462 28.2402 13.3682 28.1464C13.2744 28.0527 13.1473 28 13.0146 28L9.31965 28C9.1721 27.4821 8.87441 27.0195 8.46417 26.6707C8.05393 26.3219 7.54953 26.1024 7.01465 26.04L7.01465 21.96C7.54953 21.8976 8.05393 21.6781 8.46417 21.3293C8.87441 20.9805 9.1721 20.5179 9.31965 20L13.0146 20C13.1473 20 13.2744 19.9473 13.3682 19.8536C13.462 19.7598 13.5146 19.6326 13.5146 19.5C13.5146 19.3674 13.462 19.2402 13.3682 19.1464C13.2744 19.0527 13.1473 19 13.0146 19L8.37965 19L8.37965 19.5C8.37965 20.325 7.54465 21 6.51465 21ZM20.5146 19.5C20.5146 19.6326 20.5673 19.7598 20.6611 19.8536C20.7549 19.9473 20.882 20 21.0146 20L24.7096 20C24.8572 20.5179 25.1549 20.9805 25.5651 21.3293C25.9754 21.6781 26.4798 21.8976 27.0146 21.96L27.0146 26.035C26.4791 26.0978 25.9743 26.318 25.564 26.6677C25.1537 27.0175 24.8564 27.4812 24.7096 28L21.0146 28C20.882 28 20.7549 28.0527 20.6611 28.1464C20.5673 28.2402 20.5146 28.3674 20.5146 28.5C20.5146 28.6326 20.5673 28.7598 20.6611 28.8536C20.7549 28.9473 20.882 29 21.0146 29L25.6496 29L25.6496 28.5C25.6496 27.675 26.4846 27 27.5146 27L28.0146 27L28.0146 21L27.5146 21C26.4846 21 25.6496 20.325 25.6496 19.5L25.6496 19L21.0146 19C20.882 19 20.7549 19.0527 20.6611 19.1464C20.5673 19.2402 20.5146 19.3674 20.5146 19.5Z" fill="black"/>
<path d="M12.5146 24C12.5146 26.755 14.5146 29 17.0146 29C19.5146 29 21.5146 26.755 21.5146 24C21.5146 21.245 19.5146 19 17.0146 19C14.5146 19 12.5146 21.245 12.5146 24ZM20.5146 24C20.5146 26.205 18.9446 28 17.0146 28C15.0846 28 13.5146 26.205 13.5146 24C13.5146 21.795 15.0846 20 17.0146 20C18.9446 20 20.5146 21.795 20.5146 24Z" fill="black"/>
<path d="M16.5146 21.59C16.184 21.71 15.906 21.9424 15.7293 22.2466C15.5526 22.5507 15.4884 22.9074 15.5479 23.2541C15.6075 23.6008 15.787 23.9155 16.0552 24.1432C16.3233 24.371 16.6629 24.4973 17.0146 24.5C17.1135 24.5 17.2102 24.5293 17.2924 24.5843C17.3747 24.6392 17.4387 24.7173 17.4766 24.8087C17.5144 24.9 17.5243 25.0006 17.505 25.0975C17.4857 25.1945 17.4381 25.2836 17.3682 25.3536C17.2983 25.4235 17.2092 25.4711 17.1122 25.4904C17.0152 25.5097 16.9147 25.4998 16.8233 25.4619C16.7319 25.4241 16.6539 25.36 16.5989 25.2778C16.544 25.1956 16.5146 25.0989 16.5146 25C16.5146 24.8674 16.462 24.7402 16.3682 24.6464C16.2744 24.5527 16.1473 24.5 16.0146 24.5C15.882 24.5 15.7549 24.5527 15.6611 24.6464C15.5673 24.7402 15.5146 24.8674 15.5146 25C15.5155 25.3095 15.6121 25.6111 15.7911 25.8635C15.9701 26.116 16.2229 26.3068 16.5146 26.41L16.5146 27C16.5146 27.1326 16.5673 27.2598 16.6611 27.3536C16.7549 27.4473 16.882 27.5 17.0146 27.5C17.1473 27.5 17.2744 27.4473 17.3682 27.3536C17.462 27.2598 17.5146 27.1326 17.5146 27L17.5146 26.41C17.8453 26.29 18.1233 26.0576 18.3 25.7534C18.4767 25.4493 18.5409 25.0926 18.4813 24.7459C18.4218 24.3992 18.2422 24.0845 17.9741 23.8568C17.706 23.629 17.3664 23.5027 17.0146 23.5C16.9158 23.5 16.8191 23.4707 16.7369 23.4157C16.6546 23.3608 16.5906 23.2827 16.5527 23.1913C16.5149 23.1 16.505 22.9994 16.5243 22.9025C16.5435 22.8055 16.5912 22.7164 16.6611 22.6464C16.731 22.5765 16.8201 22.5289 16.9171 22.5096C17.0141 22.4903 17.1146 22.5002 17.206 22.5381C17.2974 22.5759 17.3754 22.64 17.4304 22.7222C17.4853 22.8044 17.5146 22.9011 17.5146 23C17.5146 23.1326 17.5673 23.2598 17.6611 23.3536C17.7549 23.4473 17.882 23.5 18.0146 23.5C18.1473 23.5 18.2744 23.4473 18.3682 23.3536C18.462 23.2598 18.5146 23.1326 18.5146 23C18.5138 22.6905 18.4172 22.3889 18.2382 22.1365C18.0591 21.884 17.8064 21.6932 17.5146 21.59L17.5146 21C17.5146 20.8674 17.462 20.7402 17.3682 20.6464C17.2744 20.5527 17.1473 20.5 17.0146 20.5C16.882 20.5 16.7549 20.5527 16.6611 20.6464C16.5673 20.7402 16.5146 20.8674 16.5146 21L16.5146 21.59ZM24.0146 23.5L23.9496 23.5C23.817 23.5 23.6899 23.5527 23.5961 23.6464C23.5023 23.7402 23.4496 23.8674 23.4496 24C23.4496 24.1326 23.5023 24.2598 23.5961 24.3536C23.6899 24.4473 23.817 24.5 23.9496 24.5L24.0146 24.5C24.1473 24.5 24.2744 24.4473 24.3682 24.3536C24.462 24.2598 24.5146 24.1326 24.5146 24C24.5146 23.8674 24.462 23.7402 24.3682 23.6464C24.2744 23.5527 24.1473 23.5 24.0146 23.5ZM10.0146 23.5L9.94965 23.5C9.81704 23.5 9.68986 23.5527 9.59609 23.6464C9.50232 23.7402 9.44965 23.8674 9.44965 24C9.44965 24.1326 9.50232 24.2598 9.59609 24.3536C9.68986 24.4473 9.81704 24.5 9.94965 24.5L10.0146 24.5C10.1473 24.5 10.2744 24.4473 10.3682 24.3536C10.462 24.2598 10.5146 24.1326 10.5146 24C10.5146 23.8674 10.462 23.7402 10.3682 23.6464C10.2744 23.5527 10.1473 23.5 10.0146 23.5ZM12.5146 1C11.4538 1 10.4364 1.42143 9.68622 2.17157C8.93608 2.92172 8.51465 3.93914 8.51465 5L8.51465 5.035C7.7069 4.93327 6.88735 5.08044 6.16546 5.45685C5.44358 5.83325 4.85373 6.42097 4.47473 7.14149C4.09572 7.86202 3.94559 8.68103 4.04441 9.48914C4.14322 10.2972 4.48626 11.056 5.02772 11.6639C5.56917 12.2719 6.28324 12.7002 7.07455 12.8916C7.86587 13.0829 8.69674 13.0283 9.45617 12.7349C10.2156 12.4416 10.8674 11.9235 11.3246 11.2498C11.7818 10.5762 12.0225 9.77909 12.0146 8.965C12.9747 9.09538 13.949 8.8656 14.7496 8.32C15.0251 9.10792 15.5401 9.78995 16.2225 10.2705C16.905 10.7511 17.7207 11.0062 18.5553 11C19.39 10.9938 20.2018 10.7266 20.877 10.236C21.5522 9.74529 22.057 9.05568 22.3207 8.26376C22.5844 7.47183 22.5938 6.61725 22.3475 5.81974C22.1012 5.02223 21.6116 4.32175 20.9472 3.81642C20.2829 3.3111 19.4772 3.02625 18.6428 3.00179C17.8085 2.97733 16.9874 3.21447 16.2946 3.68C16.0207 2.89623 15.5096 2.21714 14.8322 1.73692C14.1549 1.2567 13.3449 0.999156 12.5146 1ZM10.1346 11.12C9.76695 11.4905 9.30895 11.7586 8.8059 11.8979C8.30286 12.0372 7.77217 12.0428 7.26629 11.9142C6.76041 11.7856 6.29683 11.5272 5.92136 11.1646C5.54589 10.802 5.27153 10.3478 5.12537 9.84666C4.97922 9.34557 4.96634 8.81501 5.088 8.30742C5.20966 7.79982 5.46166 7.33276 5.81909 6.95236C6.17652 6.57197 6.62701 6.29142 7.12606 6.13842C7.62511 5.98543 8.15544 5.96529 8.66465 6.08C8.83064 6.66699 9.1287 7.20824 9.53601 7.66235C9.94332 8.11646 10.4491 8.47139 11.0146 8.7C11.0568 9.1434 10.9997 9.59063 10.8475 10.0092C10.6953 10.4278 10.4518 10.8072 10.1346 11.12ZM20.6346 4.875C20.9684 5.20603 21.2196 5.61085 21.3682 6.0568C21.5167 6.50276 21.5584 6.97738 21.4898 7.4424C21.4213 7.90742 21.2444 8.34983 20.9735 8.73394C20.7025 9.11806 20.3452 9.43314 19.9301 9.65379C19.5151 9.87443 19.054 9.99446 18.5841 10.0042C18.1141 10.0139 17.6485 9.91312 17.2246 9.70986C16.8008 9.5066 16.4307 9.2066 16.1441 8.83404C15.8575 8.46148 15.6624 8.02678 15.5746 7.565C16.1793 6.84681 16.512 5.93882 16.5146 5L16.5146 4.79C17.083 4.27598 17.8264 3.99891 18.5925 4.01565C19.3587 4.03239 20.0893 4.34165 20.6346 4.88L20.6346 4.875ZM15.5146 5C15.5146 5.59335 15.3387 6.17336 15.0091 6.66671C14.6794 7.16006 14.2109 7.54458 13.6627 7.77164C13.1145 7.9987 12.5113 8.05811 11.9294 7.94236C11.3474 7.8266 10.8129 7.54088 10.3933 7.12132C9.97377 6.70176 9.68805 6.16721 9.57229 5.58527C9.45654 5.00333 9.51595 4.40013 9.74301 3.85195C9.97007 3.30377 10.3546 2.83524 10.8479 2.50559C11.3413 2.17595 11.9213 2 12.5146 2C13.3103 2 14.0734 2.31607 14.636 2.87868C15.1986 3.44129 15.5146 4.20435 15.5146 5Z" fill="black"/>
<path d="M12.0147 3.5L12.0147 6.5C12.0147 6.63261 12.0674 6.75978 12.1611 6.85355C12.2549 6.94732 12.3821 7 12.5147 7C12.6473 7 12.7745 6.94732 12.8682 6.85355C12.962 6.75978 13.0147 6.63261 13.0147 6.5L13.0147 3.5C13.0147 3.36739 12.962 3.24021 12.8682 3.14645C12.7745 3.05268 12.6473 3 12.5147 3C12.3821 3 12.2549 3.05268 12.1611 3.14645C12.0674 3.24021 12.0147 3.36739 12.0147 3.5ZM17.0997 7.705C17.0178 7.80065 16.975 7.92369 16.9798 8.04953C16.9847 8.17536 17.0369 8.29473 17.1259 8.38378C17.215 8.47283 17.3343 8.52499 17.4602 8.52986C17.586 8.53472 17.709 8.49191 17.8047 8.41L19.9247 6.29C20.0066 6.19435 20.0494 6.07131 20.0445 5.94547C20.0397 5.81963 19.9875 5.70027 19.8985 5.61122C19.8094 5.52217 19.6901 5.47 19.5642 5.46514C19.4384 5.46028 19.3153 5.50309 19.2197 5.585L17.0997 7.705ZM6.59969 7.585C6.50657 7.67868 6.4543 7.80541 6.4543 7.9375C6.4543 8.06959 6.50657 8.19632 6.59969 8.29L8.71969 10.41C8.76452 10.4623 8.81968 10.5048 8.88171 10.5349C8.94374 10.5649 9.01131 10.5817 9.08017 10.5844C9.14903 10.5871 9.21769 10.5755 9.28186 10.5503C9.34602 10.5252 9.40429 10.4871 9.45302 10.4383C9.50175 10.3896 9.53988 10.3313 9.56501 10.2672C9.59015 10.203 9.60175 10.1343 9.59909 10.0655C9.59643 9.99661 9.57957 9.92905 9.54956 9.86701C9.51954 9.80498 9.47703 9.74982 9.42469 9.705L7.30469 7.585C7.21101 7.49187 7.08429 7.4396 6.95219 7.4396C6.8201 7.4396 6.69337 7.49187 6.59969 7.585Z" fill="black"/>
</svg>
