<svg width="34" height="34" viewBox="0 0 34 34" fill="none" xmlns="http://www.w3.org/2000/svg">
<circle cx="16.8516" cy="17.1074" r="16.6689" fill="white"/>
<circle cx="16.8515" cy="17.1074" r="14.3891" fill="#E8B732"/>
<path d="M20.6191 12.5743C20.5583 12.6983 20.4691 12.7687 20.3515 12.7854C20.2861 12.7946 20.1853 12.7739 20.0492 12.7233C19.6549 12.5761 19.2481 12.4653 18.829 12.391C18.772 12.382 18.7105 12.3726 18.6448 12.3627C16.6058 12.054 14.5482 12.6146 12.9795 13.9421C12.9774 13.9438 12.976 13.946 12.9752 13.9485C12.9745 13.951 12.9745 13.9537 12.9752 13.9562C12.9759 13.9587 12.9774 13.961 12.9794 13.9626C12.9814 13.9643 12.9838 13.9654 12.9864 13.9657C13.0753 13.9759 13.1618 14 13.2502 14.0079C14.314 14.1018 15.5874 14.1944 16.3975 15.0086C16.811 15.424 17.0691 15.9133 17.1719 16.4765C17.4381 17.9355 16.5025 19.3733 15.0384 19.6751C14.1932 19.8494 13.4124 19.661 12.6962 19.1099C12.6125 19.0454 12.5604 18.9886 12.5397 18.9395C12.4709 18.775 12.496 18.6336 12.6152 18.5151C12.7796 18.3941 12.9304 18.3916 13.0674 18.5077C13.4803 18.8567 13.9248 19.0346 14.401 19.0414C14.7195 19.0457 15.0119 18.9898 15.2782 18.8738C16.3924 18.3887 16.8511 17.0574 16.2748 15.9932C15.9336 15.3628 15.3726 15.0457 14.6885 14.898C14.3188 14.8181 13.9489 14.7652 13.5789 14.7392C12.829 14.6869 12.2175 14.5198 11.5931 14.0694C11.5783 14.0589 11.5653 14.0608 11.5542 14.075L11.0103 14.7485C10.9992 14.7624 11.0003 14.7752 11.0135 14.7869C11.4891 15.21 11.8174 15.7207 11.9986 16.3191C12.0804 16.5894 12.1766 16.871 12.2874 17.1639C12.3721 17.3888 12.3578 17.5842 12.1296 17.7055C11.9055 17.7703 11.7511 17.696 11.6662 17.4828C11.582 17.2714 11.5175 17.0935 11.4727 16.9491C11.4021 16.7204 11.319 16.4728 11.2237 16.2061C11.2129 16.1762 11.2002 16.1754 11.1857 16.2038C10.9845 16.6016 10.8298 16.9943 10.7215 17.3819C10.6585 17.6062 10.5886 17.7885 10.5118 17.9286C10.2002 18.4965 9.67253 18.7669 9.04114 18.8358C8.78717 18.8633 8.52749 18.896 8.26209 18.934C8.10286 18.9567 7.99037 19.0877 7.99176 19.2483C7.99392 19.5038 7.99253 19.8011 7.9876 20.1403C7.98636 20.2282 7.99531 20.3001 8.01444 20.356C8.09777 20.5985 8.32597 20.5592 8.59723 20.5597C11.5261 20.56 14.4555 20.56 17.3853 20.5597C17.3889 20.5597 17.3923 20.5584 17.395 20.5561C17.3976 20.5538 17.3993 20.5506 17.3996 20.5472C17.5126 19.68 17.882 18.9695 18.5078 18.4155C20.5552 16.6024 23.701 17.8596 24.0422 20.5282C24.0443 20.5439 24.0533 20.5519 24.069 20.5523L24.6333 20.5569C24.8607 20.5609 25.0828 20.5624 25.2994 20.5615C25.6692 20.5592 25.8275 20.3199 25.8174 19.9709C25.8118 19.7829 25.8115 19.5904 25.8164 19.3932C25.8217 19.1966 25.7581 19.0488 25.6257 18.9497C25.5132 18.8659 25.3721 18.8581 25.2462 18.8044C24.9212 18.6658 24.7023 18.4341 24.5893 18.1091C24.5189 17.9064 24.4879 17.6786 24.4268 17.4717C23.9442 15.8263 23.0085 14.5184 21.6198 13.5482C21.418 13.407 21.3268 13.251 21.4495 13.0122C21.6097 12.8178 21.8059 12.821 21.9976 12.958C22.4824 13.3046 22.8956 13.6587 23.2372 14.0204C23.239 14.0222 23.2412 14.0237 23.2436 14.0247C23.246 14.0257 23.2486 14.0262 23.2512 14.0262C23.2538 14.0261 23.2564 14.0256 23.2587 14.0245C23.2611 14.0234 23.2632 14.0218 23.265 14.0199C23.9602 13.2446 25.1582 13.3612 25.735 14.2037C25.7386 14.2091 25.7434 14.2137 25.749 14.2173C25.7545 14.2209 25.7608 14.2233 25.7674 14.2245C26.7293 14.4069 27.3866 15.0443 27.5727 16.0057C27.5757 16.0221 27.5836 16.0355 27.5963 16.046C28.2585 16.5913 28.627 17.2973 28.7017 18.1642V18.509C28.6332 19.3268 28.298 20.0031 27.6963 20.5379C27.6787 20.5536 27.6816 20.5614 27.705 20.561C27.8754 20.5583 28.0633 20.5425 28.2267 20.6055C28.4853 20.7049 28.6436 20.9019 28.7017 21.1966V22.1178C28.6051 22.5387 28.3389 22.7493 27.9032 22.7496C27.3316 22.7496 26.7617 22.7505 26.1932 22.7524C26.1889 22.7524 26.1848 22.7541 26.1818 22.7573C26.1787 22.7604 26.177 22.7646 26.177 22.769C26.1812 22.969 26.177 23.1782 26.1113 23.3639C25.9635 23.7805 25.6797 24.0564 25.26 24.1915C25.1338 24.2323 24.9379 24.2519 24.6722 24.2503C23.7732 24.2454 22.8075 24.2448 21.7749 24.2485C21.5601 24.2494 21.4148 24.1225 21.3912 23.899C21.4183 23.6672 21.5405 23.5513 21.7578 23.5513C22.6481 23.5526 23.612 23.553 24.6495 23.5527C24.8859 23.5527 25.0409 23.5371 25.1147 23.506C25.4299 23.3713 25.5017 23.0903 25.4827 22.7746C25.4818 22.7595 25.4737 22.7519 25.4586 22.7519H8.24358C8.23093 22.7519 8.22398 22.7582 8.22275 22.7709C8.18201 23.1963 8.38245 23.5523 8.84765 23.5523C12.5709 23.5523 16.3236 23.5524 20.1057 23.5527C20.3029 23.5527 20.4362 23.7013 20.4538 23.899C20.4344 24.0911 20.3048 24.2466 20.1113 24.2461C16.4174 24.2437 12.7594 24.2451 9.13743 24.2503C8.78717 24.2509 8.55449 24.2316 8.43938 24.1924C7.94779 24.0263 7.58766 23.6245 7.53535 23.1033C7.52455 22.9949 7.52177 22.8838 7.52702 22.77C7.52708 22.7681 7.52677 22.7662 7.5261 22.7644C7.52544 22.7627 7.52443 22.7611 7.52314 22.7597C7.52185 22.7583 7.52031 22.7572 7.51859 22.7564C7.51687 22.7557 7.51501 22.7552 7.51313 22.7552C7.0524 22.7471 6.56543 22.7478 6.05224 22.757C5.76524 22.7623 5.55879 22.7385 5.43288 22.6857C5.20699 22.591 5.06318 22.4001 5.00146 22.1131V21.1887C5.04251 20.9795 5.14897 20.8075 5.32086 20.6726C5.33321 20.6633 5.33475 20.6525 5.32549 20.6402C5.14157 20.3955 5.03356 20.1185 5.00146 19.8093V19.5927C5.05238 19.0767 5.28769 18.6715 5.70738 18.3771C5.72003 18.3685 5.72775 18.3566 5.73052 18.3415C5.88914 17.5055 6.36268 16.9361 7.15115 16.6334C7.2499 16.5954 7.36593 16.5675 7.49924 16.5496C7.51974 16.547 7.53862 16.5364 7.55201 16.52C8.3144 15.5752 9.50821 15.2091 10.6807 15.5391C10.7736 15.5653 10.7873 15.543 10.7219 15.472C10.6525 15.397 10.5793 15.3282 10.5025 15.2655C10.1192 14.9526 9.74166 14.6473 9.3698 14.3495C9.35591 14.3384 9.34156 14.3376 9.32675 14.3472C8.94255 14.5987 8.54029 14.6568 8.11998 14.5217C7.65385 14.3717 7.29927 13.9588 7.21734 13.4732C7.0993 12.778 7.50665 12.1373 8.17924 11.9364C8.19652 11.9312 8.20577 11.9198 8.20701 11.9022C8.23694 11.551 8.37072 11.2586 8.60834 11.025C9.05087 10.5903 9.74798 10.5005 10.2674 10.8338C10.8298 11.1953 11.0742 11.8767 10.8057 12.5123C10.7989 12.5286 10.8023 12.5423 10.8159 12.5535C11.1763 12.8454 11.5419 13.1401 11.9125 13.4376C12.0115 13.5172 12.1145 13.5894 12.2212 13.6542C12.2333 13.6616 12.2444 13.6605 12.2546 13.651C13.5655 12.4629 15.0912 11.7846 16.8317 11.6161C17.9867 11.5041 19.1528 11.6591 20.3298 12.0813C20.5621 12.1646 20.6917 12.3141 20.6191 12.5743ZM10.1354 12.896C9.991 12.7784 9.94981 12.5817 10.0572 12.4229C10.116 12.3359 10.1729 12.2526 10.1965 12.1493C10.2533 11.9019 10.1917 11.6885 10.0118 11.5092C9.83408 11.3323 9.53922 11.2777 9.31703 11.3768C8.98961 11.5227 8.85768 11.7804 8.92125 12.1498C8.96292 12.3891 8.80738 12.5872 8.55835 12.5817C8.28709 12.5757 8.04268 12.7358 7.94131 12.9881C7.6969 13.5954 8.35328 14.1203 8.90505 13.7912C8.96708 13.7542 9.01985 13.6968 9.06892 13.6436C9.21149 13.4899 9.41285 13.4894 9.5707 13.6176C9.87559 13.8648 10.166 14.0995 10.4419 14.3217C10.4452 14.3243 10.4494 14.3255 10.4536 14.3251C10.4577 14.3246 10.4615 14.3226 10.4641 14.3194L11.0135 13.6389C11.025 13.6251 11.0236 13.6124 11.0094 13.601C10.7242 13.3732 10.4329 13.1382 10.1354 12.896ZM27.7736 19.3182C28.2554 18.3206 27.968 17.1903 27.0806 16.5292C27.0014 16.47 26.9223 16.3936 26.9112 16.2895C26.8473 15.6695 26.5409 15.2409 25.9919 15.0035C25.8322 14.9341 25.6591 14.917 25.4873 14.8943C25.2749 14.8665 25.2346 14.6994 25.13 14.5545C24.7791 14.0694 24.1028 14.0824 23.7288 14.5439C23.7235 14.5503 23.7206 14.5584 23.7205 14.5667C23.7204 14.5751 23.7232 14.5832 23.7283 14.5897C24.4708 15.5414 24.969 16.6172 25.223 17.817C25.2596 17.9887 25.3846 18.135 25.5591 18.1795C26.2039 18.3424 26.5177 18.796 26.5126 19.4501C26.5099 19.7764 26.5418 20.1208 26.4603 20.4245C26.4535 20.4492 26.4622 20.4571 26.4862 20.4481C27.0902 20.2207 27.5193 19.844 27.7736 19.3182ZM7.29742 19.2557C7.29835 18.8831 7.4835 18.5544 7.8029 18.3688C7.92449 18.2984 8.08851 18.2507 8.29496 18.2258C8.52579 18.198 8.74073 18.1725 8.93977 18.1494C9.32953 18.1035 9.6355 17.9971 9.85445 17.6726C9.93067 17.56 10.0023 17.3817 10.0692 17.138C10.1458 16.8602 10.2603 16.5515 10.4127 16.2117C10.4142 16.2082 10.415 16.2045 10.4149 16.2007C10.4147 16.1969 10.4138 16.1932 10.4121 16.1898C10.4103 16.1864 10.4079 16.1835 10.4049 16.1812C10.4018 16.1789 10.3984 16.1773 10.3946 16.1765C9.55249 15.9951 8.82991 16.2026 8.22691 16.7991C8.08573 16.9384 7.98991 17.1842 7.76818 17.2092C7.11736 17.283 6.68362 17.6245 6.46699 18.2336C6.42116 18.3623 6.41792 18.5072 6.39524 18.6419C6.37858 18.7419 6.32935 18.8162 6.24758 18.865C5.96197 19.0349 5.77172 19.1964 5.70923 19.5584C5.64211 19.9454 5.86476 20.3361 6.22767 20.4893C6.34741 20.5399 6.48674 20.564 6.64567 20.5615C6.86631 20.5581 7.08866 20.5577 7.3127 20.5601C7.33245 20.5604 7.34016 20.551 7.33584 20.5319C7.31054 20.4186 7.29758 20.3061 7.29696 20.1944C7.29603 19.892 7.29619 19.5791 7.29742 19.2557ZM22.2869 18.778C20.6954 17.5916 18.3731 18.5683 18.1079 20.5296C18.1054 20.549 18.114 20.5587 18.1338 20.5587L18.898 20.5597C18.9021 20.5596 18.906 20.5582 18.9092 20.5556C18.9123 20.5529 18.9144 20.5493 18.9151 20.5453C19.0897 19.7607 19.7081 19.1659 20.5094 19.0775C21.4685 18.9719 22.3183 19.5913 22.5271 20.5333C22.5308 20.5502 22.5413 20.5587 22.5586 20.5587L23.3293 20.5597C23.3417 20.5597 23.3469 20.5535 23.345 20.5411C23.2256 19.8027 22.8729 19.215 22.2869 18.778ZM21.8059 20.5111C21.3685 19.4978 20.0571 19.5094 19.6345 20.5286C19.6262 20.5484 19.6328 20.5583 19.6544 20.5583H21.7749C21.8095 20.5583 21.8198 20.5425 21.8059 20.5111ZM27.0482 22.0576L27.9763 22.0562C27.9845 22.0562 27.9924 22.0529 27.9982 22.0471C28.0041 22.0413 28.0073 22.0334 28.0073 22.0252V21.2822C28.0073 21.2749 28.0044 21.2678 27.9992 21.2626C27.994 21.2574 27.9869 21.2545 27.9795 21.2545L27.0459 21.254H5.72404C5.71655 21.254 5.70937 21.257 5.70408 21.2623C5.69878 21.2676 5.69581 21.2747 5.69581 21.2822V22.0252C5.69581 22.0337 5.69917 22.0418 5.70516 22.0478C5.71115 22.0538 5.71928 22.0571 5.72775 22.0571L27.0482 22.0576Z" fill="black"/>
<path d="M17.0601 9.53689C16.9972 9.67113 17.0356 9.81231 16.9787 9.94377C16.9055 10.1118 16.7051 10.1947 16.5352 10.1229C16.1357 9.95396 16.3672 9.29572 16.5394 9.03697C16.6773 8.83005 16.731 8.60555 16.6625 8.36947C16.6107 8.19033 16.4755 8.0436 16.4102 7.86631C16.2846 7.525 16.2837 7.18292 16.4075 6.84007C16.4912 6.60863 16.6926 6.42717 16.6875 6.16518C16.6806 5.7944 17.1217 5.62729 17.3277 5.93604C17.4587 6.13324 17.3439 6.55215 17.2495 6.73592C17.1657 6.8984 17.0449 7.04699 17.0199 7.23446C16.9801 7.53256 17.0893 7.67143 17.2249 7.91491C17.4402 8.30097 17.4467 8.87542 17.2092 9.26147C17.1527 9.35312 17.103 9.44493 17.0601 9.53689Z" fill="black"/>
<path d="M14.739 7.82359C14.621 7.96478 14.6761 8.12216 14.789 8.24112C15.1607 8.63134 15.1163 9.22014 14.7589 9.59786C14.6923 9.66822 14.6728 9.74923 14.6682 9.8432C14.658 10.0552 14.4391 10.1756 14.2521 10.139C14.072 10.1038 13.972 9.94179 13.9803 9.76219C13.9933 9.46779 14.116 9.2831 14.2937 9.07017C14.3858 8.96 14.3664 8.81048 14.2747 8.70402C13.9859 8.36935 13.8836 7.99949 14.0739 7.58058C14.134 7.44773 14.2437 7.34543 14.3215 7.22368C14.3696 7.14823 14.3423 7.0538 14.3789 6.9728C14.5608 6.56962 15.0978 6.75014 15.0441 7.19637C15.0117 7.463 14.9015 7.62964 14.739 7.82359Z" fill="black"/>
<path d="M18.7508 7.58612C18.8221 7.43244 19.0383 7.2658 19.0323 7.09685C19.0258 6.91354 19.1948 6.77189 19.3632 6.76403C19.5614 6.75523 19.7215 6.91169 19.7225 7.11073C19.7234 7.39634 19.6077 7.61343 19.4239 7.8185C19.2077 8.05966 19.4952 8.23834 19.5961 8.42304C19.8326 8.85677 19.7289 9.28217 19.41 9.63119C19.3725 9.67238 19.3545 9.73256 19.3507 9.78811C19.3308 10.1061 18.998 10.2737 18.7587 10.0473C18.5777 9.87559 18.668 9.51732 18.7768 9.33494C18.8274 9.24945 18.8879 9.16706 18.9582 9.08775C19.1748 8.84334 18.8504 8.63689 18.7573 8.44016C18.6222 8.15471 18.62 7.87003 18.7508 7.58612Z" fill="black"/>
<path d="M18.8289 12.3904C18.8792 12.441 18.9407 12.4791 19.0136 12.5047C19.1265 12.5451 19.1836 12.5656 19.1848 12.5663C21.3938 13.5573 22.9746 15.5121 23.4814 17.8863C23.5342 18.1341 23.6723 18.3206 23.8957 18.4459C24.0489 18.5316 24.2248 18.5371 24.3748 18.6339C24.5245 18.7305 24.6328 18.8596 24.6998 19.0213C24.7411 19.1216 24.7612 19.2815 24.7599 19.5009C24.7587 19.7419 24.757 19.9773 24.7548 20.2072C24.7542 20.2643 24.7136 20.3807 24.6331 20.5563L24.0688 20.5516C24.0531 20.5513 24.0441 20.5433 24.042 20.5276C23.7008 17.859 20.555 16.6018 18.5076 18.4149C17.8818 18.9688 17.5124 19.6794 17.3994 20.5465C17.3991 20.55 17.3974 20.5532 17.3948 20.5555C17.3921 20.5578 17.3887 20.5591 17.3851 20.559C14.4553 20.5593 11.5259 20.5593 8.59705 20.559C8.32579 20.5586 8.09759 20.5979 8.01426 20.3554C7.99513 20.2995 7.98618 20.2276 7.98742 20.1397C7.99235 19.8005 7.99374 19.5032 7.99158 19.2477C7.99019 19.087 8.10268 18.956 8.26191 18.9334C8.52731 18.8954 8.78699 18.8627 9.04096 18.8352C9.67235 18.7663 10.2001 18.4959 10.5116 17.928C10.5884 17.7879 10.6583 17.6056 10.7213 17.3813C10.8296 16.9937 10.9844 16.601 11.1856 16.2032C11.2001 16.1748 11.2127 16.1756 11.2235 16.2055C11.3189 16.4722 11.4019 16.7198 11.4725 16.9485C11.5173 17.0929 11.5818 17.2708 11.666 17.4822C11.7509 17.6954 11.9054 17.7696 12.1294 17.7048C12.2504 18.007 12.4122 18.2768 12.615 18.5144C12.4959 18.6329 12.4707 18.7744 12.5395 18.9389C12.5602 18.988 12.6123 19.0448 12.696 19.1093C13.4122 19.6604 14.193 19.8488 15.0382 19.6745C16.5024 19.3726 17.4379 17.9349 17.1717 16.4759C17.0689 15.9127 16.8108 15.4234 16.3973 15.008C15.5872 14.1938 14.3138 14.1012 13.2501 14.0072C13.1617 13.9994 13.0751 13.9753 12.9862 13.9651C12.9836 13.9648 12.9812 13.9637 12.9792 13.962C12.9772 13.9603 12.9758 13.9581 12.975 13.9556C12.9743 13.9531 12.9743 13.9504 12.975 13.9479C12.9758 13.9454 12.9773 13.9432 12.9793 13.9415C14.548 12.6139 16.6056 12.0534 18.6446 12.3621C18.7104 12.372 18.7718 12.3814 18.8289 12.3904Z" fill="#EA9B58"/>
<path d="M18.8286 12.3901C19.2477 12.4645 19.6544 12.5753 20.0488 12.7225C20.1849 12.7731 20.2857 12.7938 20.3511 12.7845C20.4686 12.7679 20.5578 12.6975 20.6186 12.5734L21.4491 13.0113C21.3264 13.2502 21.4176 13.4062 21.6194 13.5474C23.0081 14.5176 23.9438 15.8254 24.4264 17.4709C24.4875 17.6778 24.5185 17.9055 24.5889 18.1083C24.7018 18.4332 24.9208 18.665 25.2457 18.8035C25.3716 18.8572 25.5128 18.8651 25.6253 18.9489C25.7577 19.0479 25.8213 19.1958 25.816 19.3923C25.8111 19.5895 25.8114 19.7821 25.8169 19.97C25.8271 20.319 25.6688 20.5584 25.299 20.5607C25.0823 20.5616 24.8603 20.5601 24.6328 20.556C24.7134 20.3804 24.754 20.2641 24.7546 20.207C24.7567 19.9771 24.7584 19.7417 24.7597 19.5006C24.7609 19.2812 24.7409 19.1214 24.6995 19.0211C24.6325 18.8594 24.5242 18.7302 24.3746 18.6336C24.2246 18.5369 24.0487 18.5313 23.8955 18.4457C23.672 18.3204 23.5339 18.1339 23.4812 17.8861C22.9743 15.5119 21.3935 13.5571 19.1846 12.566C19.1833 12.5654 19.1263 12.5449 19.0133 12.5045C18.9405 12.4789 18.8789 12.4407 18.8286 12.3901Z" fill="#D88A55"/>
<path d="M12.6149 18.5143C12.4121 18.2767 12.2503 18.0068 12.1293 17.7047C12.3575 17.5835 12.3719 17.3881 12.2872 17.1631C12.1764 16.8703 12.0801 16.5887 11.9983 16.3184C11.8172 15.72 11.4888 15.2093 11.0133 14.7862C11 14.7745 10.9989 14.7617 11.01 14.7478L11.5539 14.0743C11.565 14.0601 11.578 14.0582 11.5928 14.0687C12.2173 14.5191 12.8287 14.6862 13.5786 14.7385C13.9486 14.7644 14.3185 14.8174 14.6882 14.8973C15.3724 15.0449 15.9334 15.362 16.2745 15.9925C16.8508 17.0567 16.3921 18.388 15.2779 18.8731C15.0116 18.9891 14.7192 19.045 14.4007 19.0406C13.9246 19.0339 13.48 18.8559 13.0671 18.5069C12.9301 18.3909 12.7794 18.3934 12.6149 18.5143Z" fill="#D88A55"/>
<path d="M21.3913 23.8985H20.454C20.4364 23.7009 20.3031 23.5523 20.1059 23.5523C16.3237 23.552 12.571 23.5518 8.84783 23.5518C8.38262 23.5518 8.18218 23.1958 8.22292 22.7704C8.22415 22.7578 8.2311 22.7515 8.24375 22.7515H25.4588C25.4739 22.7515 25.4819 22.759 25.4829 22.7741C25.5018 23.0898 25.4301 23.3708 25.1149 23.5055C25.0411 23.5367 24.886 23.5523 24.6497 23.5523C23.6122 23.5526 22.6483 23.5521 21.758 23.5509C21.5407 23.5509 21.4185 23.6668 21.3913 23.8985Z" fill="#C8EFFE"/>
<path d="M10.0567 12.4228C9.94927 12.5815 9.99046 12.7783 10.1349 12.8959C10.4324 13.1381 10.7237 13.3731 11.0088 13.6008C11.023 13.6123 11.0244 13.6249 11.013 13.6388L10.4635 14.3192C10.461 14.3225 10.4572 14.3245 10.453 14.3249C10.4489 14.3254 10.4447 14.3241 10.4413 14.3216C10.1654 14.0994 9.87505 13.8647 9.57016 13.6175C9.41231 13.4893 9.21095 13.4897 9.06838 13.6434C9.01931 13.6967 8.96654 13.7541 8.90451 13.7911C8.35274 14.1202 7.69636 13.5953 7.94077 12.988C8.04214 12.7357 8.28655 12.5755 8.55781 12.5815C8.80684 12.5871 8.96238 12.389 8.92072 12.1497C8.85714 11.7803 8.98907 11.5226 9.31649 11.3766C9.53868 11.2776 9.83354 11.3322 10.0113 11.509C10.1912 11.6883 10.2528 11.9017 10.196 12.1492C10.1724 12.2524 10.1154 12.3358 10.0567 12.4228Z" fill="#FFE5C2"/>
<path d="M27.7738 19.3178C27.5195 19.8436 27.0904 20.2203 26.4865 20.4477C26.4624 20.4567 26.4538 20.4488 26.4605 20.4241C26.542 20.1204 26.5101 19.7761 26.5129 19.4497C26.5179 18.7956 26.2041 18.342 25.5593 18.1791C25.3848 18.1346 25.2598 17.9884 25.2232 17.8166C24.9693 16.6168 24.471 15.541 23.7285 14.5893C23.7234 14.5828 23.7206 14.5747 23.7207 14.5663C23.7208 14.558 23.7237 14.5499 23.729 14.5435C24.103 14.082 24.7793 14.069 25.1302 14.5542C25.2348 14.699 25.2751 14.8661 25.4875 14.8939C25.6593 14.9166 25.8324 14.9337 25.9921 15.0032C26.5411 15.2405 26.8475 15.6691 26.9114 16.2891C26.9225 16.3932 27.0017 16.4696 27.0808 16.5289C27.9682 17.1899 28.2557 18.3203 27.7738 19.3178Z" fill="#05E39C"/>
<path d="M7.80284 18.3685C7.48344 18.5542 7.29829 18.8828 7.29736 19.2554C7.29613 19.5789 7.29597 19.8918 7.2969 20.1942C7.29751 20.3059 7.31048 20.4184 7.33578 20.5316C7.3401 20.5508 7.33239 20.5602 7.31264 20.5599C7.08859 20.5574 6.86625 20.5579 6.6456 20.5613C6.48668 20.5637 6.34735 20.5397 6.22761 20.4891C5.8647 20.3358 5.64205 19.9452 5.70917 19.5582C5.77166 19.1962 5.96191 19.0346 6.24752 18.8648C6.32929 18.816 6.37851 18.7416 6.39518 18.6416C6.41786 18.5069 6.4211 18.3621 6.46693 18.2334C6.68356 17.6242 7.11729 17.2827 7.76812 17.209C7.98985 17.184 8.08567 16.9382 8.22685 16.7989C8.82985 16.2024 9.55243 15.9948 10.3946 16.1763C10.3983 16.1771 10.4018 16.1787 10.4048 16.181C10.4078 16.1833 10.4103 16.1862 10.412 16.1896C10.4137 16.1929 10.4147 16.1967 10.4148 16.2004C10.4149 16.2042 10.4142 16.208 10.4126 16.2115C10.2602 16.5512 10.1457 16.86 10.0692 17.1377C10.0022 17.3815 9.93061 17.5597 9.85439 17.6723C9.63544 17.9968 9.32947 18.1033 8.93971 18.1491C8.74067 18.1723 8.52573 18.1977 8.2949 18.2255C8.08845 18.2505 7.92443 18.2982 7.80284 18.3685Z" fill="#05E39C"/>
<path d="M18.1078 20.5293C18.3731 18.5681 20.6954 17.5914 22.2868 18.7778C22.8729 19.2147 23.2256 19.8024 23.345 20.5409C23.3469 20.5533 23.3416 20.5594 23.3293 20.5594L22.5586 20.5585C22.5413 20.5585 22.5308 20.55 22.5271 20.5331C22.3183 19.5911 21.4684 18.9717 20.5093 19.0773C19.7081 19.1657 19.0896 19.7605 18.9151 20.5451C18.9144 20.5491 18.9123 20.5527 18.9091 20.5553C18.906 20.5579 18.9021 20.5594 18.898 20.5594L18.1338 20.5585C18.114 20.5585 18.1054 20.5488 18.1078 20.5293Z" fill="#FE5694"/>
<path d="M21.8058 20.5108C21.8197 20.5423 21.8093 20.558 21.7748 20.558H19.6542C19.6326 20.558 19.626 20.5481 19.6343 20.5284C20.057 19.5091 21.3683 19.4975 21.8058 20.5108Z" fill="#FE5694"/>
<path d="M27.0459 21.2539L27.0482 22.0575L5.72774 22.057C5.71927 22.057 5.71115 22.0537 5.70516 22.0477C5.69917 22.0417 5.6958 22.0336 5.6958 22.0251V21.2821C5.6958 21.2747 5.69878 21.2675 5.70407 21.2622C5.70937 21.2569 5.71655 21.2539 5.72404 21.2539H27.0459Z" fill="#DFF6FD"/>
<path d="M27.0459 21.2539L27.9796 21.2544C27.9869 21.2544 27.994 21.2573 27.9992 21.2625C28.0044 21.2677 28.0073 21.2748 28.0073 21.2821V22.0251C28.0073 22.0333 28.0041 22.0412 27.9982 22.047C27.9924 22.0528 27.9845 22.0561 27.9763 22.0561L27.0482 22.0575L27.0459 21.2539Z" fill="#C8EFFE"/>
</svg>
