<svg xmlns="http://www.w3.og/2000/svg">
  <defs>
    <symbol id="map" viewBox="0 0 32 32">
      <circle cx="16.8516" cy="16.5142" r="16" fill="white"/>
      <circle cx="16.8515" cy="16.5141" r="14.3891" fill="#AC7DE8"/>
      <path d="M17.4871 5.83744C17.8201 6.01182 18.1012 6.19138 18.3304 6.37611C19.4797 7.3009 20.0481 8.70748 19.8801 10.1813C19.7461 11.3556 19.1919 12.5049 18.5041 13.4723C17.9223 14.2905 17.2641 15.044 16.5295 15.7326C15.8423 15.1089 15.2146 14.4322 14.6463 13.7025C14.1818 13.106 13.7973 12.4711 13.4927 11.7977C12.9213 10.5346 12.7718 9.11816 13.4376 7.86241C14.1921 6.44032 15.7034 5.62542 17.3255 5.80943C17.3918 5.81719 17.4457 5.82652 17.4871 5.83744ZM16.5507 8.00893C16.4115 8.0559 16.271 8.08994 16.1443 8.15588C16.071 8.19351 15.9979 8.2333 15.9249 8.27525C15.7385 8.11436 15.5641 8.12629 15.4018 8.31101C15.0507 8.71006 14.8762 9.16154 14.8782 9.66545C14.8838 11.1005 16.3645 12.0679 17.6788 11.4857C18.2576 11.2293 18.6941 10.6967 18.8243 10.0852C18.9751 9.37887 18.7402 8.66137 18.1994 8.17182C17.8728 7.87591 17.467 7.70684 16.982 7.66461C16.7364 7.64306 16.5632 7.74089 16.5507 8.00893Z" fill="#FF4A4A"/>
      <path d="M17.4868 5.8374C17.7971 5.87877 18.0914 5.96022 18.3698 6.08174C19.1831 6.43655 19.8051 6.9857 20.2358 7.72921C21.3976 9.73565 20.3952 12.0218 19.1274 13.6645C18.4626 14.5255 17.7139 15.3125 16.8814 16.0256C16.879 16.0277 16.8759 16.0289 16.8728 16.0289C16.8696 16.0289 16.8665 16.0277 16.8641 16.0256L16.5293 15.7326C17.2639 15.0439 17.9221 14.2905 18.5038 13.4723C19.1916 12.5048 19.7458 11.3555 19.8798 10.1812C20.0479 8.70744 19.4795 7.30086 18.3302 6.37607C18.1009 6.19134 17.8198 6.01179 17.4868 5.8374Z" fill="#E7343F"/>
      <path d="M12.5483 13.0595L13.8342 13.7296C13.8549 13.7404 13.873 13.7555 13.8872 13.774C14.0346 13.9621 14.1826 14.153 14.3311 14.3467C14.5729 14.6625 14.8439 14.9539 15.1163 15.2607C15.1283 15.2742 15.1253 15.2796 15.1072 15.2771L12.3915 14.8879C12.389 14.8876 12.3867 14.8863 12.3851 14.8842C12.3835 14.8821 12.3827 14.8794 12.3828 14.8767L12.5225 13.0737C12.5239 13.0562 12.5325 13.0514 12.5483 13.0595Z" fill="#44C868"/>
      <path d="M21.1943 13.5925L19.4322 14.3664C19.4067 14.3776 19.4024 14.3722 19.4193 14.3501C19.5661 14.1599 19.7085 13.971 19.8464 13.7834C19.8814 13.736 19.9267 13.6979 19.9821 13.6692C20.395 13.4569 20.7873 13.2525 21.159 13.056C21.1611 13.0548 21.1635 13.0542 21.166 13.0542C21.1684 13.0542 21.1708 13.0548 21.1729 13.056C21.1751 13.0571 21.1769 13.0588 21.1782 13.0608C21.1795 13.0628 21.1803 13.0652 21.1806 13.0676L21.218 13.5528C21.2195 13.5715 21.2116 13.5847 21.1943 13.5925Z" fill="#4CE166"/>
      <path d="M8.17442 15.1673L11.8473 13.1229C11.8495 13.1216 11.8521 13.121 11.8546 13.1211C11.8572 13.1212 11.8597 13.1219 11.8618 13.1233C11.864 13.1247 11.8657 13.1266 11.8669 13.1289C11.8681 13.1311 11.8686 13.1337 11.8684 13.1363L11.7279 14.9526C11.7277 14.955 11.7269 14.9572 11.7257 14.9592C11.7244 14.9611 11.7226 14.9627 11.7206 14.9639L7.86027 16.9987C7.85791 17 7.85525 17.0006 7.85258 17.0004C7.84992 17.0002 7.84736 16.9993 7.8452 16.9977C7.84304 16.9961 7.84137 16.994 7.84037 16.9915C7.83938 16.989 7.83911 16.9863 7.83958 16.9837L8.1671 15.1772C8.16749 15.1751 8.16836 15.1731 8.16963 15.1714C8.1709 15.1697 8.17253 15.1683 8.17442 15.1673Z" fill="#4CE166"/>
      <path d="M22.1494 13.3158L21.8874 13.3757C21.865 13.3809 21.853 13.3721 21.8512 13.3494L21.8366 13.1434C21.8351 13.1219 21.8438 13.1163 21.8624 13.1266L22.1537 13.2878C22.1764 13.3007 22.175 13.31 22.1494 13.3158Z" fill="#44C868"/>
      <path d="M24.2278 14.4712L21.9938 14.9698C21.9918 14.9703 21.9897 14.9703 21.9877 14.9698C21.9857 14.9694 21.9838 14.9685 21.9821 14.9673C21.9804 14.9661 21.979 14.9645 21.978 14.9627C21.977 14.9609 21.9764 14.9589 21.9762 14.9569L21.9068 14.0489C21.9065 14.0454 21.9075 14.0419 21.9095 14.0391C21.9116 14.0362 21.9146 14.0342 21.918 14.0334L23.0221 13.7748C23.0255 13.774 23.0292 13.7744 23.0324 13.7761L24.2317 14.4445C24.2342 14.446 24.2361 14.4482 24.2374 14.4508C24.2386 14.4534 24.239 14.4563 24.2386 14.4592C24.2382 14.462 24.237 14.4647 24.235 14.4668C24.2331 14.469 24.2306 14.4705 24.2278 14.4712Z" fill="#FFBB24"/>
      <path d="M18.3881 15.5325L21.2573 14.272C21.2591 14.2712 21.261 14.2709 21.2629 14.271C21.2649 14.2712 21.2667 14.2718 21.2684 14.2728C21.27 14.2738 21.2714 14.2752 21.2724 14.2769C21.2734 14.2785 21.274 14.2804 21.2741 14.2823L21.4788 16.9136C21.4789 16.9155 21.4785 16.9174 21.4776 16.9191C21.4766 16.9208 21.4753 16.9222 21.4736 16.9231C21.472 16.924 21.4701 16.9244 21.4683 16.9243C21.4665 16.9241 21.4647 16.9234 21.4633 16.9222C21.0496 16.5987 20.609 16.2547 20.1416 15.8901C20.0343 15.8065 19.9111 15.7915 19.7839 15.8466C18.931 16.2158 18.0682 16.5907 17.1957 16.9714C17.1936 16.9722 17.1914 16.9725 17.1892 16.9723C17.187 16.9721 17.1848 16.9713 17.183 16.9701C17.1811 16.9689 17.1796 16.9672 17.1785 16.9652C17.1774 16.9633 17.1768 16.9611 17.1768 16.9589L17.1772 16.6546C17.1772 16.6351 17.1845 16.6191 17.1992 16.6068C17.5859 16.2796 17.9543 15.9406 18.3045 15.5898C18.3284 15.5656 18.3568 15.5461 18.3881 15.5325Z" fill="#FFDB56"/>
      <path d="M13.947 16.7959C13.6419 16.7718 13.4773 17.0644 13.6419 17.3238C14.6049 18.8439 15.5629 20.3529 16.5158 21.8508C16.5244 21.8646 16.5287 21.8795 16.5287 21.8956V23.3979C16.5287 23.4249 16.5213 23.4272 16.5063 23.4048L12.2426 16.9256C12.232 16.9097 12.2272 16.8907 12.2288 16.8718L12.3318 15.5505C12.332 15.5484 12.3326 15.5463 12.3336 15.5444C12.3346 15.5426 12.3359 15.5409 12.3376 15.5396C12.3392 15.5382 12.3411 15.5372 12.3432 15.5367C12.3453 15.5361 12.3474 15.536 12.3495 15.5363L15.8836 16.0409C15.8983 16.0432 15.9112 16.0491 15.9224 16.0586L16.5093 16.5736C16.5223 16.585 16.5287 16.5994 16.5287 16.6166V17.0855C16.5287 17.101 16.521 17.1078 16.5055 17.1058C14.805 16.8995 13.9522 16.7962 13.947 16.7959Z" fill="#FFBB24"/>
      <path d="M7.69361 17.8187L11.6466 15.7355C11.6488 15.7343 11.6512 15.7338 11.6537 15.7339C11.6562 15.734 11.6586 15.7348 11.6607 15.7362C11.6628 15.7375 11.6644 15.7394 11.6655 15.7417C11.6666 15.7439 11.6671 15.7464 11.6668 15.7489L11.5867 16.7758C11.5865 16.7781 11.5858 16.7804 11.5845 16.7824C11.5832 16.7843 11.5814 16.7859 11.5794 16.787L7.50831 18.9382C7.50603 18.9394 7.50347 18.9399 7.50092 18.9397C7.49837 18.9395 7.49593 18.9386 7.49387 18.937C7.49182 18.9355 7.49022 18.9335 7.48927 18.9311C7.48832 18.9287 7.48805 18.9261 7.48848 18.9236L7.68628 17.8282C7.68671 17.8261 7.68759 17.8242 7.68886 17.8226C7.69013 17.8209 7.69175 17.8196 7.69361 17.8187Z" fill="#FFDB56"/>
      <path d="M26.9347 22.8394C26.9649 22.9985 26.9883 23.159 27.005 23.3207C27.0067 23.3365 27.0024 23.3382 26.992 23.3259L22.1918 17.535C22.1809 17.5215 22.1743 17.5051 22.1729 17.488L22.0863 16.3684C22.0843 16.3429 22.0916 16.3398 22.1082 16.3594C23.6274 18.1245 25.1468 19.8893 26.6663 21.6539C26.7033 21.6969 26.7273 21.7472 26.7382 21.8047C26.8037 22.1503 26.8692 22.4952 26.9347 22.8394Z" fill="#FFBB24"/>
      <path d="M19.8937 16.5194L21.5377 17.8019C21.5408 17.8043 21.5434 17.8074 21.5452 17.8109C21.5471 17.8144 21.5482 17.8182 21.5485 17.8221L21.8635 21.894C21.864 21.8999 21.8626 21.9058 21.8596 21.9109C21.8566 21.916 21.8521 21.92 21.8467 21.9225L18.7905 23.2946C18.785 23.297 18.779 23.2977 18.7731 23.2966C18.7672 23.2954 18.7619 23.2925 18.7578 23.2881L17.184 21.6566C17.1788 21.6513 17.1759 21.6442 17.1758 21.6368V17.7049C17.1757 17.6993 17.1773 17.6937 17.1804 17.689C17.1835 17.6842 17.1878 17.6805 17.193 17.6782L19.8644 16.5155C19.8692 16.5135 19.8744 16.5128 19.8796 16.5134C19.8847 16.5141 19.8896 16.5162 19.8937 16.5194Z" fill="#4CE166"/>
      <path d="M16.5287 17.7719V20.6183C16.5287 20.6213 16.5277 20.6241 16.5259 20.6265C16.5241 20.6289 16.5216 20.6306 16.5187 20.6314C16.5159 20.6323 16.5128 20.6321 16.51 20.6311C16.5073 20.63 16.5049 20.6281 16.5033 20.6256L14.5486 17.5461C14.5471 17.5439 14.5464 17.5414 14.5464 17.5387C14.5464 17.5361 14.5471 17.5335 14.5485 17.5313C14.5499 17.5291 14.5519 17.5273 14.5543 17.5262C14.5567 17.5251 14.5593 17.5247 14.5619 17.525L16.5167 17.7586C16.5199 17.759 16.5229 17.7606 16.5252 17.763C16.5274 17.7655 16.5286 17.7686 16.5287 17.7719Z" fill="#44C868"/>
      <path d="M14.7043 23.2014C13.7298 22.7621 12.7813 22.3363 11.8588 21.9241C11.8527 21.9214 11.8475 21.9169 11.844 21.9112C11.8405 21.9055 11.8389 21.8988 11.8395 21.8922L12.1428 17.9819C12.143 17.9799 12.1438 17.9781 12.1451 17.9766C12.1463 17.9751 12.148 17.974 12.1498 17.9735C12.1517 17.973 12.1536 17.973 12.1554 17.9737C12.1571 17.9743 12.1586 17.9755 12.1596 17.9771L15.948 23.7336C15.9578 23.7482 15.9545 23.7521 15.9381 23.7452C15.5928 23.5978 15.1815 23.4166 14.7043 23.2014Z" fill="#7EE5F2"/>
      <path d="M26.0041 23.4691C24.873 22.9583 23.7185 22.439 22.5407 21.9112C22.5234 21.9035 22.5141 21.8901 22.5126 21.8711L22.2627 18.6512C22.2627 18.6501 22.263 18.6491 22.2636 18.6482C22.2642 18.6474 22.265 18.6467 22.266 18.6463C22.267 18.646 22.2681 18.6459 22.2691 18.6461C22.2701 18.6464 22.271 18.647 22.2717 18.6477L26.3924 23.619C26.4016 23.6302 26.3994 23.6332 26.3859 23.6281C26.2635 23.5818 26.1362 23.5288 26.0041 23.4691Z" fill="#44C868"/>
      <path d="M17.1758 23.9987V22.615C17.1758 22.6123 17.1765 22.6097 17.178 22.6075C17.1795 22.6053 17.1816 22.6036 17.184 22.6026C17.1865 22.6016 17.1892 22.6013 17.1918 22.6018C17.1944 22.6023 17.1968 22.6036 17.1986 22.6055L18.1312 23.5704C18.1327 23.5719 18.1338 23.5738 18.1344 23.5758C18.1351 23.5779 18.1352 23.58 18.1348 23.5822C18.1345 23.5843 18.1336 23.5863 18.1323 23.588C18.1309 23.5897 18.1292 23.591 18.1273 23.5919L17.1947 24.0108C17.1927 24.0117 17.1905 24.0121 17.1882 24.012C17.186 24.0118 17.1839 24.0111 17.182 24.0099C17.1801 24.0087 17.1785 24.0071 17.1774 24.0051C17.1764 24.0032 17.1758 24.001 17.1758 23.9987Z" fill="#FFDB56"/>
      <path d="M26.1008 16.435L26.2142 17.071C26.0027 17.136 25.918 17.2844 25.9599 17.5162C26.1375 18.4921 26.3133 19.461 26.4874 20.4229C26.4923 20.4499 26.4857 20.4529 26.4676 20.4319L22.2926 15.5813C22.2915 15.58 22.2906 15.5784 22.2903 15.5767C22.2899 15.575 22.29 15.5733 22.2905 15.5716C22.291 15.5699 22.292 15.5685 22.2933 15.5673C22.2945 15.5661 22.2961 15.5653 22.2978 15.5649L25.095 14.9418C25.1089 14.9387 25.1234 14.9409 25.1355 14.9478L25.5212 15.1624C25.5296 15.167 25.5346 15.1741 25.5363 15.1835C25.5915 15.4665 25.6436 15.7554 25.6927 16.0502C25.7128 16.1697 25.7432 16.257 25.7837 16.3122C25.8526 16.4061 25.9583 16.447 26.1008 16.435Z" fill="#7EE5F2"/>
      <path d="M6.4668 22.6964L6.58358 22.0539C6.85162 22.0772 6.946 21.9225 6.98909 21.6842C7.10774 21.0268 7.22194 20.3944 7.33169 19.7868C7.33485 19.7701 7.3439 19.7579 7.35884 19.7501L11.5152 17.5532C11.5163 17.5525 11.5176 17.5522 11.5189 17.5522C11.5202 17.5523 11.5215 17.5527 11.5226 17.5534C11.5236 17.5541 11.5245 17.5551 11.525 17.5563C11.5256 17.5575 11.5257 17.5588 11.5256 17.5601L11.1916 21.8824C11.1907 21.8939 11.185 21.9019 11.1743 21.9065L6.59694 23.9608C6.58143 23.968 6.57511 23.9631 6.57798 23.9461C6.61504 23.7232 6.66086 23.4715 6.71545 23.1911C6.73642 23.0826 6.73915 22.9975 6.72364 22.936C6.69347 22.8188 6.60786 22.739 6.4668 22.6964Z" fill="#A8EEFC"/>
      <path d="M26.101 16.4351C25.9585 16.4472 25.8528 16.4063 25.7838 16.3123C25.7433 16.2572 25.713 16.1698 25.6929 16.0503C25.6438 15.7556 25.5916 15.4667 25.5365 15.1837C25.5347 15.1742 25.5297 15.1672 25.5214 15.1626L25.1357 14.948C25.1235 14.9411 25.1091 14.9389 25.0952 14.942L22.298 15.5651C22.2963 15.5655 22.2947 15.5663 22.2934 15.5675C22.2921 15.5686 22.2912 15.5701 22.2907 15.5718C22.2901 15.5734 22.2901 15.5752 22.2904 15.5769C22.2908 15.5786 22.2916 15.5802 22.2928 15.5815L26.4677 20.4321C26.4858 20.4531 26.4924 20.45 26.4875 20.423C26.3134 19.4612 26.1376 18.4923 25.9601 17.5164C25.9181 17.2845 26.0029 17.1361 26.2143 17.0712C26.3554 17.0655 26.4595 17.1101 26.5268 17.2052C26.5609 17.2538 26.5913 17.3519 26.6177 17.4996C27.0363 19.8232 27.4583 22.1469 27.8838 24.4708V24.5773C27.8332 24.7324 27.7443 24.8189 27.617 24.8367C27.5423 24.8473 27.4452 24.8256 27.3257 24.7716C25.6135 23.9997 23.9114 23.2349 22.2195 22.4773C22.2151 22.4754 22.2103 22.4744 22.2054 22.4744C22.2006 22.4744 22.1959 22.4754 22.1915 22.4773C20.4595 23.255 18.7262 24.0333 16.9919 24.8121C16.8985 24.8541 16.8068 24.8549 16.7169 24.8147C14.9808 24.0359 13.2473 23.2573 11.5164 22.479C11.5108 22.4765 11.5048 22.4752 11.4987 22.4752C11.4926 22.4752 11.4866 22.4765 11.481 22.479C9.81188 23.2257 8.1012 23.9943 6.34901 24.785C6.112 24.8918 5.90429 24.844 5.81982 24.5626V24.4682C5.91434 23.9767 6.00455 23.4845 6.09045 22.9918C6.12579 22.7899 6.25134 22.6915 6.46709 22.6967C6.60815 22.7392 6.69376 22.819 6.72393 22.9363C6.73944 22.9977 6.73671 23.0828 6.71574 23.1914C6.66116 23.4718 6.61533 23.7234 6.57827 23.9464C6.5754 23.9633 6.58172 23.9682 6.59723 23.961L11.1746 21.9067C11.1853 21.9022 11.191 21.8941 11.1919 21.8826L11.5259 17.5603C11.526 17.559 11.5259 17.5577 11.5253 17.5565C11.5248 17.5554 11.5239 17.5543 11.5229 17.5536C11.5218 17.5529 11.5205 17.5525 11.5192 17.5525C11.5179 17.5524 11.5166 17.5528 11.5155 17.5534L7.35913 19.7503C7.34419 19.7581 7.33514 19.7703 7.33198 19.787C7.22224 20.3946 7.10804 21.0271 6.98939 21.6844C6.94629 21.9227 6.85192 22.0774 6.58387 22.0541C6.38105 21.9906 6.2973 21.8615 6.33264 21.6667C7.1474 17.1715 7.55477 14.9239 7.55477 14.9239C7.60045 14.7855 7.64355 14.7196 7.76421 14.6524C9.13459 13.8928 10.5689 13.0947 12.0671 12.2581C12.1774 12.1963 12.289 12.1946 12.4019 12.2529C12.6654 12.3891 12.9158 12.5198 13.1531 12.6451C13.1558 12.6464 13.1589 12.6468 13.1619 12.6463C13.165 12.6457 13.1677 12.6443 13.1699 12.6421C13.172 12.6399 13.1734 12.6371 13.1739 12.6341C13.1743 12.6311 13.1738 12.628 13.1725 12.6252C12.6101 11.6108 12.2408 10.3719 12.3692 9.19973C12.483 8.16462 12.8965 7.27431 13.6099 6.52879C14.4467 5.65485 15.6172 5.13428 16.8423 5.13428C17.922 5.13456 18.8831 5.47256 19.7257 6.14827C20.6578 6.89551 21.2452 8.00345 21.3728 9.17905C21.4874 10.2318 21.2193 11.3139 20.7548 12.2702C20.6996 12.3836 20.6448 12.4935 20.5902 12.5998C20.5781 12.6231 20.5837 12.6285 20.607 12.6162C20.867 12.4783 21.1067 12.3539 21.3262 12.243C21.4245 12.1933 21.5233 12.1962 21.6227 12.2516C22.8385 12.9279 24.2855 13.733 25.9635 14.667C26.073 14.7278 26.1368 14.8381 26.157 14.9583C26.2079 15.26 26.2685 15.592 26.3389 15.9542C26.3596 16.0605 26.3603 16.1467 26.341 16.2128C26.3097 16.3202 26.2297 16.3944 26.101 16.4351ZM16.5295 15.7327L16.8643 16.0258C16.8667 16.0279 16.8697 16.0291 16.8729 16.0291C16.8761 16.0291 16.8792 16.0279 16.8815 16.0258C17.7141 15.3127 18.4628 14.5257 19.1276 13.6647C20.3954 12.0219 21.3977 9.73581 20.2359 7.72938C19.8053 6.98587 19.1833 6.43671 18.37 6.08191C18.0916 5.96038 17.7973 5.87894 17.487 5.83757C17.4456 5.82665 17.3918 5.81731 17.3254 5.80955C15.7034 5.62554 14.1921 6.44045 13.4375 7.86253C12.7717 9.11828 12.9212 10.5348 13.4926 11.7978C13.7972 12.4713 14.1817 13.1062 14.6463 13.7026C15.2145 14.4323 15.8423 15.109 16.5295 15.7327ZM12.5485 13.0592C12.5327 13.0512 12.524 13.0559 12.5226 13.0734L12.383 14.8765C12.3828 14.8792 12.3836 14.8819 12.3852 14.8839C12.3868 14.886 12.3891 14.8873 12.3916 14.8877L15.1074 15.2768C15.1255 15.2794 15.1285 15.2739 15.1164 15.2604C14.8441 14.9536 14.573 14.6623 14.3313 14.3464C14.1827 14.1528 14.0348 13.9619 13.8874 13.7737C13.8732 13.7552 13.8551 13.7401 13.8344 13.7293L12.5485 13.0592ZM19.4322 14.3667L21.1943 13.5927C21.2116 13.5849 21.2195 13.5717 21.218 13.553L21.1806 13.0678C21.1803 13.0654 21.1795 13.0631 21.1782 13.061C21.1769 13.059 21.1751 13.0573 21.1729 13.0562C21.1708 13.055 21.1684 13.0544 21.166 13.0544C21.1635 13.0544 21.1611 13.055 21.159 13.0562C20.7873 13.2527 20.395 13.4571 19.9821 13.6694C19.9267 13.6981 19.8814 13.7362 19.8464 13.7836C19.7085 13.9712 19.5661 14.1601 19.4193 14.3503C19.4024 14.3724 19.4067 14.3779 19.4322 14.3667ZM8.17446 15.1673C8.17258 15.1683 8.17094 15.1697 8.16967 15.1715C8.1684 15.1732 8.16754 15.1752 8.16714 15.1772L7.83962 16.9837C7.83915 16.9864 7.83942 16.9891 7.84041 16.9916C7.84141 16.994 7.84308 16.9962 7.84524 16.9978C7.8474 16.9993 7.84996 17.0003 7.85262 17.0005C7.85529 17.0006 7.85795 17.0001 7.86031 16.9988L11.7206 14.9639C11.7227 14.9628 11.7244 14.9612 11.7257 14.9592C11.727 14.9573 11.7278 14.9551 11.728 14.9527L11.8684 13.1363C11.8686 13.1338 11.8681 13.1312 11.8669 13.1289C11.8658 13.1267 11.864 13.1247 11.8619 13.1234C11.8597 13.122 11.8572 13.1212 11.8547 13.1212C11.8521 13.1211 11.8496 13.1217 11.8473 13.123L8.17446 15.1673ZM22.154 13.2876L21.8627 13.1264C21.8441 13.1161 21.8354 13.1217 21.8369 13.1432L21.8515 13.3492C21.8532 13.3719 21.8653 13.3807 21.8877 13.3755L22.1497 13.3156C22.1753 13.3099 22.1767 13.3005 22.154 13.2876ZM24.2277 14.4714C24.2305 14.4706 24.233 14.4691 24.2349 14.467C24.2369 14.4648 24.2381 14.4622 24.2385 14.4593C24.2389 14.4564 24.2385 14.4535 24.2373 14.4509C24.236 14.4483 24.2341 14.4461 24.2316 14.4447L23.0323 13.7763C23.0291 13.7746 23.0254 13.7741 23.0219 13.775L21.9179 14.0335C21.9145 14.0344 21.9115 14.0364 21.9094 14.0392C21.9073 14.0421 21.9064 14.0456 21.9067 14.0491L21.9761 14.957C21.9763 14.9591 21.9769 14.9611 21.9779 14.9629C21.9789 14.9647 21.9803 14.9662 21.982 14.9675C21.9837 14.9687 21.9856 14.9695 21.9876 14.97C21.9896 14.9704 21.9917 14.9704 21.9937 14.97L24.2277 14.4714ZM21.2573 14.2723L18.3881 15.5328C18.3568 15.5464 18.3284 15.5659 18.3045 15.5901C17.9543 15.9409 17.5858 16.2799 17.1991 16.6071C17.1845 16.6194 17.1772 16.6354 17.1772 16.6549L17.1767 16.9592C17.1768 16.9614 17.1774 16.9636 17.1784 16.9655C17.1795 16.9675 17.1811 16.9692 17.1829 16.9704C17.1848 16.9716 17.1869 16.9724 17.1891 16.9726C17.1914 16.9728 17.1936 16.9725 17.1957 16.9717C18.0682 16.591 18.9309 16.2161 19.7839 15.8469C19.911 15.7918 20.0343 15.8068 20.1416 15.8904C20.609 16.255 21.0496 16.599 21.4633 16.9225C21.4647 16.9237 21.4664 16.9244 21.4683 16.9246C21.4701 16.9247 21.472 16.9243 21.4736 16.9234C21.4752 16.9225 21.4766 16.9211 21.4775 16.9194C21.4784 16.9177 21.4789 16.9158 21.4788 16.9139L21.2741 14.2826C21.274 14.2807 21.2734 14.2788 21.2724 14.2772C21.2714 14.2755 21.27 14.2741 21.2684 14.2731C21.2667 14.2721 21.2648 14.2715 21.2629 14.2713C21.261 14.2712 21.259 14.2715 21.2573 14.2723ZM13.6418 17.3242C13.4771 17.0647 13.6418 16.7721 13.9469 16.7963C13.952 16.7966 14.8049 16.8998 16.5053 17.1061C16.5208 17.1081 16.5286 17.1014 16.5286 17.0859V16.617C16.5286 16.5998 16.5221 16.5854 16.5092 16.5739L15.9223 16.0589C15.9111 16.0495 15.8981 16.0436 15.8835 16.0413L12.3494 15.5366C12.3473 15.5363 12.3451 15.5365 12.3431 15.537C12.341 15.5376 12.3391 15.5386 12.3375 15.5399C12.3358 15.5413 12.3344 15.5429 12.3334 15.5448C12.3325 15.5467 12.3319 15.5487 12.3317 15.5509L12.2287 16.8721C12.227 16.8911 12.2319 16.9101 12.2425 16.926L16.5062 23.4051C16.5211 23.4275 16.5286 23.4252 16.5286 23.3982V21.896C16.5286 21.8799 16.5243 21.8649 16.5157 21.8512C15.5627 20.3532 14.6048 18.8442 13.6418 17.3242ZM7.69354 17.8189C7.69168 17.8198 7.69006 17.8211 7.68879 17.8228C7.68752 17.8244 7.68664 17.8263 7.68621 17.8284L7.48841 18.9238C7.48797 18.9263 7.48825 18.9289 7.4892 18.9313C7.49015 18.9337 7.49175 18.9357 7.4938 18.9372C7.49586 18.9388 7.4983 18.9397 7.50085 18.9399C7.50339 18.9401 7.50595 18.9396 7.50823 18.9385L11.5793 16.7872C11.5814 16.7861 11.5831 16.7845 11.5844 16.7826C11.5857 16.7806 11.5864 16.7784 11.5866 16.776L11.6668 15.7491C11.667 15.7466 11.6665 15.7441 11.6655 15.7419C11.6644 15.7397 11.6627 15.7378 11.6606 15.7364C11.6586 15.735 11.6561 15.7342 11.6537 15.7341C11.6512 15.734 11.6487 15.7346 11.6465 15.7357L7.69354 17.8189ZM26.9344 22.8393C26.8689 22.4951 26.8034 22.1502 26.7379 21.8046C26.727 21.7472 26.703 21.6969 26.6659 21.6538C25.1465 19.8892 23.6271 18.1244 22.1079 16.3593C22.0913 16.3398 22.0839 16.3428 22.086 16.3684L22.1726 17.4879C22.174 17.505 22.1806 17.5214 22.1915 17.5349L26.9917 23.3258C27.0021 23.3382 27.0064 23.3365 27.0047 23.3207C26.988 23.1589 26.9646 22.9985 26.9344 22.8393ZM19.8938 16.5196C19.8897 16.5164 19.8848 16.5143 19.8797 16.5136C19.8745 16.513 19.8693 16.5137 19.8645 16.5157L17.1931 17.6784C17.1879 17.6807 17.1835 17.6844 17.1805 17.6892C17.1774 17.6939 17.1758 17.6995 17.1759 17.7051V21.637C17.1759 21.6444 17.1789 21.6515 17.1841 21.6568L18.7578 23.2883C18.762 23.2927 18.7673 23.2956 18.7732 23.2968C18.779 23.2979 18.7851 23.2972 18.7906 23.2948L21.8468 21.9227C21.8522 21.9202 21.8567 21.9162 21.8597 21.9111C21.8627 21.906 21.864 21.9001 21.8636 21.8942L21.5486 17.8223C21.5483 17.8184 21.5471 17.8146 21.5453 17.8111C21.5434 17.8076 21.5409 17.8045 21.5378 17.8021L19.8938 16.5196ZM16.5286 17.7719C16.5285 17.7686 16.5273 17.7654 16.525 17.763C16.5228 17.7605 16.5198 17.759 16.5165 17.7586L14.5618 17.525C14.5592 17.5247 14.5566 17.5251 14.5542 17.5262C14.5518 17.5273 14.5498 17.5291 14.5484 17.5313C14.547 17.5335 14.5463 17.5361 14.5463 17.5387C14.5463 17.5413 14.547 17.5439 14.5484 17.5461L16.5032 20.6256C16.5048 20.6281 16.5071 20.63 16.5099 20.6311C16.5127 20.6321 16.5158 20.6322 16.5186 20.6314C16.5215 20.6306 16.524 20.6289 16.5258 20.6265C16.5276 20.6241 16.5286 20.6212 16.5286 20.6182V17.7719ZM14.7044 23.2017C15.1816 23.4169 15.5929 23.5982 15.9382 23.7456C15.9546 23.7524 15.9579 23.7486 15.9481 23.7339L12.1598 17.9775C12.1587 17.9759 12.1572 17.9747 12.1555 17.974C12.1537 17.9734 12.1518 17.9733 12.15 17.9738C12.1481 17.9743 12.1465 17.9754 12.1452 17.9769C12.1439 17.9784 12.1432 17.9803 12.143 17.9822L11.8396 21.8925C11.8391 21.8992 11.8406 21.9058 11.8441 21.9115C11.8476 21.9172 11.8528 21.9217 11.859 21.9244C12.7815 22.3367 13.73 22.7624 14.7044 23.2017ZM26.004 23.4693C26.1362 23.5291 26.2635 23.5821 26.3858 23.6283C26.3993 23.6335 26.4015 23.6305 26.3923 23.6193L22.2717 18.648C22.271 18.6472 22.2701 18.6467 22.2691 18.6464C22.268 18.6462 22.267 18.6462 22.266 18.6466C22.265 18.647 22.2641 18.6476 22.2635 18.6485C22.263 18.6494 22.2626 18.6504 22.2626 18.6515L22.5126 21.8714C22.514 21.8904 22.5234 21.9037 22.5406 21.9115C23.7185 22.4392 24.873 22.9585 26.004 23.4693ZM17.1759 23.9989C17.1759 24.0012 17.1764 24.0034 17.1775 24.0053C17.1786 24.0073 17.1802 24.0089 17.1821 24.0102C17.1839 24.0114 17.1861 24.0121 17.1883 24.0122C17.1906 24.0124 17.1928 24.0119 17.1948 24.011L18.1274 23.5921C18.1293 23.5912 18.131 23.5899 18.1323 23.5882C18.1337 23.5865 18.1345 23.5845 18.1349 23.5824C18.1353 23.5803 18.1352 23.5781 18.1345 23.576C18.1339 23.574 18.1328 23.5721 18.1313 23.5706L17.1987 22.6057C17.1968 22.6038 17.1944 22.6026 17.1918 22.602C17.1892 22.6015 17.1866 22.6018 17.1841 22.6028C17.1817 22.6038 17.1796 22.6055 17.1781 22.6077C17.1766 22.61 17.1759 22.6126 17.1759 22.6152V23.9989Z" fill="black"/>
      <path d="M15.9247 8.27514C16.1436 8.59489 15.7989 8.77933 15.676 9.03186C15.4847 9.42516 15.4716 9.81416 15.6368 10.1988C15.9618 10.9569 16.9283 11.2598 17.623 10.781C18.5706 10.1273 18.35 8.71168 17.2597 8.36693C16.9964 8.28376 16.6069 8.38244 16.5504 8.00882C16.5629 7.74078 16.7361 7.64295 16.9818 7.6645C17.4667 7.70673 17.8725 7.8758 18.1992 8.17171C18.74 8.66126 18.9749 9.37877 18.824 10.0851C18.6939 10.6966 18.2574 11.2292 17.6786 11.4856C16.3642 12.0678 14.8835 11.1004 14.8779 9.66534C14.8759 9.16143 15.0505 8.70995 15.4015 8.31091C15.5639 8.12618 15.7382 8.11426 15.9247 8.27514Z" fill="black"/>
    </symbol>

    <symbol id="ticket" viewBox="0 0 32 32">
      <circle cx="16.3506" cy="16.5142" r="16" fill="white"/>
      <circle cx="16.3505" cy="16.5141" r="14.3891" fill="#E8B732"/>
      <path d="M28.0068 12.9849V13.1979C27.964 13.5094 27.8375 13.7384 27.6089 13.967C23.6479 17.9253 19.7525 21.8204 15.9226 25.6524C15.5793 25.9961 15.0588 26.089 14.6149 25.8851C14.4792 25.8225 14.3258 25.7029 14.1546 25.5263C13.9302 25.295 13.7065 25.0714 13.4834 24.8556C13.4796 24.8518 13.4744 24.8497 13.4691 24.8497C13.4637 24.8497 13.4586 24.8518 13.4547 24.8556C13.0358 25.2687 12.6213 25.6844 12.2113 26.1027C11.9736 26.3445 11.7222 26.5093 11.3876 26.533C11.0273 26.5585 10.7157 26.4396 10.4528 26.1765C9.80229 25.5253 9.1782 24.9016 8.58051 24.3051C8.57919 24.3038 8.57814 24.3022 8.57743 24.3005C8.57671 24.2988 8.57634 24.2969 8.57634 24.2951C8.57634 24.2932 8.57671 24.2914 8.57743 24.2896C8.57814 24.2879 8.57919 24.2864 8.58051 24.285C8.74306 24.1211 8.93384 23.959 9.0413 23.7541C9.36685 23.1317 9.08911 22.3322 8.38973 22.1209C8.00423 22.0043 7.64968 22.0619 7.3261 22.2935C7.19132 22.39 7.07795 22.5243 6.95729 22.6418C6.94454 22.6542 6.93179 22.6542 6.91904 22.6418C6.31893 22.0432 5.71517 21.4394 5.10777 20.8305C4.86948 20.5913 4.73167 20.3297 4.69434 20.0455V19.827C4.73198 19.5459 4.84095 19.3152 5.02126 19.1349C8.87268 15.2835 12.7239 11.4322 16.5751 7.58109C16.7906 7.36557 16.9436 7.23262 17.034 7.18223C17.3742 6.99236 17.8081 6.98508 18.1491 7.1754C18.2608 7.23793 18.3745 7.32824 18.4901 7.44632C18.7397 7.701 18.9834 7.94505 19.2214 8.17848C19.2227 8.1798 19.2243 8.18085 19.226 8.18156C19.2277 8.18228 19.2295 8.18265 19.2314 8.18265C19.2333 8.18265 19.2351 8.18228 19.2368 8.18156C19.2386 8.18085 19.2401 8.1798 19.2414 8.17848C19.6354 7.79054 20.0375 7.38789 20.4476 6.97051C20.6097 6.80538 20.7473 6.692 20.8606 6.63038C21.2093 6.44051 21.6433 6.44597 21.9847 6.6445C22.0791 6.69913 22.193 6.79354 22.3262 6.92771C22.9424 7.54664 23.5377 8.14129 24.112 8.71166C24.1254 8.72501 24.1255 8.73837 24.1125 8.75173C23.9845 8.88514 23.8324 9.01354 23.7286 9.16152C23.2478 9.84587 23.6162 10.7606 24.4121 10.9532C24.7358 11.0315 25.1137 10.9509 25.3728 10.7397C25.5015 10.6346 25.6252 10.5153 25.7439 10.3818C25.7459 10.3794 25.7484 10.3775 25.7512 10.3761C25.754 10.3748 25.7571 10.374 25.7602 10.3739C25.7633 10.3738 25.7664 10.3743 25.7693 10.3754C25.7723 10.3765 25.7749 10.3782 25.7771 10.3804C26.3927 10.996 27.0097 11.613 27.628 12.2313C27.8441 12.4471 27.9704 12.6983 28.0068 12.9849ZM12.6689 20.9307C13.7074 21.4161 14.0763 22.7247 13.4538 23.7031C13.4453 23.7162 13.4467 23.7282 13.4579 23.7391C13.889 24.1692 14.3353 24.6159 14.797 25.0791C14.96 25.243 15.1995 25.2845 15.3762 25.1083C19.4161 21.0708 23.3304 17.1574 27.119 13.3682C27.2929 13.1943 27.261 12.9489 27.0985 12.7868C26.6362 12.3266 26.1868 11.878 25.7503 11.4409C25.7466 11.4371 25.7416 11.4347 25.7364 11.4342C25.7311 11.4336 25.7257 11.4348 25.7211 11.4377C25.257 11.723 24.768 11.8098 24.2541 11.6981C22.9473 11.414 22.3326 9.8914 23.062 8.77222C23.0645 8.76843 23.0655 8.76392 23.065 8.75944C23.0646 8.75496 23.0625 8.75079 23.0593 8.74763C22.6022 8.29443 22.1569 7.84943 21.7234 7.41262C21.5577 7.24598 21.3159 7.19407 21.1369 7.37301C17.2212 11.2888 13.3054 15.2046 9.38962 19.1203C9.19565 19.3143 9.26714 19.5542 9.44198 19.7268C9.89882 20.177 10.3361 20.6136 10.7538 21.0368C10.7647 21.048 10.777 21.0495 10.7906 21.0413C11.4172 20.6753 12.0432 20.6384 12.6689 20.9307ZM10.7233 22.094C10.1198 21.486 9.50876 20.8748 8.89013 20.2605C8.50994 19.883 8.38381 19.3616 8.62923 18.8708C8.68114 18.767 8.78526 18.6369 8.94158 18.4806C12.222 15.2002 15.4648 11.9583 18.67 8.75491C18.6751 8.74984 18.6779 8.74294 18.6779 8.73569C18.6779 8.72845 18.6751 8.72145 18.67 8.71621C18.3947 8.43816 18.135 8.17908 17.8909 7.93898C17.7179 7.76914 17.4884 7.75867 17.3232 7.9235C13.3102 11.9328 9.39296 15.8502 5.57129 19.6758C5.40919 19.8384 5.44198 20.0779 5.59906 20.234C6.07199 20.7048 6.52018 21.1538 6.94363 21.5809C6.95698 21.5942 6.97155 21.5959 6.98734 21.5859C7.9376 20.9799 9.25849 21.3122 9.74887 22.3445C10.0524 22.9834 10.0186 23.6185 9.64733 24.2495C9.63944 24.2626 9.64096 24.2744 9.65189 24.285C10.0814 24.714 10.531 25.1641 11.0006 25.6355C11.174 25.8095 11.4053 25.814 11.5897 25.6305C12.0262 25.1952 12.467 24.7548 12.912 24.3092C12.9156 24.3054 12.9177 24.3004 12.9177 24.2952C12.9177 24.29 12.9156 24.285 12.912 24.2814L12.3961 23.7655C12.3939 23.7633 12.3922 23.7607 12.391 23.7579C12.3899 23.755 12.3893 23.7519 12.3893 23.7488C12.3894 23.7457 12.39 23.7427 12.3913 23.7398C12.3925 23.737 12.3943 23.7344 12.3966 23.7323C12.591 23.5465 12.7977 23.3607 12.8979 23.1112C13.3737 21.9333 11.9381 20.9694 11.0174 21.8468C10.9333 21.9269 10.8526 22.009 10.7752 22.0931C10.7582 22.1113 10.7409 22.1116 10.7233 22.094Z" fill="black"/>
      <path d="M18.9924 10.6063L18.4759 11.1227C18.4685 11.1302 18.4685 11.1423 18.4759 11.1498L18.9936 11.6675C19.0011 11.6749 19.0132 11.6749 19.0207 11.6675L19.5371 11.151C19.5446 11.1436 19.5446 11.1315 19.5371 11.124L19.0194 10.6063C19.0119 10.5988 18.9998 10.5988 18.9924 10.6063Z" fill="black"/>
      <path d="M20.0811 11.6948L19.5653 12.2106C19.5573 12.2186 19.5573 12.2316 19.5653 12.2396L20.0811 12.7554C20.0891 12.7634 20.102 12.7634 20.11 12.7554L20.6258 12.2396C20.6338 12.2316 20.6338 12.2186 20.6258 12.2106L20.11 11.6948C20.102 11.6868 20.0891 11.6868 20.0811 11.6948Z" fill="black"/>
      <path d="M21.1749 12.7802L20.6521 13.303C20.646 13.3091 20.646 13.3189 20.6521 13.3249L21.1736 13.8465C21.1797 13.8525 21.1895 13.8525 21.1955 13.8465L21.7184 13.3236C21.7244 13.3176 21.7244 13.3078 21.7184 13.3017L21.1968 12.7802C21.1908 12.7741 21.181 12.7741 21.1749 12.7802Z" fill="black"/>
      <path d="M22.8044 14.3883L22.2873 13.8713C22.2796 13.8636 22.2672 13.8636 22.2596 13.8713L21.7425 14.3883C21.7349 14.396 21.7349 14.4084 21.7425 14.416L22.2596 14.9331C22.2672 14.9407 22.2796 14.9407 22.2873 14.9331L22.8044 14.416C22.812 14.4084 22.812 14.396 22.8044 14.3883Z" fill="black"/>
      <path d="M23.8919 15.4764L23.3761 14.9606C23.368 14.9524 23.3547 14.9524 23.3465 14.9606L22.8314 15.4757C22.8232 15.4839 22.8232 15.4972 22.8314 15.5054L23.3472 16.0212C23.3553 16.0293 23.3686 16.0293 23.3768 16.0212L23.8919 15.506C23.9001 15.4978 23.9001 15.4846 23.8919 15.4764Z" fill="black"/>
      <path d="M16.3456 16.1763C16.2985 16.89 16.2733 17.6081 16.2827 18.3235C16.2827 18.3239 16.2825 18.3243 16.2822 18.3246C16.2819 18.3249 16.2815 18.325 16.2811 18.325C16.1864 18.3262 16.0918 18.3304 15.9973 18.3376C15.996 18.3377 15.9953 18.3371 15.9952 18.3358C15.9842 18.1944 15.9456 18.053 15.8996 17.9193C15.8475 17.7681 15.7876 17.6187 15.7157 17.4758C15.6323 17.3102 15.561 17.1377 15.5136 16.9583C15.4892 16.8657 15.473 16.7672 15.4766 16.6714C15.4841 16.4708 15.5454 16.2878 15.6604 16.1224C15.7528 15.9895 15.8662 15.878 16.0005 15.7877C16.0384 15.7622 16.0656 15.743 16.082 15.73C16.1748 15.657 16.2626 15.5777 16.3454 15.4921C16.3456 15.4918 16.346 15.4916 16.3463 15.4914C16.3467 15.4913 16.3471 15.4912 16.3475 15.4912C16.3479 15.4912 16.3483 15.4913 16.3486 15.4914C16.349 15.4916 16.3493 15.4918 16.3496 15.4921C16.4373 15.5825 16.5309 15.6663 16.6305 15.7435C16.6419 15.7523 16.6616 15.7659 16.6898 15.7843C16.8245 15.8725 16.9426 15.9927 17.0324 16.1229C17.1395 16.2782 17.2006 16.4491 17.2157 16.6357C17.2217 16.7099 17.214 16.7864 17.2 16.8585C17.1593 17.0686 17.0792 17.2746 16.9834 17.467C16.9639 17.5062 16.9487 17.5381 16.9378 17.5627C16.8303 17.8061 16.722 18.0674 16.6996 18.3352C16.6995 18.3368 16.6986 18.3375 16.697 18.3374C16.6031 18.3303 16.5091 18.3262 16.415 18.3251C16.4132 18.3251 16.4123 18.3242 16.4123 18.3224C16.4122 18.2884 16.4135 18.2471 16.4136 18.2205C16.4161 17.5387 16.3946 16.8575 16.349 16.1771C16.3489 16.1762 16.3485 16.1757 16.3476 16.1757H16.3462C16.3458 16.1757 16.3456 16.1759 16.3456 16.1763Z" fill="black"/>
      <path d="M14.8387 18.0155C14.7307 18.1245 14.7043 18.2911 14.7264 18.4369C14.7266 18.4385 14.7259 18.4393 14.7243 18.4394C14.3601 18.4546 14.0758 18.2275 14.0078 17.8706C13.9164 17.391 14.2636 16.9039 14.7701 16.9058C14.8931 16.9062 15.0124 16.933 15.128 16.986C15.6292 17.216 15.8418 17.8493 15.9112 18.3444C15.9113 18.3447 15.9112 18.345 15.9112 18.3453C15.9111 18.3456 15.9109 18.3458 15.9108 18.346C15.9106 18.3463 15.9104 18.3464 15.9101 18.3466C15.9099 18.3467 15.9096 18.3468 15.9093 18.3468C15.7863 18.3586 15.6643 18.3772 15.5434 18.4026C15.5416 18.403 15.5405 18.4023 15.54 18.4006C15.4688 18.1474 15.2665 17.8323 14.9494 17.9473C14.9045 17.9636 14.8677 17.9863 14.8387 18.0155ZM14.6448 17.5069C14.6444 17.5067 14.644 17.5063 14.6438 17.5058C14.6435 17.5054 14.6435 17.5049 14.6435 17.5043L14.6775 17.3068C14.6776 17.3063 14.6775 17.3058 14.6773 17.3053C14.6771 17.3048 14.6767 17.3044 14.6762 17.3042C14.6758 17.3039 14.6752 17.3039 14.6747 17.3039C14.6742 17.304 14.6737 17.3043 14.6734 17.3046L14.5311 17.4458C14.5307 17.4461 14.5302 17.4464 14.5297 17.4465C14.5292 17.4465 14.5287 17.4464 14.5282 17.4462L14.3508 17.3529C14.3504 17.3526 14.3499 17.3526 14.3494 17.3526C14.3489 17.3527 14.3484 17.353 14.348 17.3533C14.3477 17.3537 14.3474 17.3541 14.3473 17.3546C14.3473 17.3551 14.3473 17.3557 14.3475 17.3561L14.4377 17.5351C14.438 17.5355 14.4381 17.5361 14.438 17.5366C14.4379 17.5371 14.4376 17.5376 14.4373 17.5379L14.2937 17.6778C14.2933 17.6782 14.2931 17.6786 14.293 17.6791C14.2929 17.6796 14.293 17.6801 14.2932 17.6806C14.2935 17.6811 14.2938 17.6814 14.2943 17.6817C14.2947 17.6819 14.2953 17.682 14.2958 17.6819L14.4939 17.6514C14.4944 17.6513 14.4949 17.6514 14.4954 17.6517C14.4958 17.6519 14.4962 17.6523 14.4964 17.6528L14.585 17.8325C14.5852 17.833 14.5856 17.8334 14.5861 17.8336C14.5865 17.8339 14.5871 17.834 14.5876 17.8339C14.5881 17.8338 14.5886 17.8336 14.5889 17.8332C14.5893 17.8329 14.5896 17.8324 14.5896 17.8319L14.6218 17.634C14.6219 17.6335 14.6222 17.633 14.6225 17.6327C14.6229 17.6323 14.6234 17.6321 14.6239 17.632L14.8222 17.6032C14.8227 17.6032 14.8232 17.6029 14.8236 17.6026C14.8239 17.6022 14.8242 17.6018 14.8243 17.6013C14.8244 17.6007 14.8243 17.6002 14.8241 17.5998C14.8238 17.5993 14.8235 17.5989 14.823 17.5987L14.6448 17.5069Z" fill="black"/>
      <path d="M16.9776 17.6706C17.1433 17.2822 17.4443 16.9484 17.8923 16.918C18.276 16.8921 18.6444 17.2054 18.6985 17.5848C18.7334 17.8303 18.6734 18.0894 18.4891 18.2621C18.3525 18.3901 18.1644 18.4478 17.9798 18.4513C17.9778 18.4513 17.9769 18.4504 17.9772 18.4484C17.9944 18.292 17.9701 18.0739 17.8189 17.9815C17.7309 17.9277 17.6377 17.914 17.5394 17.9405C17.3396 17.9944 17.1888 18.2063 17.1613 18.4044C17.161 18.4064 17.1598 18.4072 17.1578 18.4068C17.0377 18.3809 16.9165 18.362 16.7942 18.3503C16.7929 18.3502 16.7923 18.3495 16.7925 18.3482C16.8268 18.1157 16.8855 17.8866 16.9776 17.6706ZM18.0758 17.6536L18.1643 17.8305C18.166 17.8339 18.1671 17.8337 18.1678 17.8299L18.2013 17.6343C18.2015 17.6329 18.2023 17.6321 18.2037 17.6319L18.3987 17.602C18.4031 17.6013 18.4033 17.5999 18.3994 17.5979L18.2243 17.5059C18.2229 17.5052 18.2223 17.5041 18.2226 17.5025L18.2544 17.3062C18.2551 17.302 18.254 17.3014 18.2509 17.3044L18.1096 17.444C18.1084 17.4452 18.1071 17.4454 18.1056 17.4446L17.928 17.3514C17.9259 17.3502 17.9254 17.3508 17.9265 17.3529L18.0165 17.5329C18.0167 17.5333 18.0168 17.5338 18.0167 17.5343C18.0166 17.5348 18.0164 17.5353 18.016 17.5356L17.8724 17.6776C17.8704 17.6795 17.8708 17.6802 17.8735 17.6798L18.0715 17.6514C18.0735 17.6511 18.075 17.6518 18.0758 17.6536Z" fill="black"/>
      <path d="M15.4536 18.7019C15.4067 18.6851 15.348 18.6388 15.3855 18.5819C15.4025 18.5561 15.4413 18.5385 15.4705 18.5291C15.5636 18.4989 15.6628 18.4843 15.7599 18.4737C16.0939 18.4374 16.4349 18.4354 16.77 18.4586C16.8453 18.4638 16.9205 18.4713 16.9954 18.4813C17.0709 18.4913 17.1469 18.5042 17.2196 18.5276C17.2528 18.5383 17.2972 18.5572 17.313 18.5903C17.3554 18.6794 17.2047 18.7164 17.1508 18.728C17.0649 18.7466 16.9813 18.7597 16.9 18.7674C16.5438 18.8007 16.1848 18.8016 15.8229 18.77C15.7901 18.7671 15.7423 18.7614 15.6797 18.7528C15.6023 18.7422 15.5252 18.7276 15.4536 18.7019ZM15.4761 18.6153C15.4707 18.6174 15.4707 18.6194 15.4761 18.6214C15.4965 18.6292 15.5185 18.6358 15.542 18.6414C15.6285 18.6619 15.7161 18.6765 15.8047 18.6851C16.0835 18.7121 16.367 18.7158 16.6466 18.7029C16.7642 18.6974 16.8814 18.6868 16.9981 18.6711C17.0712 18.6612 17.1495 18.6486 17.2181 18.621C17.2227 18.6191 17.2227 18.6173 17.2181 18.6156C17.1867 18.6035 17.155 18.5938 17.1205 18.5869C17.0265 18.5679 16.9296 18.5544 16.8297 18.5464C16.4924 18.5195 16.1573 18.521 15.8244 18.5509C15.7084 18.5613 15.586 18.5751 15.4761 18.6153Z" fill="black"/>
      <path d="M17.2861 19.5396C17.1282 19.5278 17.0185 19.4264 16.9461 19.2933C16.8767 19.1657 16.8338 19.0228 16.8043 18.8812C16.8039 18.8794 16.8046 18.8784 16.8064 18.8782C16.9109 18.8681 17.0147 18.853 17.1179 18.8331C17.1197 18.8327 17.1209 18.8335 17.1215 18.8353C17.1881 19.0787 17.4146 19.2417 17.6687 19.1536C17.6849 19.148 17.7009 19.1419 17.7168 19.1352C17.7188 19.1343 17.7196 19.135 17.7192 19.1371C17.6798 19.3545 17.5324 19.558 17.2861 19.5396Z" fill="black"/>
      <path d="M15.4183 19.5418C15.1731 19.5494 15.0361 19.3567 15.001 19.1364C15.0007 19.1343 15.0015 19.1338 15.0033 19.1346C15.0116 19.1384 15.0199 19.1421 15.0281 19.1458C15.2837 19.2604 15.5327 19.0853 15.5992 18.8364C15.5993 18.8359 15.5996 18.8355 15.6 18.8353C15.6005 18.835 15.601 18.8349 15.6015 18.835C15.7048 18.8558 15.809 18.8708 15.9141 18.8802C15.9156 18.8803 15.9162 18.8811 15.9159 18.8826C15.8851 19.0288 15.8418 19.1781 15.7692 19.3082C15.6939 19.4434 15.5808 19.5368 15.4183 19.5418Z" fill="black"/>
      <path d="M16.3504 19.6635C16.3517 19.6703 16.3529 19.6703 16.3541 19.6635C16.3982 19.4191 16.411 19.1658 16.4115 18.9177C16.4115 18.917 16.4118 18.9162 16.4123 18.9157C16.4128 18.9151 16.4136 18.9148 16.4143 18.9148C16.5157 18.9138 16.6169 18.9091 16.7179 18.9008C16.7196 18.9006 16.7207 18.9014 16.721 18.9032C16.7626 19.1461 16.8555 19.3671 16.9998 19.5663C17.0008 19.5678 17.0009 19.5694 17.0001 19.571C16.8651 19.8358 16.6255 20.0526 16.356 20.1741C16.3547 20.1747 16.3533 20.175 16.3519 20.175C16.3504 20.1751 16.349 20.1748 16.3477 20.1743C16.3233 20.1644 16.2988 20.1531 16.2743 20.1402C16.0372 20.0162 15.8226 19.8137 15.7046 19.5712C15.7038 19.5696 15.704 19.5681 15.705 19.5667C15.8511 19.3755 15.9462 19.1399 15.9832 18.9016C15.9832 18.9012 15.9834 18.9009 15.9837 18.9007C15.984 18.9005 15.9843 18.9004 15.9847 18.9004C16.0865 18.9088 16.1885 18.9136 16.2906 18.915C16.2912 18.915 16.2918 18.9153 16.2922 18.9157C16.2926 18.9161 16.2929 18.9167 16.2929 18.9173C16.2939 19.1519 16.3073 19.4182 16.3504 19.6635Z" fill="black"/>
    </symbol>
  </defs>
</svg>